<?xml version="1.0" standalone="no"?>
<!DOCTYPE svg PUBLIC "-//W3C//DTD SVG 20010904//EN"
 "http://www.w3.org/TR/2001/REC-SVG-20010904/DTD/svg10.dtd">
<svg version="1.0" xmlns="http://www.w3.org/2000/svg"
 width="1536.000000pt" height="1024.000000pt" viewBox="0 0 1536.000000 1024.000000"
 preserveAspectRatio="xMidYMid meet">

<g transform="translate(0.000000,1024.000000) scale(0.100000,-0.100000)"
fill="#000000" stroke="none">
<path d="M3470 7415 l0 -1405 453 0 454 0 6 398 c4 218 7 634 7 925 l0 527
453 0 454 0 12 -27 c33 -72 461 -1154 461 -1165 0 -3 -31 -26 -69 -51 -175
-116 -455 -369 -606 -547 -336 -396 -549 -832 -649 -1325 -42 -207 -49 -303
-43 -623 5 -316 13 -389 72 -617 139 -539 424 -1024 834 -1417 175 -168 343
-298 581 -450 l105 -68 2194 0 2194 0 111 71 c550 354 944 782 1200 1304 334
679 383 1435 140 2161 -199 597 -613 1137 -1145 1495 -49 33 -89 66 -89 73 0
8 32 101 71 208 484 1318 699 1912 699 1929 0 5 -1471 9 -3950 9 l-3950 0 0
-1405z m6409 -1479 c431 -260 739 -620 907 -1058 38 -100 90 -300 101 -385 5
-51 5 -53 -18 -54 -121 -4 -5382 1 -5386 4 -9 9 18 145 53 273 82 303 244 585
473 826 160 169 328 301 531 420 l65 38 1583 0 1584 0 107 -64z"/>
</g>
</svg>
