<?xml version="1.0" encoding="UTF-8"?>
<svg version="1.1" xmlns="http://www.w3.org/2000/svg" width="1056" height="992">
<path d="M0 0 C6.25309002 12.16709872 11.91837307 24.54780713 17.4375 37.0625 C18.31792282 39.05168023 19.19854157 41.04077375 20.0793457 43.02978516 C27.76402561 60.40010417 35.36054682 77.80871078 42.92773438 95.23046875 C46.4249004 103.28129656 49.93090423 111.32827592 53.4375 119.375 C53.78578857 120.17436981 54.13407715 120.97373962 54.49291992 121.79733276 C60.79591918 136.26162305 67.13336568 150.71067206 73.48022461 165.15576172 C77.99586462 175.43323535 82.5036003 185.71409478 87 196 C94.54235016 213.25188777 102.11411177 230.49084218 109.68554688 247.72998047 C113.0842149 255.46847237 116.48158217 263.20753532 119.87902832 270.94656372 C121.75263044 275.21440001 123.62631969 279.48219804 125.5 283.75 C126.25000042 285.45833315 127.00000042 287.16666648 127.75 288.875 C128.12125 289.720625 128.4925 290.56625 128.875 291.4375 C132.25 299.125 132.25 299.125 133.37484741 301.68717957 C134.12532942 303.3965927 134.87583807 305.10599414 135.62637329 306.81538391 C137.49421664 311.06960102 139.36160591 315.32401628 141.22802734 319.57885742 C144.6875354 327.46414861 148.15116331 335.34754132 151.63067627 343.22402954 C153.24348058 346.87563683 154.85375747 350.52835627 156.46386719 354.18115234 C157.21945389 355.89345544 157.97622755 357.60523542 158.734375 359.31640625 C162.77242994 368.43129113 166.70027602 377.58047823 170.42578125 386.828125 C170.76199493 387.65822586 171.09820862 388.48832672 171.4446106 389.34358215 C176.93944874 403.12741346 177.5039628 416.07282363 171.609375 429.96484375 C169.2119543 434.48619298 166.19985385 437.89652812 162.55517578 441.46240234 C160.69091441 443.305592 158.87670352 445.19331527 157.05859375 447.08203125 C143.30900643 461.25583452 130.30571982 474.20957837 109.4375 474.625 C108.68267334 474.64828369 107.92784668 474.67156738 107.15014648 474.69555664 C100.06050313 474.59758514 94.31168466 472.00671908 88 469 C87.2453244 468.64147949 86.4906488 468.28295898 85.71310425 467.91357422 C79.20098211 464.80446562 72.72431935 461.62438026 66.25 458.4375 C64.21834734 457.44025524 62.18660861 456.4431858 60.15478516 455.44628906 C54.43342475 452.63713166 48.7158164 449.8204184 43 447 C42.28203247 446.64585022 41.56406494 446.29170044 40.82434082 445.92681885 C37.00433579 444.04165723 33.18787774 442.14953386 29.375 440.25 C28.56450195 439.8470874 27.75400391 439.4441748 26.91894531 439.02905273 C22.96569229 437.04718853 19.03599989 435.02486581 15.13052368 432.95050049 C3.40172671 426.72281012 -8.4312012 420.72289673 -20.31811523 414.80335999 C-23.59393569 413.1719691 -26.86840353 411.53788962 -30.14257812 409.90319824 C-37.09391277 406.4331793 -44.04682845 402.96633641 -51 399.5 C-59.07256337 395.47561773 -67.14442947 391.44984916 -75.21459961 387.42066956 C-78.40329847 385.8295042 -81.59321347 384.24079723 -84.78320312 382.65222168 C-93.65359682 378.22806094 -102.49923654 373.77257607 -111.25390625 369.12304688 C-122.90688235 362.93825318 -134.72491503 357.08227108 -146.53227615 351.19963074 C-149.78598091 349.57786957 -153.03831979 347.95337388 -156.29077148 346.32910156 C-164.525977 342.21698671 -172.76288802 338.10829428 -181 334 C-189.90124066 329.56046874 -198.80215374 325.12028721 -207.70110035 320.67615891 C-210.91622692 319.07064805 -214.13176256 317.46596928 -217.34835815 315.86340332 C-229.56886203 309.7747491 -241.78234477 303.68321744 -253.82904053 297.25523376 C-258.9198835 294.54121802 -264.06954677 291.96771024 -269.2578125 289.4453125 C-270.74091814 288.72142122 -272.22399535 287.99747165 -273.70703125 287.2734375 C-275.94882811 286.18067982 -278.19250445 285.09267753 -280.44189453 284.015625 C-282.67862834 282.94237068 -284.90617752 281.85183086 -287.1328125 280.7578125 C-287.81175568 280.43797394 -288.49069885 280.11813538 -289.19021606 279.78860474 C-293.72627785 277.53433066 -293.72627785 277.53433066 -295.00390625 275.0402832 C-294.99931635 272.64292086 -294.5773176 270.87085093 -293.8046875 268.59765625 C-293.35959839 267.28498779 -293.35959839 267.28498779 -292.90551758 265.94580078 C-292.56544678 264.99431152 -292.22537598 264.04282227 -291.875 263.0625 C-291.51881592 262.05687012 -291.16263184 261.05124023 -290.7956543 260.01513672 C-274.15026871 214.26906133 -249.07452138 172.33078942 -218 135 C-217.23558594 134.04867187 -216.47117187 133.09734375 -215.68359375 132.1171875 C-208.62365372 123.47430738 -200.8040495 115.58758019 -192.9375 107.6875 C-192.38305206 107.12787567 -191.82860413 106.56825134 -191.25735474 105.9916687 C-184.90453136 99.59218252 -178.464448 93.54180487 -171.40112305 87.9152832 C-169.38385607 86.30618718 -167.42736751 84.66320071 -165.49609375 82.953125 C-151.42087846 70.49165737 -135.95665198 59.90011254 -120 50 C-119.34273926 49.59217285 -118.68547852 49.1843457 -118.00830078 48.76416016 C-35.23731122 -2.13559462 -35.23731122 -2.13559462 0 0 Z " fill="#010101" transform="translate(422,106)"/>
<path d="M0 0 C8.88863669 2.95903815 17.23189434 6.84402315 25.62158203 10.97119141 C27.06510708 11.67657434 28.50876607 12.38168324 29.95254707 13.08654213 C47.4404935 21.63953354 64.85023579 30.35173573 82.25982046 39.06274748 C87.04411414 41.45618931 91.82940983 43.84762647 96.61453247 46.2394104 C104.62410944 50.24329867 112.63285866 54.2488387 120.64111328 58.25537109 C129.84298166 62.85903726 139.04630091 67.45979287 148.25035846 72.05908048 C156.2358608 76.04955059 164.22057071 80.04160292 172.20463955 84.03494036 C176.93778272 86.40228324 181.67117878 88.7691162 186.40530014 91.13450241 C190.84710693 93.35394321 195.287903 95.57539419 199.72798157 97.79829025 C201.33869167 98.60429626 202.94972725 99.40965229 204.56114578 100.21424103 C213.9145007 104.88502219 223.21103322 109.64921512 232.44864833 114.54546201 C239.6379079 118.35499364 246.90024489 122.00732705 254.1875 125.625 C255.44996736 126.25371037 256.71233714 126.88261672 257.97460938 127.51171875 C260.98213136 129.00971821 263.99058144 130.50581543 267 132 C267 137.04205195 265.94926238 137.61936038 262.53222656 141.20947266 C262.010228 141.76004648 261.48822945 142.31062031 260.95041275 142.87787819 C251.54748371 152.7109983 241.86383471 162.28141128 232.23838329 171.89594221 C229.26713031 174.86463219 226.29835326 177.8357967 223.3291626 180.80654907 C218.3517687 185.78575188 213.37229347 190.76286588 208.39160156 195.73876953 C202.6512993 201.47361664 196.9146282 207.21207717 191.1797998 212.9523977 C186.22845483 217.90829251 181.27514916 222.86222132 176.32022309 227.81453574 C173.37252154 230.76068672 170.42547975 233.70748913 167.48021698 236.65607834 C164.7146417 239.42456017 161.94659737 242.19055021 159.17669678 244.95470428 C158.16649464 245.96359433 157.15712355 246.97331736 156.14868927 247.98397446 C151.13996535 253.0027131 146.09150675 257.89310843 140.71076584 262.51200676 C138.40807876 264.51484241 136.2575549 266.6444302 134.11621094 268.81787109 C133.24881287 269.69502777 132.38141479 270.57218445 131.48773193 271.47592163 C130.12482025 272.86069199 130.12482025 272.86069199 128.734375 274.2734375 C127.76934881 275.24797216 126.80386564 276.2220545 125.83795166 277.19570923 C121.77265887 281.29429841 117.71192483 285.39732924 113.66113281 289.51025391 C111.16852377 292.04049323 108.66866805 294.56337484 106.16400909 297.08168411 C104.75601004 298.50161905 103.35617417 299.92963355 101.95648193 301.35775757 C101.1016925 302.21600128 100.24690308 303.074245 99.36621094 303.95849609 C98.24324615 305.09597794 98.24324615 305.09597794 97.09759521 306.25643921 C94.98423011 308.01310823 93.68703952 308.61508589 91 309 C72.53792757 289.90723565 58.7624251 266.1021957 46 243 C45.5359375 242.1651709 45.071875 241.3303418 44.59375 240.47021484 C22.72229001 200.86702788 8.3018365 157.24644265 1.1875 112.625 C0.9922876 111.40329102 0.7970752 110.18158203 0.59594727 108.92285156 C-2.29991752 89.56594522 -3.33386931 70.2795816 -3.26074219 50.71948242 C-3.24997429 47.30434568 -3.26074097 43.88973088 -3.2734375 40.47460938 C-3.28153732 27.24415537 -2.94479674 14.10753315 -1 1 C-0.67 0.67 -0.34 0.34 0 0 Z " fill="#020202" transform="translate(111,462)"/>
<path d="M0 0 C49.689992 -0.43110644 49.689992 -0.43110644 68 2 C69.18819336 2.15597656 70.37638672 2.31195313 71.60058594 2.47265625 C149.1575125 12.98225232 218.4051455 43.09289094 280 91 C281.33067613 92.00353316 282.66287405 93.0050769 284 94 C280.44852305 101.80072926 273.36141807 107.77631648 267.34375 113.71875 C266.2848053 114.77201477 266.2848053 114.77201477 265.20446777 115.84655762 C262.22102625 118.81383766 259.2315929 121.77505363 256.24267578 124.73681641 C254.04509421 126.91618465 251.85062062 129.09864947 249.65625 131.28125 C248.66063049 132.264422 248.66063049 132.264422 247.64489746 133.26745605 C247.00733521 133.90171509 246.36977295 134.53597412 245.71289062 135.18945312 C245.16330688 135.73380005 244.61372314 136.27814697 244.04748535 136.83898926 C242.24130229 138.7453184 240.5283416 140.69468395 238.81455994 142.68345642 C234.81624311 147.27488636 230.5634096 151.57709511 226.25415039 155.87524414 C225.40766434 156.72348251 224.56117828 157.57172089 223.68904114 158.44566345 C221.38920797 160.74911804 219.08717235 163.05034093 216.78393483 165.35039067 C214.35985515 167.77191678 211.93824105 170.19590667 209.51622009 172.61949158 C205.45051514 176.68700953 201.38272088 180.75242905 197.3137207 184.81665039 C192.62723826 189.4976919 187.94436881 194.18232462 183.26335913 198.86883837 C179.22506146 202.911692 175.18479587 206.9525712 171.14291567 210.99184316 C168.73728625 213.39592342 166.33231397 215.80065063 163.92912483 218.20717049 C161.24691723 220.89193117 158.56150144 223.57344245 155.87524414 226.25415039 C155.09213867 227.03928009 154.3090332 227.82440979 153.50219727 228.6333313 C149.36513565 232.75465655 145.14693376 236.71389742 140.71027756 240.51191044 C138.26375525 242.64059668 135.9977883 244.92511765 133.73046875 247.2421875 C132.82232422 248.16257812 131.91417969 249.08296875 130.97851562 250.03125 C129.57094505 251.46541568 128.16342663 252.89963705 126.7590332 254.33691406 C125.37890591 255.74715236 123.99228138 257.15102297 122.60546875 258.5546875 C121.79231201 259.38468262 120.97915527 260.21467773 120.14135742 261.06982422 C118 263 118 263 115 264 C107.46464094 247.11648229 99.93192836 230.23392601 92.625 213.25 C87.54113915 201.44299583 82.29338335 189.71444325 77 178 C71.26183957 165.3007218 65.60914735 152.57434903 60.10229492 139.77270508 C55.25900615 128.53893471 50.29069748 117.36204212 45.3125 106.1875 C38.004221 89.78122277 30.74398625 73.35504472 23.54638672 56.89990234 C19.85444419 48.46516394 16.13330166 40.04509779 12.35546875 31.6484375 C11.60509328 29.9766663 10.85476688 28.30487307 10.10449219 26.63305664 C8.69744004 23.49850073 7.28148841 20.3681809 5.86035156 17.23999023 C5.22817678 15.8333228 4.59632242 14.42651132 3.96484375 13.01953125 C3.67723679 12.39335907 3.38962982 11.76718689 3.0933075 11.12203979 C1.44669492 7.42891717 0.49294105 4.01198179 0 0 Z " fill="#020202" transform="translate(502,93)"/>
<path d="M0 0 C0.96906281 0.25535522 1.93812561 0.51071045 2.93655396 0.77380371 C4.05674927 1.02130371 5.17694458 1.26880371 6.33108521 1.52380371 C10.26022522 2.96074635 13.38899846 4.41836004 15.93655396 7.77380371 C16.88249119 11.36893877 16.83205017 14.89273958 16.81497192 18.59460449 C16.83367781 19.69170305 16.85238369 20.78880161 16.87165642 21.91914558 C16.92435803 25.53776274 16.93190928 29.15482999 16.93655396 32.77380371 C16.95891287 35.24043317 16.98296071 37.70704786 17.00863647 40.17364502 C17.07203067 47.5971301 17.07764459 55.01980951 17.07087946 62.44347906 C17.06827418 66.22742616 17.07071694 70.01137136 17.07226562 73.7953186 C17.0740718 80.17763713 17.07173019 86.559944 17.06692505 92.94226074 C17.06215214 99.3524248 17.06205444 105.76256551 17.06692505 112.17272949 C17.09003783 143.58808052 17.06751848 175.0031787 16.60961533 206.41580582 C16.57283817 208.9603498 16.53884106 211.50493574 16.50784683 214.04955673 C16.4637178 217.53225362 16.40704022 221.01450773 16.34622192 224.49694824 C16.33506222 225.50031345 16.32390251 226.50367867 16.31240463 227.53744888 C16.03181566 241.14854536 12.87330682 252.85798112 3.43655396 263.08630371 C-6.35725768 272.24587755 -18.600832 277.00507258 -31.99264526 276.87902832 C-84.93875411 274.18865189 -147.05113523 233.81732331 -187.06344604 201.77380371 C-188.05473511 200.98618652 -189.04602417 200.19856934 -190.06735229 199.38708496 C-192.4056618 197.52359213 -194.73787943 195.65315551 -197.06344604 193.77380371 C-193.26611684 189.23997712 -189.34697089 184.91216021 -185.15673828 180.7401123 C-184.59372603 180.17554007 -184.03071378 179.61096783 -183.45064056 179.02928734 C-181.58320986 177.15790146 -179.71226554 175.29007056 -177.84127808 173.42224121 C-176.4935777 172.07318435 -175.14608984 170.72391516 -173.79879761 169.37445068 C-170.15230529 165.7234131 -166.50267311 162.07552957 -162.85232019 158.42835236 C-159.02421186 154.60278317 -155.19855242 150.77476627 -151.37249756 146.94714355 C-144.94689656 140.51972518 -138.51919452 134.09441358 -132.09030151 127.67028809 C-124.66987884 120.25530488 -117.25306226 112.83672934 -109.83811295 105.41627312 C-103.46014751 99.03376149 -97.08022506 92.653211 -90.6986798 86.27427864 C-86.89239601 82.46954963 -83.08678097 78.66415832 -79.28293228 74.85699463 C-75.70486637 71.2760282 -72.1243403 67.69753957 -68.54194641 64.12090302 C-67.23181169 62.81208433 -65.92251562 61.50242549 -64.61414719 60.19184113 C-58.77027777 54.33899168 -52.95939854 48.52162942 -46.66089058 43.15238953 C-44.45425046 41.24807128 -42.42166752 39.20104839 -40.39498901 37.10778809 C-39.57408783 36.26421753 -38.75318665 35.42064697 -37.90740967 34.55151367 C-37.04882355 33.66580688 -36.19023743 32.7801001 -35.30563354 31.86755371 C-33.4458583 29.970823 -31.58523696 28.07495601 -29.72360229 26.18005371 C-26.8130072 23.21539812 -23.90800868 20.24579206 -21.02096558 17.25817871 C-19.12273541 15.29457993 -17.21561918 13.34052506 -15.29736328 11.39648438 C-13.49813423 9.57284264 -11.71231687 7.73585031 -9.94158936 5.88452148 C-9.12699249 5.06616821 -8.31239563 4.24781494 -7.47311401 3.40466309 C-6.76444183 2.67743042 -6.05576965 1.95019775 -5.32562256 1.20092773 C-3.06344604 -0.22619629 -3.06344604 -0.22619629 0 0 Z " fill="#030302" transform="translate(454.0634460449219,633.2261962890625)"/>
<path d="M0 0 C1.74639633 1.89476274 3.27326776 3.7574997 4.8125 5.8125 C5.52720459 6.74823853 5.52720459 6.74823853 6.25634766 7.70288086 C7.29669084 9.07102398 8.3319445 10.44304814 9.36279297 11.81835938 C11.0221126 14.02946587 12.70000543 16.22561333 14.37890625 18.421875 C41.02418672 53.59919085 60.47564309 93.21207437 74.4375 134.9375 C74.65327698 135.58229309 74.86905396 136.22708618 75.09136963 136.89141846 C80.56458256 153.31841443 84.48592474 168.86401018 76.93359375 185.32421875 C72.04551989 194.8261181 65.14428754 201.55259979 56 207 C55.44114168 207.40930598 54.88228336 207.81861197 54.30648994 208.24032116 C45.15148588 214.01469754 34.24935647 212.70424181 23.84326172 212.65942383 C21.58564877 212.66788313 19.32804312 212.67853002 17.07044983 212.69119263 C10.96163048 212.71928735 4.8531629 212.71687631 -1.25570154 212.70889878 C-7.64723524 212.70576966 -14.0386577 212.73082005 -20.43014526 212.75285339 C-31.15137828 212.78602976 -41.87247542 212.80191496 -52.59375 212.80444336 C-63.63252899 212.80709429 -74.67121389 212.82024413 -85.70996094 212.84741211 C-86.39135569 212.84908549 -87.07275044 212.85075887 -87.77479352 212.85248295 C-91.19343994 212.86094294 -94.6120858 212.86960827 -98.03073144 212.87837565 C-126.35380389 212.95074712 -154.67684241 212.98682348 -183 213 C-184.13141074 210.79154967 -185.25675851 208.58033925 -186.37890625 206.3671875 C-186.69653931 205.7486792 -187.01417236 205.1301709 -187.34143066 204.49291992 C-189.87057439 199.48728868 -191.67924485 194.45912127 -193 189 C-186.260449 182.21418782 -179.5155691 175.43373162 -172.76375008 168.66012573 C-169.62906264 165.51498377 -166.49626972 162.36800127 -163.36767578 159.21679688 C-160.35054263 156.17799478 -157.32860512 153.14404908 -154.30321884 150.11346436 C-153.14759339 148.95413243 -151.99373489 147.79303653 -150.8416481 146.63018799 C-149.23251588 145.00661993 -147.61731708 143.38933581 -146.00048828 141.7734375 C-145.08115509 140.84966309 -144.1618219 139.92588867 -143.21463013 138.97412109 C-141 137 -141 137 -139 137 C-139 136.34 -139 135.68 -139 135 C-137.69334126 133.71446133 -137.69334126 133.71446133 -135.78816223 132.15904236 C-129.65296044 126.934911 -124.06208717 121.16885218 -118.3894043 115.45532227 C-117.1322652 114.19298192 -115.8748782 112.93088842 -114.61726379 111.66902161 C-111.92375458 108.96562198 -109.23172376 106.26076193 -106.54077721 103.55481148 C-102.28772027 99.27859621 -98.02970261 95.00734397 -93.77070618 90.73704529 C-81.66563758 78.59861409 -69.56486172 66.45592551 -57.47436523 54.30297852 C-50.78614961 47.58029996 -44.09263754 40.86294314 -37.39312106 34.15152591 C-33.15464222 29.90493313 -28.92282987 25.65183971 -24.6957258 21.39392579 C-22.07270426 18.75495193 -19.44346464 16.12224449 -16.81236076 13.4913311 C-15.59026345 12.26680289 -14.37075973 11.03968016 -13.15400314 9.80984497 C-11.49824104 8.13702442 -9.83359048 6.47359522 -8.16630554 4.81227112 C-7.23554545 3.87744683 -6.30478537 2.94262255 -5.34582043 1.97947025 C-3 0 -3 0 0 0 Z " fill="#010101" transform="translate(843,244)"/>
<path d="M0 0 C0.99 0.33 1.98 0.66 3 1 C1.68 1.99 0.36 2.98 -1 4 C-0.67 2.68 -0.34 1.36 0 0 Z " fill="#0C0D0D" transform="translate(351,732)"/>
<path d="M0 0 C0 3 0 3 -1.49707031 4.85351562 C-2.18381836 5.53091797 -2.87056641 6.20832031 -3.578125 6.90625 C-4.32707031 7.65003906 -5.07601562 8.39382813 -5.84765625 9.16015625 C-6.64042969 9.93230469 -7.43320312 10.70445312 -8.25 11.5 C-9.02730469 12.27214844 -9.80460938 13.04429687 -10.60546875 13.83984375 C-13.9405707 17.12933747 -17.19288952 20.25717419 -21 23 C-21.66 22.67 -22.32 22.34 -23 22 C-20.54976242 19.49195282 -18.08852402 16.9949924 -15.625 14.5 C-14.57699219 13.42685547 -14.57699219 13.42685547 -13.5078125 12.33203125 C-12.8375 11.65527344 -12.1671875 10.97851562 -11.4765625 10.28125 C-10.85861816 9.65283203 -10.24067383 9.02441406 -9.60400391 8.37695312 C-8 7 -8 7 -6 7 C-6 6.34 -6 5.68 -6 5 C-4.04072937 3.2856382 -2.04119788 1.61594832 0 0 Z " fill="#3A3838" transform="translate(710,374)"/>
<path d="M0 0 C0.99 0.33 1.98 0.66 3 1 C1.69791667 2.49739583 0.39583333 3.99479167 -0.90625 5.4921875 C-2.19572458 6.95936421 -2.19572458 6.95936421 -2 9 C-3.32 8.34 -4.64 7.68 -6 7 C-4.02 4.69 -2.04 2.38 0 0 Z " fill="#323232" transform="translate(263,820)"/>
<path d="M0 0 C0.99 0.33 1.98 0.66 3 1 C1.35 2.65 -0.3 4.3 -2 6 C-2.99 5.67 -3.98 5.34 -5 5 C-3.35 3.35 -1.7 1.7 0 0 Z " fill="#2E2F2E" transform="translate(655,428)"/>
</svg>
