<?xml version="1.0" standalone="no"?>
<!DOCTYPE svg PUBLIC "-//W3C//DTD SVG 20010904//EN"
 "http://www.w3.org/TR/2001/REC-SVG-20010904/DTD/svg10.dtd">
<svg version="1.0" xmlns="http://www.w3.org/2000/svg"
 width="1536.000000pt" height="1024.000000pt" viewBox="0 0 1536.000000 1024.000000"
 preserveAspectRatio="xMidYMid meet">

<g transform="translate(0.000000,1024.000000) scale(0.100000,-0.100000)"
fill="#000000" stroke="none">
<path d="M7065 9010 c-1292 -105 -2349 -428 -3161 -965 -719 -477 -1157 -1084
-1236 -1715 -16 -130 -14 -1838 2 -2048 30 -377 227 -835 508 -1176 94 -114
308 -326 434 -430 1270 -1046 3563 -1482 5647 -1071 814 161 1531 441 2121
830 205 135 337 241 499 399 194 190 301 313 402 465 223 332 341 659 369
1021 13 171 13 1870 0 1980 -42 341 -194 687 -450 1020 -95 124 -386 413 -523
519 -734 570 -1823 978 -2987 1121 -379 46 -472 51 -1000 55 -283 2 -564 -1
-625 -5z m907 -484 c126 -60 185 -189 146 -319 -15 -50 -84 -125 -260 -284
-147 -133 -166 -146 -244 -169 -145 -42 -317 32 -375 160 -26 57 -25 157 1
212 27 54 343 358 411 395 89 48 227 50 321 5z m-2121 -368 c106 -49 168 -137
169 -238 0 -80 -33 -140 -126 -232 -184 -179 -521 -479 -568 -505 -47 -26 -60
-28 -156 -28 -122 0 -162 15 -235 91 -100 102 -99 243 3 352 105 112 561 525
605 549 97 50 213 55 308 11z m4225 -382 c55 -25 123 -81 327 -269 336 -309
446 -418 471 -470 62 -122 8 -262 -132 -345 -44 -25 -55 -27 -157 -27 -88 0
-117 4 -143 18 -37 20 -250 210 -552 492 -228 212 -254 249 -254 355 0 80 23
128 89 189 69 63 114 81 215 81 69 0 95 -5 136 -24z m-2206 -526 c552 -42 989
-292 1008 -577 25 -381 -707 -680 -1468 -598 -284 30 -431 69 -640 171 -124
61 -142 73 -221 153 -107 108 -133 166 -127 276 15 224 275 419 698 524 226
56 465 72 750 51z m-3201 -524 c76 -25 170 -119 196 -195 32 -98 4 -183 -89
-269 -96 -87 -97 -87 -571 -87 l-410 0 -55 26 c-147 69 -217 200 -180 334 24
87 138 184 240 206 19 4 211 6 425 5 342 -2 397 -5 444 -20z m5487 -533 c41
-22 288 -237 443 -386 124 -119 153 -198 115 -309 -48 -143 -238 -230 -397
-184 -65 19 -113 55 -292 220 -307 282 -319 297 -320 416 0 64 4 82 27 121 33
56 76 94 143 126 44 21 61 24 145 20 72 -2 105 -8 136 -24z m-4513 -288 c92
-49 648 -563 692 -640 56 -97 41 -195 -41 -284 -74 -80 -132 -105 -245 -106
-128 0 -147 12 -504 338 -348 317 -365 338 -365 448 0 113 60 201 174 256 44
21 63 23 142 21 78 -3 98 -7 147 -33z m3314 -229 c66 -18 111 -45 158 -97 49
-54 65 -96 65 -167 0 -106 -22 -135 -294 -385 -533 -491 -533 -492 -671 -492
-66 1 -91 6 -143 29 -113 52 -177 150 -170 261 5 84 33 125 183 266 98 92 494
454 581 532 37 31 135 67 189 67 28 0 74 -6 102 -14z m3022 -788 c-4 -139 -12
-283 -18 -319 -39 -229 -155 -476 -316 -668 -91 -109 -301 -312 -402 -389
-680 -515 -1689 -866 -2824 -981 -897 -92 -1845 -17 -2675 210 -374 102 -688
220 -1019 384 -785 387 -1238 856 -1356 1403 -17 78 -22 145 -26 350 -3 142
-2 252 3 252 5 0 22 -21 39 -48 103 -162 362 -436 557 -587 390 -301 929 -558
1545 -735 438 -126 847 -203 1373 -261 161 -18 278 -22 677 -26 489 -5 701 2
988 33 1060 115 2035 431 2695 874 293 197 568 469 731 722 13 21 26 38 29 38
3 0 2 -114 -1 -252z"/>
</g>
</svg>
