<?xml version="1.0" encoding="UTF-8"?>
<svg version="1.1" xmlns="http://www.w3.org/2000/svg" width="1024" height="1024">
<path d="M0 0 C3.88462524 0.0367607 7.76829382 0.04101541 11.65307617 0.04052734 C30.88964808 0.09302666 49.74796747 0.86023995 68.55737305 5.16162109 C69.74177979 5.42620117 70.92618652 5.69078125 72.14648438 5.96337891 C137.22042268 20.77067494 200.86363506 57.55226199 241.55737305 111.41162109 C242.49443449 112.62029456 243.43196933 113.8286011 244.36987305 115.03662109 C251.64489678 124.48758308 258.33063759 134.24063992 264.55737305 144.41162109 C265.04737793 145.21196777 265.53738281 146.01231445 266.04223633 146.83691406 C292.71814768 190.88518042 305.80912518 240.99529774 305.74487305 292.28662109 C305.74393646 293.24792938 305.74299988 294.20923767 305.74203491 295.19967651 C305.67785946 325.53632915 301.9157834 354.4343079 292.55737305 383.41162109 C292.28618652 384.26046875 292.015 385.10931641 291.7355957 385.98388672 C283.2039318 412.19426098 270.36934162 437.59395974 254.6394043 460.21240234 C253.42129696 462.29473486 253.42129696 462.29473486 253.5222168 464.36083984 C255.12086841 467.52797984 257.68038237 469.60734914 260.30737305 471.91162109 C261.50028214 472.98431454 262.69298483 474.05723756 263.88549805 475.13037109 C264.4971582 475.67564453 265.10881836 476.22091797 265.73901367 476.78271484 C268.54174262 479.29343014 271.2983199 481.85313442 274.05737305 484.41162109 C275.14045635 485.41189189 276.22379054 486.4118911 277.30737305 487.41162109 C279.47403971 489.41162109 281.64070638 491.41162109 283.80737305 493.41162109 C284.34346191 493.90645996 284.87955078 494.40129883 285.43188477 494.91113281 C286.51689561 495.91270636 287.60185643 496.9143341 288.68676758 497.91601562 C291.36903062 500.39238381 294.05211239 502.86785174 296.73706055 505.34130859 C302.55037346 510.69874523 308.34510625 516.07513984 314.11987305 521.47412109 C319.58751825 526.58524129 325.08509463 531.66127301 330.6081543 536.71240234 C339.13293804 544.51455541 347.59959312 552.3780861 356.04101562 560.27026367 C360.82028264 564.73431946 365.63629906 569.15580078 370.46362305 573.56787109 C374.01714808 576.82526904 377.53679839 580.11869663 381.05737305 583.41162109 C386.54275479 588.54158453 392.05759278 593.6367216 397.6003418 598.70458984 C402.39180604 603.08649988 407.15619716 607.49781565 411.92504883 611.90429688 C413.52932665 613.38572243 415.1349167 614.86571102 416.7409668 616.34521484 C423.17363286 622.2728165 429.5804563 628.22714902 435.97094727 634.20019531 C439.98671857 637.95162169 444.01551136 641.68832978 448.05737305 645.41162109 C452.7414288 649.72649018 457.40473014 654.06290179 462.05737305 658.41162109 C468.33719762 664.28039093 474.64296781 670.12016594 480.96459961 675.94384766 C483.66387268 678.43128323 486.36047196 680.92161443 489.05737305 683.41162109 C490.1406939 684.41163461 491.22402723 685.41163462 492.30737305 686.41162109 C494.47403971 688.41162109 496.64070638 690.41162109 498.80737305 692.41162109 C499.34338135 692.90637939 499.87938965 693.4011377 500.43164062 693.91088867 C501.51749021 694.913249 502.60326468 695.91569071 503.68896484 696.91821289 C506.35819668 699.38276497 509.02861896 701.8459972 511.7019043 704.30615234 C514.9924653 707.33548497 518.27630624 710.37201019 521.55737305 713.41162109 C522.18015137 713.98783203 522.80292969 714.56404297 523.44458008 715.15771484 C527.49485935 718.91040199 531.51827262 722.68956829 535.52124023 726.49267578 C537.5391475 728.3944445 539.58218683 730.2661826 541.62768555 732.13818359 C553.01004044 742.76432407 561.9518206 755.39512983 562.89331055 771.45458984 C563.25430267 788.06617808 558.43922203 801.91929255 547.0144043 814.23974609 C534.07068445 825.68125362 518.86120968 828.67771936 502.05688477 827.67041016 C487.98318458 826.21327769 476.3300295 819.39354576 466.17456055 809.85302734 C464.06737008 807.8873646 461.93266226 805.98660778 459.7565918 804.09912109 C455.56985015 800.45113618 451.52378985 796.66977622 447.49487305 792.84912109 C445.9938265 791.43088184 444.49251962 790.01291807 442.9909668 788.59521484 C441.87310791 787.53923096 441.87310791 787.53923096 440.73266602 786.46191406 C437.51896936 783.43288775 434.28904932 780.42143919 431.05737305 777.41162109 C425.00901679 771.77495832 418.98395672 766.11397142 412.96582031 760.44506836 C408.14778956 755.907073 403.32417954 751.37511491 398.49487305 746.84912109 C397.8380957 746.23359375 397.18131836 745.61806641 396.50463867 744.98388672 C394.52233941 743.12633392 392.53988726 741.26894447 390.55737305 739.41162109 C381.66708781 731.08273522 372.78433078 722.7460324 363.9152832 714.39453125 C357.13495039 708.01112622 350.34148242 701.64180246 343.5456543 695.27490234 C341.53857138 693.39400146 339.53223194 691.51231077 337.52612305 689.63037109 C329.16764358 681.78974515 320.79726598 673.96204742 312.41625977 666.14550781 C309.29591002 663.23498458 306.17670203 660.32323822 303.05737305 657.41162109 C301.80737846 656.24494863 300.55737846 655.07828196 299.30737305 653.91162109 C291.80737305 646.91162109 284.30737305 639.91162109 276.80737305 632.91162109 C275.8793689 632.04549194 275.8793689 632.04549194 274.93261719 631.16186523 C273.68178174 629.99440796 272.43096796 628.82692746 271.18017578 627.65942383 C268.06813483 624.75466335 264.95572653 621.85029857 261.8425293 618.94677734 C253.40564744 611.07715531 244.98352479 603.19195686 236.5690918 595.29833984 C234.57616668 593.42924697 232.58252332 591.56092362 230.58862305 589.69287109 C223.73745322 583.27364302 216.89267964 576.84774017 210.05737305 570.41162109 C207.93376344 568.41282932 205.81005382 566.41414389 203.6862793 564.41552734 C202.25628651 563.06949743 200.82660348 561.72313837 199.3972168 560.37646484 C188.11608395 549.74197892 188.11608395 549.74197892 176.55737305 539.41162109 C170.83552094 540.9788707 166.17310587 543.8451212 161.11987305 546.84912109 C114.26179597 574.06194833 62.45808406 588.60142007 8.31884766 588.59692383 C5.3923473 588.59910435 2.46622875 588.61731221 -0.46020508 588.63623047 C-16.89732777 588.68654642 -32.92601657 587.4231092 -49.06762695 584.22412109 C-50.70248047 583.90157349 -50.70248047 583.90157349 -52.37036133 583.57250977 C-103.36557839 573.16869281 -152.52790149 550.22876828 -191.44262695 515.41162109 C-192.24410156 514.69474121 -192.24410156 514.69474121 -193.06176758 513.96337891 C-203.72671517 504.36745631 -214.26798471 494.46164111 -223.44262695 483.41162109 C-223.88654785 482.88681152 -224.33046875 482.36200195 -224.7878418 481.82128906 C-241.42773873 462.11487378 -255.38238021 440.70099409 -266.44262695 417.41162109 C-266.92747559 416.41001953 -266.92747559 416.41001953 -267.42211914 415.38818359 C-278.55237588 392.2638293 -285.4615315 367.51975536 -290.44262695 342.41162109 C-290.63614746 341.44385742 -290.82966797 340.47609375 -291.02905273 339.47900391 C-293.7492185 325.02861043 -293.71800462 310.4385196 -293.75512695 295.78662109 C-293.75898407 294.84406464 -293.76284119 293.90150818 -293.76681519 292.9303894 C-293.80269408 275.10982597 -293.19248191 257.04295452 -289.25512695 239.59912109 C-289.04154541 238.62031982 -288.82796387 237.64151855 -288.60791016 236.63305664 C-275.52951365 178.27865151 -247.85059302 127.84854234 -205.81762695 85.53662109 C-204.95935303 84.66908203 -204.1010791 83.80154297 -203.21679688 82.90771484 C-150.41412047 30.36153301 -74.2154154 -0.7238694 0 0 Z M-40.44262695 68.41162109 C-41.39588867 68.62592773 -42.34915039 68.84023437 -43.33129883 69.06103516 C-95.6094999 80.99297009 -145.20290948 111.20714617 -177.19995117 154.72460938 C-178.42127657 156.38263658 -179.66640612 158.02038608 -180.9152832 159.65771484 C-205.04101675 191.78554813 -222.45661774 234.08954654 -222.64575195 274.65771484 C-222.65145203 275.62709488 -222.6571521 276.59647491 -222.6630249 277.5952301 C-222.67243081 279.64168218 -222.67899124 281.68814911 -222.68286133 283.73461914 C-222.69250076 286.80887604 -222.72353952 289.88244437 -222.75512695 292.95654297 C-222.84318644 309.03341122 -221.03124236 323.64882758 -216.19262695 339.03662109 C-215.73919922 340.49817627 -215.73919922 340.49817627 -215.27661133 341.98925781 C-212.65690944 350.19141968 -209.41719583 357.77508987 -205.44262695 365.41162109 C-204.89993164 366.50345703 -204.35723633 367.59529297 -203.7980957 368.72021484 C-184.53202272 406.30484903 -149.77467242 434.6664184 -109.94262695 447.97412109 C-66.93162943 461.69688908 -19.47518692 458.98260756 20.90405273 438.43920898 C58.11701839 418.99032478 86.22918922 385.8491352 99.06518555 345.86474609 C100.4099337 341.42055306 101.53351539 336.93961173 102.55737305 332.41162109 C102.72108398 331.70199219 102.88479492 330.99236328 103.0534668 330.26123047 C110.15520216 298.00996122 106.42061842 262.99797822 89.55737305 234.41162109 C86.83710123 230.19017995 83.75253221 226.28213361 80.55737305 222.41162109 C79.94506836 221.63560547 79.33276367 220.85958984 78.7019043 220.06005859 C62.47509849 200.47717568 37.41632119 188.835359 12.55737305 185.41162109 C8.82252652 185.13513606 5.11401385 185.07671451 1.36987305 185.09912109 C0.36883545 185.10476074 -0.63220215 185.11040039 -1.66357422 185.11621094 C-29.5553842 185.56799072 -54.15773457 197.56003626 -74.13012695 216.66162109 C-94.42820721 237.69727694 -104.19016584 263.4588448 -103.7824707 292.51318359 C-103.4131529 302.2625605 -100.12358975 309.57652217 -93.3293457 316.66552734 C-83.5517125 325.71439285 -75.29757558 328.2938921 -62.19262695 327.88037109 C-53.36170399 327.25059053 -46.95492975 323.37866627 -40.94262695 317.03662109 C-31.39369648 305.16979671 -31.07990582 292.14427239 -30.4074707 277.39990234 C-29.71722502 265.87410179 -26.5939961 256.78036009 -18.44262695 248.41162109 C-9.34223791 240.76610665 -1.36089118 237.88490108 10.43237305 237.97412109 C11.36178711 237.95414063 12.29120117 237.93416016 13.2487793 237.91357422 C24.06188609 237.92111474 32.82389968 241.9081395 40.55737305 249.41162109 C53.12760193 263.96923794 53.59898674 281.09114043 52.55737305 299.41162109 C50.07135013 322.7559826 40.26785799 344.29816423 25.55737305 362.41162109 C24.98374023 363.13865234 24.41010742 363.86568359 23.8190918 364.61474609 C6.62889309 385.45632352 -21.41965733 398.13189731 -47.90307617 401.18457031 C-79.83703964 404.03965453 -110.64811383 396.11912656 -135.44262695 375.41162109 C-136.17094727 374.66396484 -136.89926758 373.91630859 -137.6496582 373.14599609 C-139.26645268 371.17986613 -139.26645268 371.17986613 -141.44262695 371.41162109 C-141.67981445 370.84830078 -141.91700195 370.28498047 -142.16137695 369.70458984 C-143.72740458 366.90197333 -145.6807716 365.00387087 -147.94262695 362.72412109 C-170.74323071 337.97953523 -175.76582153 304.79431839 -174.44262695 272.41162109 C-171.47663069 232.30763581 -153.27671048 195.04981898 -125.44262695 166.41162109 C-124.88526855 165.82848145 -124.32791016 165.2453418 -123.75366211 164.64453125 C-112.18432157 152.55243033 -100.04924705 142.71960877 -85.44262695 134.41162109 C-84.80341309 134.04681641 -84.16419922 133.68201172 -83.50561523 133.30615234 C-56.2336311 117.91353717 -27.52885946 110.94950324 3.74487305 111.09912109 C4.55785858 111.10127625 5.37084412 111.1034314 6.20846558 111.10565186 C32.95378456 111.21927866 56.45927926 116.69395015 80.55737305 128.41162109 C81.25926758 128.74500488 81.96116211 129.07838867 82.68432617 129.421875 C105.53941215 140.36753364 126.35690312 157.09801321 141.55737305 177.41162109 C142.44636036 178.56162019 143.33570429 179.71134367 144.2253418 180.86083984 C177.52679726 224.45998783 187.48410399 279.76308122 180.55737305 333.41162109 C171.28742643 394.8345938 138.90501218 448.91941841 89.11572266 485.99438477 C75.02883119 496.2978416 58.99081483 506.37282622 42.55737305 512.41162109 C42.55737305 512.74162109 42.55737305 513.07162109 42.55737305 513.41162109 C50.64848452 512.9556568 58.13106745 511.50649008 65.93237305 509.34912109 C67.63139771 508.8816748 67.63139771 508.8816748 69.36474609 508.40478516 C94.14956541 501.41040301 116.86940522 490.81438197 137.55737305 475.41162109 C138.15066406 474.97382324 138.74395508 474.53602539 139.35522461 474.08496094 C188.63603095 437.4433917 219.77684281 383.33381126 229.1171875 322.7824707 C230.53230494 312.61386804 230.91953518 302.60806874 230.86987305 292.34912109 C230.8677179 291.54213776 230.86556274 290.73515442 230.86334229 289.90371704 C230.59525644 227.05928197 203.71987469 169.22141667 159.48510742 125.15844727 C154.44261319 120.21286803 149.18179684 115.68984821 143.55737305 111.41162109 C142.91703125 110.92193848 142.27668945 110.43225586 141.61694336 109.92773438 C130.77984705 101.69604621 119.66716708 94.61362698 107.55737305 88.41162109 C106.81438965 88.02522461 106.07140625 87.63882813 105.3059082 87.24072266 C61.69669038 64.76252138 7.54470753 57.17581256 -40.44262695 68.41162109 Z " fill="#272626" transform="translate(368.442626953125,83.58837890625)"/>
<path d="M0 0 C0.66 0 1.32 0 2 0 C1.67 3.63 1.34 7.26 1 11 C0.67 11 0.34 11 0 11 C-0.19406478 9.35492782 -0.38007935 7.70890406 -0.5625 6.0625 C-0.66691406 5.14597656 -0.77132812 4.22945313 -0.87890625 3.28515625 C-0.91886719 2.53105469 -0.95882812 1.77695312 -1 1 C-0.67 0.67 -0.34 0.34 0 0 Z " fill="#838283" transform="translate(670,416)"/>
</svg>
