<?xml version="1.0" encoding="UTF-8"?>
<svg version="1.1" xmlns="http://www.w3.org/2000/svg" width="1536" height="1024">
<path d="M0 0 C0.9178125 0.00902344 1.835625 0.01804687 2.78125 0.02734375 C5.02111556 0.05067568 7.26041183 0.08340765 9.5 0.125 C9.5 0.785 9.5 1.445 9.5 2.125 C10.28503906 2.47691406 11.07007813 2.82882813 11.87890625 3.19140625 C24.04482597 8.90864214 29.10230813 14.85903766 34.5 27.125 C34.85126933 27.90271293 35.20253867 28.68042586 35.56445253 29.48170584 C36.55425177 32.27828285 36.74319912 34.32984456 36.73047829 37.28489399 C36.73097699 38.30851734 36.73147569 39.3321407 36.7319895 40.38678294 C36.72227287 41.50448469 36.71255624 42.62218644 36.70254517 43.77375793 C36.70017046 44.9663438 36.69779576 46.15892966 36.6953491 47.38765448 C36.68673386 50.6943308 36.66906816 54.00073514 36.64758825 57.30733812 C36.62661893 60.87440224 36.617309 64.44149899 36.60658264 68.00860596 C36.58640645 74.18766584 36.55884404 80.36665738 36.52626419 86.54566383 C36.47916991 95.47946281 36.44321613 104.4132793 36.40998094 113.34713932 C36.35575651 127.84173529 36.29252293 142.33627741 36.22363281 156.83081055 C36.15673189 170.91087126 36.09406831 184.99094032 36.03710938 199.07104492 C36.03359693 199.93894702 36.03008449 200.80684911 36.02646561 201.70105127 C36.00887087 206.05506256 35.9913595 210.40907417 35.97388959 214.76308596 C35.82885204 250.88378456 35.66919731 287.00440689 35.5 323.125 C36.36033287 323.12462028 37.22066575 323.12424056 38.10706931 323.12384933 C89.14620826 323.10145029 140.18534668 323.08430285 191.22448956 323.07393467 C197.35872547 323.07268403 203.49296137 323.0713897 209.62719727 323.07006836 C211.4589495 323.06967489 211.4589495 323.06967489 213.32770684 323.06927348 C233.07657749 323.06492729 252.82544523 323.05704552 272.57431415 323.0478472 C292.85247825 323.03848143 313.13064081 323.0329382 333.40880698 323.03091151 C345.91211422 323.02954235 358.41541319 323.0252247 370.91871788 323.01708353 C379.50350891 323.01178 388.08829569 323.01020389 396.67308823 323.01149862 C401.6191235 323.01213638 406.56514438 323.0111886 411.51117706 323.00579453 C416.05249994 323.00087838 420.59379893 323.00071443 425.13512298 323.00410111 C426.76532958 323.00451881 428.39553776 323.00329292 430.02574132 323.00011682 C438.58370226 322.98443304 447.12411086 323.11906988 455.67422009 323.50360966 C456.84158413 323.54841115 456.84158413 323.54841115 458.03253128 323.59411773 C472.11720601 324.31395059 482.19832665 331.4080365 491.75 341.375 C504.40678499 356.30744936 505.74618833 374.33190786 504.27294922 393.00244141 C499.74648542 441.81959503 485.15010506 489.67770105 462.53613281 533.12207031 C461.43127732 535.25784657 460.35215439 537.40560149 459.2734375 539.5546875 C444.91080901 567.86057596 426.20780686 594.37725814 404.6953125 617.71875 C403.45880787 619.07406468 402.23117095 620.43802873 401.03588867 621.82983398 C396.1297467 627.54232771 390.89761725 632.87639678 385.5625 638.1875 C384.70720703 639.04666016 383.85191406 639.90582031 382.97070312 640.79101562 C377.97654256 645.77755734 372.88703038 650.56632084 367.5 655.125 C366.86489502 655.66680908 366.22979004 656.20861816 365.57543945 656.7668457 C341.1131178 677.50924663 314.33155759 695.137215 286.0625 710.25 C285.33393799 710.6409082 284.60537598 711.03181641 283.85473633 711.43457031 C278.74500078 714.125 278.74500078 714.125 276.5 714.125 C276.40203125 715.10597656 276.3040625 716.08695313 276.203125 717.09765625 C274.09166961 736.76688326 269.02701111 754.16172323 255.5 769.125 C254.87351562 769.83269531 254.24703125 770.54039062 253.6015625 771.26953125 C241.49406981 784.1924265 225.46052002 789.95988508 208.06856632 790.56186104 C206.72859602 790.60178133 205.38860039 790.64085803 204.04858398 790.67919922 C203.34507903 790.70016151 202.64157408 790.72112381 201.91675079 790.74272132 C179.44982898 791.39196038 156.96932674 791.27119441 134.49536061 791.2593255 C128.08174046 791.25675339 121.66812157 791.25915228 115.25450134 791.26071167 C103.82763815 791.26263231 92.40078371 791.25957418 80.97392189 791.25445233 C70.65619477 791.2499708 60.33847888 791.25077728 50.02075195 791.25537109 C37.94889348 791.26074362 25.87704345 791.2627047 13.80518335 791.25975883 C7.44689727 791.25821012 1.0886189 791.25796379 -5.26966667 791.26129532 C-11.2363874 791.2642051 -17.20308705 791.26214183 -23.16980553 791.25640106 C-25.34406245 791.25509092 -27.51832118 791.25543746 -29.69257736 791.25766373 C-39.61396588 791.26687859 -49.52564232 791.22637215 -59.43751526 790.75363159 C-60.49262579 790.71045294 -60.49262579 790.71045294 -61.56905168 790.66640198 C-77.96201233 789.74504487 -91.09019175 781.30313701 -102.5 770.125 C-103.44166016 769.23748047 -103.44166016 769.23748047 -104.40234375 768.33203125 C-114.00432761 758.46876891 -121.40988324 741.55724812 -121.62890625 727.89453125 C-121.80838644 723.30679249 -122.09218011 719.13435146 -124.5 715.125 C-129.90589639 710.33309644 -136.88287193 707.63137572 -143.37890625 704.63476562 C-148.53137586 702.14236324 -153.38016998 699.18684551 -158.25 696.1875 C-159.20737061 695.60162109 -160.16474121 695.01574219 -161.15112305 694.41210938 C-170.26960253 688.76529815 -178.96680482 682.61647214 -187.5 676.125 C-188.13228516 675.64434082 -188.76457031 675.16368164 -189.41601562 674.66845703 C-206.37714803 661.69686237 -222.13731799 647.54318385 -237.29006958 632.51016235 C-238.70625098 631.10588139 -240.12638008 629.70558509 -241.54663086 628.30541992 C-247.63726725 622.22243989 -253.12604437 615.84244454 -258.5 609.125 C-259.43503076 608.02338503 -260.37636388 606.92703685 -261.328125 605.83984375 C-313.47009681 546.04477608 -356.70504658 453.22733692 -351.5 372.125 C-349.49526125 356.64773725 -342.04674638 343.09638165 -329.875 333.375 C-316.85906331 324.06860527 -304.10163468 323.00386579 -288.62451172 322.91967773 C-287.4818837 322.90977814 -286.33925568 322.89987854 -285.16200256 322.88967896 C-281.41791799 322.85831093 -277.67382077 322.83340502 -273.9296875 322.80859375 C-271.32080777 322.78800285 -268.71193121 322.76700585 -266.10305786 322.74562073 C-259.95874477 322.69593557 -253.81440695 322.65090827 -247.67004597 322.60759836 C-239.9805185 322.5531443 -232.29104234 322.49239444 -224.6015625 322.43164062 C-210.90108129 322.32342202 -197.20055218 322.22464809 -183.5 322.125 C-183.17 304.635 -182.84 287.145 -182.5 269.125 C-186.97175781 269.13547363 -191.44351563 269.14594727 -196.05078125 269.15673828 C-210.82286634 269.18987281 -225.59495289 269.21206952 -240.36706543 269.22862434 C-249.32366838 269.23892901 -258.28023608 269.25297387 -267.23681641 269.27587891 C-275.04500509 269.29583756 -282.85316824 269.30872232 -290.66138172 269.31317699 C-294.79427566 269.31578017 -298.92709655 269.32188193 -303.05996704 269.33646011 C-306.9537796 269.35008315 -310.84748934 269.35421313 -314.74132347 269.35121536 C-316.16669461 269.35176342 -317.59206936 269.35571268 -319.01741982 269.36341095 C-337.8144124 269.45991231 -337.8144124 269.45991231 -345.02734375 262.70703125 C-350.03354734 257.32901413 -350.87145446 251.8227863 -350.77734375 244.72265625 C-350.16986591 239.03289904 -347.6389517 235.31572223 -343.75 231.25 C-337.70013687 227.29432026 -331.07965691 226.81710313 -324.03295898 226.54931641 C-322.81914268 226.49359529 -322.81914268 226.49359529 -321.58080482 226.4367485 C-318.90702817 226.31659008 -316.2329194 226.20875274 -313.55859375 226.1015625 C-311.64935093 226.01941496 -309.74012577 225.93685577 -307.83091736 225.85391235 C-286.45049594 224.94233509 -265.06139403 224.25903473 -243.67205811 223.59698486 C-239.45658467 223.4655073 -235.24123859 223.33016466 -231.02588749 223.19482994 C-226.90706482 223.06294406 -222.78818291 222.93299364 -218.6692791 222.80366898 C-216.7337942 222.74275844 -214.79832429 222.6813695 -212.86287117 222.61945724 C-210.17824865 222.53395904 -207.49355953 222.45097199 -204.80883789 222.36865234 C-204.04056671 222.34374222 -203.27229553 222.31883209 -202.48074341 222.29316711 C-196.14514125 222.10315341 -189.84832602 222.125 -183.5 222.125 C-183.5 207.275 -183.5 192.425 -183.5 177.125 C-187.08230469 177.65867187 -190.66460937 178.19234375 -194.35546875 178.7421875 C-224.35444322 183.18489482 -254.38061002 187.3998931 -284.44842911 191.35092926 C-286.98822776 191.68594716 -289.52754033 192.0244416 -292.06674194 192.36395264 C-296.10814408 192.90382867 -300.15068817 193.43420045 -304.19426537 193.95752907 C-305.67909062 194.15100952 -307.1635416 194.34739061 -308.64754677 194.54706383 C-336.78610063 198.32291434 -336.78610063 198.32291434 -347.71875 190.546875 C-353.91810944 185.56043371 -356.3109646 180.62605583 -357.375 172.75 C-357.90602108 164.84970678 -355.50174883 158.27000571 -350.5 152.125 C-337.48418244 142.4586721 -317.46437277 141.6397487 -301.89159012 138.66049576 C-299.00025283 138.10628994 -296.10981146 137.54748423 -293.21932697 136.98885059 C-276.00975809 133.66435976 -258.78536682 130.42256316 -241.55078125 127.23046875 C-239.81571996 126.90871692 -238.08066337 126.58693972 -236.34561157 126.26513672 C-228.75136517 124.85737145 -221.15654139 123.45314275 -213.55864429 122.06519985 C-210.42321801 121.49137134 -207.28867881 120.91280141 -204.15431786 120.3331852 C-202.69425821 120.06438365 -201.23379501 119.79776375 -199.77291298 119.53346825 C-197.77281302 119.17146975 -195.77418047 118.80139142 -193.77563477 118.4309082 C-192.09353661 118.12332329 -192.09353661 118.12332329 -190.37745667 117.80952454 C-187.79347622 117.19481571 -185.79443522 116.43561122 -183.5 115.125 C-183.49635437 114.57313522 -183.49270874 114.02127045 -183.48895264 113.4526825 C-183.44683742 107.66001677 -183.37729334 101.86812215 -183.29248047 96.07592773 C-183.26441754 93.92008207 -183.24313072 91.76413632 -183.22900391 89.6081543 C-183.20737006 86.49215999 -183.16061643 83.37735066 -183.109375 80.26171875 C-183.10814636 79.31229904 -183.10691772 78.36287933 -183.10565186 77.38468933 C-182.85755202 65.80768947 -178.76721871 56.24992579 -170.5 48.125 C-161.20272308 40.89378461 -151.09488794 38.97713515 -139.5 40.125 C-128.93225468 42.3365457 -119.98841802 47.61772743 -113.94303894 56.71723938 C-106.60293317 68.96446094 -106.7637439 80.62047551 -106.79296875 94.48828125 C-106.77966188 96.74444871 -106.76423581 99.0006045 -106.74687195 101.25674438 C-106.70619616 107.37417977 -106.69641044 113.49131259 -106.69271088 119.60886765 C-106.68394704 126.04799603 -106.64784558 132.48697918 -106.61572266 138.92602539 C-106.55912394 151.31350355 -106.5314977 163.70087476 -106.51688004 176.0884676 C-106.51518526 177.52426975 -106.51348516 178.96007189 -106.51177979 180.39587402 C-106.51093329 181.11081187 -106.51008679 181.82574973 -106.50921464 182.56235236 C-106.49988531 189.97985433 -106.48219951 197.39733166 -106.46402013 204.81481636 C-106.4207595 222.51661518 -106.39250895 240.21840119 -106.37696886 257.92024565 C-106.37499515 260.06777313 -106.37273901 262.21530017 -106.37041855 264.3628273 C-106.36188606 272.53653812 -106.35930614 280.71020741 -106.36536598 288.88392258 C-106.36656854 291.3718094 -106.36612246 293.85969763 -106.36392784 296.34758377 C-106.36137889 299.74859147 -106.36512057 303.1495342 -106.37060547 306.55053711 C-106.36756299 308.03819061 -106.36756299 308.03819061 -106.36445904 309.55589771 C-106.3787596 314.19418855 -106.54051734 318.56256144 -107.5 323.125 C-106.78730957 322.96266876 -106.07461914 322.80033752 -105.34033203 322.63308716 C-102.50872182 322.12656019 -99.92834303 321.99805559 -97.0546875 321.99560547 C-95.99008301 321.99245331 -94.92547852 321.98930115 -93.82861328 321.98605347 C-92.11907471 321.98908981 -92.11907471 321.98908981 -90.375 321.9921875 C-89.19534668 321.99123077 -88.01569336 321.99027405 -86.80029297 321.98928833 C-84.30891873 321.98860855 -81.8175427 321.99044875 -79.32617188 321.99462891 C-75.51428242 321.99997995 -71.70251079 321.99467703 -67.890625 321.98828125 C-65.46874974 321.98894207 -63.04687455 321.9902233 -60.625 321.9921875 C-59.48530762 321.99016327 -58.34561523 321.98813904 -57.17138672 321.98605347 C-56.10678223 321.98920563 -55.04217773 321.99235779 -53.9453125 321.99560547 C-53.01219238 321.99640106 -52.07907227 321.99719666 -51.11767578 321.99801636 C-48.5 322.125 -48.5 322.125 -43.5 323.125 C-43.5 225.445 -43.5 127.765 -43.5 27.125 C-42.84 27.125 -42.18 27.125 -41.5 27.125 C-41.38785156 26.39023438 -41.27570313 25.65546875 -41.16015625 24.8984375 C-39.11165888 16.29232431 -31.78145658 9.41306635 -24.4921875 4.875 C-16.51259241 0.61921595 -8.89460993 -0.16806676 0 0 Z " fill="#222223" transform="translate(691.5,119.875)"/>
<path d="M0 0 C3.84582585 3.17301398 6.96141862 6.7235959 10.05859375 10.6171875 C10.71859375 11.2771875 11.37859375 11.9371875 12.05859375 12.6171875 C17.1438002 23.51140717 17.85423748 35.01146402 14.12109375 46.4296875 C12.12023367 51.74379976 10.09983123 54.57595002 6.05859375 58.6171875 C5.39859375 59.6071875 4.73859375 60.5971875 4.05859375 61.6171875 C1.73828125 63.1171875 1.73828125 63.1171875 -1.06640625 64.6171875 C-1.97648437 65.1121875 -2.8865625 65.6071875 -3.82421875 66.1171875 C-10.89154348 69.51800541 -17.53221439 71.28575244 -25.234375 72.5 C-26.27581161 72.67078064 -27.31724823 72.84156128 -28.39024353 73.01751709 C-31.96842595 73.6012349 -35.5485515 74.17195429 -39.12890625 74.7421875 C-41.10864523 75.06166747 -43.08838228 75.38115977 -45.06803131 75.70119667 C-55.35546055 77.36320421 -65.64812017 78.99191497 -75.94140625 80.6171875 C-76.85654747 80.76177399 -77.77168869 80.90636047 -78.71456146 81.05532837 C-125.64412494 88.46896194 -172.59517764 95.74378706 -219.5625 102.9140625 C-220.65510793 103.08087296 -220.65510793 103.08087296 -221.76978874 103.25105333 C-236.83449813 105.55085003 -251.89973599 107.84715372 -266.96604538 110.136446 C-272.29196286 110.94573301 -277.61772688 111.75602774 -282.94346619 112.56648636 C-285.5116439 112.95716933 -288.07987044 113.34753148 -290.64814758 113.73756027 C-303.5172761 115.69265598 -316.38130465 117.67111596 -329.22998047 119.75683594 C-330.78021424 120.00766591 -330.78021424 120.00766591 -332.36176586 120.26356316 C-337.12149764 121.03450875 -341.8797961 121.812722 -346.63587952 122.60586548 C-348.28968666 122.87597975 -349.94352866 123.14588071 -351.59741211 123.41552734 C-352.67839959 123.60049334 -352.67839959 123.60049334 -353.7812252 123.78919601 C-359.01613981 124.63256274 -363.48163712 124.6171875 -368.94140625 124.6171875 C-369.27140625 103.1671875 -369.60140625 81.7171875 -369.94140625 59.6171875 C-363.46257813 58.33585937 -356.98375 57.05453125 -350.30859375 55.734375 C-344.94793021 54.67377376 -339.58729591 53.61302513 -334.22668171 52.55217457 C-328.4517469 51.40935666 -322.67677378 50.2667333 -316.90170288 49.12460327 C-283.20861059 42.46191084 -283.20861059 42.46191084 -249.53183746 35.71735382 C-247.04049245 35.215193 -244.54903926 34.71357229 -242.05755615 34.21209717 C-235.27108387 32.84575359 -228.48501339 31.47762254 -221.70125866 30.09784222 C-219.64046631 29.67941468 -217.57925299 29.26313951 -215.51783752 28.84779358 C-213.06696817 28.35382361 -210.61680534 27.85632627 -208.16758728 27.35423279 C-201.76982835 26.07045102 -195.44957091 25.11238821 -188.94140625 24.6171875 C-189.27140625 23.6271875 -189.60140625 22.6371875 -189.94140625 21.6171875 C-189.33999313 21.65271729 -188.73858002 21.68824707 -188.11894226 21.72485352 C-179.25776708 22.00596065 -170.95867788 20.32078499 -162.3359375 18.5546875 C-160.76000467 18.23988605 -159.18388503 17.92601849 -157.60758972 17.61303711 C-153.49421969 16.79373732 -149.38348196 15.96192113 -145.27319336 15.12731934 C-141.06452759 14.27510428 -136.85345417 13.43496263 -132.64257812 12.59375 C-124.40647381 10.94658875 -116.17311544 9.28617412 -107.94140625 7.6171875 C-107.94140625 6.9571875 -107.94140625 6.2971875 -107.94140625 5.6171875 C-107.40080566 5.65199219 -106.86020508 5.68679687 -106.30322266 5.72265625 C-98.07623165 6.00559064 -90.31257536 4.31720538 -82.31640625 2.6171875 C-80.91685341 2.32722221 -79.51711459 2.03815302 -78.1171875 1.75 C-74.72305646 1.04936885 -71.33159444 0.33668558 -67.94140625 -0.3828125 C-67.94140625 -1.0428125 -67.94140625 -1.7028125 -67.94140625 -2.3828125 C-66.74386719 -2.33125 -65.54632812 -2.2796875 -64.3125 -2.2265625 C-56.52296807 -2.2265625 -48.94457226 -4.10684314 -41.33398438 -5.60546875 C-27.09376405 -8.30394039 -12.37432791 -8.81390761 0 0 Z M-187.94140625 22.6171875 C-183.94140625 23.6171875 -183.94140625 23.6171875 -183.94140625 23.6171875 Z " fill="#222223" transform="translate(1163.94140625,106.3828125)"/>
<path d="M0 0 C1.78425897 -0.01173311 3.56847754 -0.03250258 5.35253906 -0.06152344 C19.82939217 -0.2942034 30.63284507 0.37248162 41.53442383 10.92797852 C49.39685918 19.52840419 51.12319447 28.09237643 50.95239258 39.62719727 C50.44188989 47.00199757 48.13200763 52.38380428 43.69848633 58.29516602 C43.14161133 59.12016602 42.58473633 59.94516602 42.01098633 60.79516602 C33.70681622 69.77264722 23.31699155 72.90835085 11.4616369 73.38512254 C9.11957948 73.42277226 6.77965002 73.42857724 4.43730164 73.42214966 C3.10295782 73.42448964 3.10295782 73.42448964 1.74165756 73.4268769 C-1.22107361 73.43084385 -4.18375288 73.42771276 -7.14648438 73.42456055 C-9.2846937 73.42591753 -11.4229028 73.42769913 -13.56111145 73.42987061 C-19.39050117 73.434439 -25.2198732 73.43265003 -31.04926324 73.42949152 C-37.27569639 73.4269302 -43.50212818 73.42931898 -49.7285614 73.43087769 C-60.97557396 73.43281981 -72.22257949 73.42970586 -83.46959039 73.42461835 C-93.38467869 73.42026763 -103.29975476 73.42091823 -113.21484375 73.42553711 C-188.25077477 73.45967724 -263.26993831 73.06135533 -338.30151367 72.29516602 C-338.30151367 52.49516602 -338.30151367 32.69516602 -338.30151367 12.29516602 C-325.92652371 11.17016693 -325.92652371 11.17016693 -321.61651516 11.01873779 C-320.62833024 10.98252949 -319.64014533 10.94632118 -318.62201542 10.90901566 C-317.57454437 10.87370113 -316.52707332 10.83838661 -315.44786072 10.80200195 C-314.30524499 10.76101757 -313.16262926 10.72003319 -311.98538882 10.67780685 C-308.1832266 10.5421611 -304.38092749 10.41085147 -300.57861328 10.27954102 C-297.84086495 10.1830989 -295.10314966 10.08573261 -292.36543274 9.98840332 C-286.47966683 9.77963463 -280.59382664 9.57307929 -274.70792961 9.36804199 C-266.16976959 9.07060066 -257.63173532 8.76966856 -249.09372718 8.46790266 C-235.20140172 7.97698075 -221.30898415 7.48871788 -207.41650391 7.00219727 C-193.99165672 6.53204647 -180.56684623 6.0608717 -167.14208984 5.58813477 C-165.90497638 5.54457202 -165.90497638 5.54457202 -164.64287072 5.50012922 C-156.4166436 5.21043759 -148.19042212 4.92058624 -139.96420119 4.63071895 C-136.74591189 4.51731794 -133.52762228 4.4039253 -130.30933248 4.29053831 C-128.71891845 4.23450458 -127.12850451 4.17846828 -125.53809065 4.12242937 C-115.49834315 3.76869524 -105.45856764 3.41577083 -95.41875827 3.063797 C-90.32517261 2.88522472 -85.23159673 2.70637406 -80.13802319 2.52745628 C-76.78291741 2.409625 -73.42780491 2.29199401 -70.07268143 2.17466736 C-56.07478282 1.68513397 -42.07763117 1.18504858 -28.08254236 0.61994553 C-18.72299165 0.24959 -9.36673831 0.04270682 0 0 Z " fill="#222223" transform="translate(1133.301513671875,305.704833984375)"/>
<path d="M0 0 C1.57104492 0.07250977 1.57104492 0.07250977 3.17382812 0.14648438 C4.22634766 0.20255859 5.27886719 0.25863281 6.36328125 0.31640625 C8.00586914 0.3947168 8.00586914 0.3947168 9.68164062 0.47460938 C12.34676288 0.60262835 15.01134207 0.7374912 17.67578125 0.87890625 C17.67578125 1.20890625 17.67578125 1.53890625 17.67578125 1.87890625 C1.34078125 2.37390625 1.34078125 2.37390625 -15.32421875 2.87890625 C-15.32421875 21.35890625 -15.32421875 39.83890625 -15.32421875 58.87890625 C-6.91634888 58.87213867 -6.91634888 58.87213867 1.66137695 58.86523438 C31.88103603 58.85754179 62.10043963 58.9716196 92.31988565 59.07244959 C100.88331627 59.1009937 109.44674949 59.12871769 118.01018289 59.15640944 C133.2711947 59.20577993 148.53220442 59.2557628 163.79321289 59.30615234 C178.5835764 59.35498653 193.37394086 59.40351889 208.16430664 59.45166016 C209.08196516 59.45464715 209.99962367 59.45763415 210.94509002 59.46071166 C215.55049888 59.47570054 220.15590776 59.49068364 224.76131666 59.50566387 C262.73280781 59.62918298 300.70429561 59.75370494 338.67578125 59.87890625 C334.49342095 62.21943454 330.71023366 62.15532405 326.01586914 62.12614441 C324.68793351 62.12976603 324.68793351 62.12976603 323.33317089 62.13346082 C320.35485215 62.139111 317.37674674 62.13042115 314.3984375 62.12182617 C312.26096539 62.12289959 310.12349357 62.12483915 307.98602295 62.12757874 C302.13565416 62.13245344 296.28536105 62.12471321 290.43500137 62.11462569 C284.19519403 62.10576289 277.95538853 62.10760504 271.71557617 62.10798645 C261.11570867 62.10704554 250.51587215 62.09840565 239.91601562 62.0847168 C229.28970835 62.07100255 218.66342796 62.06368141 208.03710938 62.06420898 C132.91029549 62.06762847 57.7983218 61.63855864 -17.32421875 60.87890625 C-17.32421875 41.07890625 -17.32421875 21.27890625 -17.32421875 0.87890625 C-4.94921875 -0.24609375 -4.94921875 -0.24609375 0 0 Z " fill="#171718" transform="translate(812.32421875,317.12109375)"/>
<path d="M0 0 C1.485 0.99 1.485 0.99 3 2 C3.36618346 4.11429751 3.36618346 4.11429751 3.35352612 6.7907505 C3.35601423 7.80872089 3.35850235 8.82669128 3.36106586 9.87550926 C3.34843802 11.00162935 3.33581018 12.12774944 3.32279968 13.28799438 C3.3212941 14.47513535 3.31978851 15.66227631 3.3182373 16.88539124 C3.31098034 20.19759084 3.29011727 23.50921514 3.26371942 26.82128552 C3.23819223 30.4412911 3.23010054 34.06134225 3.21983814 37.68141747 C3.19726805 44.71540336 3.15918366 51.74922096 3.11574759 58.78310557 C3.06619253 66.91551118 3.03581784 75.04791316 3.00549316 83.18041992 C2.91587168 104.66202118 2.80007305 126.14350676 2.6875 147.625 C2.460625 195.59875 2.23375 243.5725 2 293 C137.3 293 272.6 293 412 293 C412 293.33 412 293.66 412 294 C276.37 294 140.74 294 1 294 C0.67 196.98 0.34 99.96 0 0 Z " fill="#000000" transform="translate(725,150)"/>
<path d="M0 0 C1.57104492 0.07250977 1.57104492 0.07250977 3.17382812 0.14648438 C4.22634766 0.20255859 5.27886719 0.25863281 6.36328125 0.31640625 C8.00586914 0.3947168 8.00586914 0.3947168 9.68164062 0.47460938 C12.34676288 0.60262835 15.01134207 0.7374912 17.67578125 0.87890625 C17.67578125 1.20890625 17.67578125 1.53890625 17.67578125 1.87890625 C1.34078125 2.37390625 1.34078125 2.37390625 -15.32421875 2.87890625 C-15.32421875 21.35890625 -15.32421875 39.83890625 -15.32421875 58.87890625 C-2.78421875 58.87890625 9.75578125 58.87890625 22.67578125 58.87890625 C18.8394742 61.43644429 15.73092844 61.13222265 11.2890625 61.07421875 C10.56473022 61.07220459 9.84039795 61.07019043 9.09411621 61.06811523 C6.39210667 61.05766259 3.69018751 61.02973994 0.98828125 61.00390625 C-5.05484375 60.96265625 -11.09796875 60.92140625 -17.32421875 60.87890625 C-17.32421875 41.07890625 -17.32421875 21.27890625 -17.32421875 0.87890625 C-4.94921875 -0.24609375 -4.94921875 -0.24609375 0 0 Z " fill="#0B0B0C" transform="translate(812.32421875,317.12109375)"/>
<path d="M0 0 C1.485 0.99 1.485 0.99 3 2 C3.28232652 4.52880702 3.36705695 6.81042383 3.32279968 9.3397522 C3.3212794 10.10508534 3.31975913 10.87041848 3.31819278 11.65894353 C3.30938528 14.23727333 3.27898402 16.81490489 3.2487793 19.39306641 C3.23807691 21.23569546 3.22869849 23.07833261 3.22055054 24.92097473 C3.1946024 29.93531979 3.15004398 34.94935009 3.10225272 39.96352816 C3.05547929 45.19919906 3.02566997 50.4349652 2.99409485 55.67074585 C2.93167548 65.59080392 2.85390319 75.51068043 2.77067453 85.43058336 C2.67668394 96.72175237 2.59971797 108.01301708 2.52421319 119.30432248 C2.3684778 142.53637182 2.19126129 165.7682179 2 189 C1.67 189 1.34 189 1 189 C0.67 126.63 0.34 64.26 0 0 Z " fill="#010302" transform="translate(725,150)"/>
<path d="M0 0 C0.33 0 0.66 0 1 0 C1 15.84 1 31.68 1 48 C-3.00498243 48.66749707 -6.1480521 49.12394695 -10.08740234 49.11352539 C-11.04794525 49.11344986 -12.00848816 49.11337433 -12.99813843 49.11329651 C-14.01711212 49.10813522 -15.03608582 49.10297394 -16.0859375 49.09765625 C-17.14285797 49.0962413 -18.19977844 49.09482635 -19.28872681 49.09336853 C-22.65084716 49.0877894 -26.01289991 49.07524069 -29.375 49.0625 C-31.66015529 49.05748231 -33.94531162 49.05291987 -36.23046875 49.04882812 C-41.8203354 49.03782679 -47.41016287 49.02110944 -53 49 C-53 48.67 -53 48.34 -53 48 C-46.55161031 47.19716548 -40.20919005 46.80498306 -33.71484375 46.68359375 C-32.77314835 46.66281265 -31.83145294 46.64203156 -30.86122131 46.62062073 C-27.88671355 46.55583222 -24.9121262 46.49657299 -21.9375 46.4375 C-19.90689319 46.39424735 -17.87629409 46.35063104 -15.84570312 46.30664062 C-10.89721459 46.20022457 -5.94864694 46.09876334 -1 46 C-1.00523682 44.99735107 -1.01047363 43.99470215 -1.01586914 42.96166992 C-1.03416301 39.19133419 -1.04551984 35.42100226 -1.05493164 31.65063477 C-1.05991672 30.02823219 -1.0667072 28.405834 -1.07543945 26.78344727 C-1.1225263 17.80093881 -1.09493092 8.93350061 0 0 Z " fill="#191919" transform="translate(509,296)"/>
<path d="M0 0 C0 0.33 0 0.66 0 1 C-9.20004486 1.88191444 -18.39013127 2.30392156 -27.625 2.5625 C-28.34524353 2.58367889 -29.06548706 2.60485779 -29.80755615 2.62667847 C-46.53773084 3.1110828 -63.26447963 3.10287581 -80 3 C-80 2.67 -80 2.34 -80 2 C-74.05795076 0.77540604 -68.0939672 0.65633467 -62.05078125 0.4296875 C-60.88355026 0.38433868 -59.71631927 0.33898987 -58.51371765 0.29226685 C-56.04006697 0.19780434 -53.56633388 0.10547905 -51.0925293 0.01513672 C-47.37052084 -0.122849 -43.64920081 -0.2739654 -39.92773438 -0.42578125 C-26.54425749 -0.93981965 -13.35687438 -1.05435434 0 0 Z " fill="#131414" transform="translate(1052,310)"/>
<path d="M0 0 C0.66 0 1.32 0 2 0 C2 20.46 2 40.92 2 62 C4.31 62 6.62 62 9 62 C9 62.66 9 63.32 9 64 C6.03 64 3.06 64 0 64 C0 42.88 0 21.76 0 0 Z " fill="#0B0B0B" transform="translate(795,167)"/>
<path d="M0 0 C0.66 0 1.32 0 2 0 C6 4.47058824 6 4.47058824 6 7 C6.66 7 7.32 7 8 7 C9.34751703 8.52826998 10.62503715 10.11840355 11.87109375 11.73046875 C16.72426465 17.79135012 21.98443692 23.28996049 27.4934082 28.75415039 C29.07157924 30.32151708 30.63865814 31.89941406 32.20507812 33.47851562 C37.08504527 38.36270461 41.92128312 43.02533567 47.66967773 46.90307617 C48.10868408 47.26506104 48.54769043 47.6270459 49 48 C49 48.66 49 49.32 49 50 C49.61875 50.2475 50.2375 50.495 50.875 50.75 C53.37480203 52.22047178 53.83316022 53.41403076 55 56 C49.82366462 52.24350713 44.95844738 48.3317974 40.3125 43.9375 C39.69165527 43.35315186 39.07081055 42.76880371 38.43115234 42.16674805 C32.58740531 36.62560591 26.84396878 30.98200633 21.125 25.3125 C20.25786377 24.45841553 19.39072754 23.60433105 18.49731445 22.72436523 C3.4258737 7.67311009 3.4258737 7.67311009 0 0 Z " fill="#0D0D0D" transform="translate(431,725)"/>
<path d="M0 0 C1.485 0.99 1.485 0.99 3 2 C3.31054688 4.93945312 3.31054688 4.93945312 3.21875 8.78125 C3.20614136 9.48245972 3.19353271 10.18366943 3.18054199 10.90612793 C3.13447849 13.27127708 3.06682698 15.63535312 3 18 C2.96339641 19.71871979 2.9282769 21.43747173 2.89453125 23.15625 C2.78290061 28.60472231 2.64278133 34.05226951 2.5 39.5 C2.4516382 41.40233906 2.40346004 43.3046828 2.35546875 45.20703125 C2.23908908 49.804744 2.1202492 54.4023869 2 59 C1.67 59 1.34 59 1 59 C0.67 39.53 0.34 20.06 0 0 Z " fill="#0F1111" transform="translate(725,150)"/>
<path d="M0 0 C0 0.33 0 0.66 0 1 C-15.33244094 2.13573637 -30.63201049 2.10674496 -46 2 C-46.33 1.34 -46.66 0.68 -47 0 C-31.26057598 -0.74691553 -15.71975424 -1.25835471 0 0 Z " fill="#141314" transform="translate(884,316)"/>
<path d="M0 0 C0.99 0.33 1.98 0.66 3 1 C2.21625 1.721875 1.4325 2.44375 0.625 3.1875 C-3.82644348 7.95690373 -4.45339546 11.99821732 -4.3203125 18.3671875 C-3.56556571 24.57083795 -0.857706 30.0097415 4 34 C1 34 1 34 -0.53515625 32.6796875 C-5.67831032 26.60261031 -7.48098513 21.53024154 -7.32421875 13.53515625 C-6.61814596 8.01417744 -4.01203715 3.75912936 0 0 Z " fill="#0C0C0C" transform="translate(348,351)"/>
<path d="M0 0 C8.62747345 1.55449972 16.03489344 10.24454055 21 17 C27.45254705 27.8001054 27.45254705 27.8001054 27 34 C24.61512963 31.61512963 24.03896268 29.65816447 22.875 26.5 C19.18596253 17.47754473 13.76138436 10.79036869 5.765625 5.25 C3.60070902 3.71731612 1.79631614 1.94600915 0 0 Z " fill="#0E0E0E" transform="translate(1166,449)"/>
<path d="M0 0 C4.25901193 3.7202825 6.88686023 8.35676092 9.8125 13.125 C14.02316535 19.89820375 18.29545096 26.55609304 23 33 C22.01 33 21.02 33 20 33 C18.46292411 31.09477596 17.15345091 29.25165102 15.83984375 27.19921875 C15.44930313 26.60704056 15.05876251 26.01486237 14.65638733 25.40473938 C13.40688513 23.50525679 12.1721188 21.59668206 10.9375 19.6875 C10.1018679 18.41148251 9.26529046 17.13608357 8.42773438 15.86132812 C6.88984502 13.51770271 5.35740083 11.17072623 3.83178711 8.8190918 C2.56637532 6.87164279 1.28826952 4.93240428 0 3 C0 2.01 0 1.02 0 0 Z " fill="#111111" transform="translate(394,672)"/>
<path d="M0 0 C0 0.33 0 0.66 0 1 C-8.9119526 1.84182213 -17.80433167 2.27769532 -26.75 2.5625 C-28.03132813 2.60568359 -29.31265625 2.64886719 -30.6328125 2.69335938 C-33.75513066 2.79821334 -36.87751121 2.90038018 -40 3 C-39.67 2.34 -39.34 1.68 -39 1 C-26.34492505 -1.88489551 -12.82229805 -1.12173536 0 0 Z " fill="#0B0A0B" transform="translate(392,347)"/>
<path d="M0 0 C1.12623872 3.39921866 1.02783093 3.93234594 -0.44140625 7.50390625 C-1.13583991 8.86328025 -1.84363185 10.21588783 -2.5625 11.5625 C-2.92730469 12.26761719 -3.29210938 12.97273437 -3.66796875 13.69921875 C-4.76425582 15.80746311 -5.87818711 17.90524279 -7 20 C-7.61746094 21.15371094 -8.23492188 22.30742188 -8.87109375 23.49609375 C-10.2322568 26.00624814 -11.60611643 28.50790514 -13 31 C-13.66 31 -14.32 31 -15 31 C-13.34640227 26.61584601 -11.30039805 22.48695464 -9.1875 18.3125 C-8.83365234 17.60931641 -8.47980469 16.90613281 -8.11523438 16.18164062 C-7.40748957 14.77517508 -6.69900849 13.36907976 -5.98974609 11.96337891 C-4.65327251 9.31218982 -3.32625608 6.65631232 -2 4 C-1.33333333 2.66666667 -0.66666667 1.33333333 0 0 Z " fill="#0F0F10" transform="translate(1159,637)"/>
<path d="M0 0 C-2.24577907 2.24577907 -2.96842225 2.3677281 -6 2.8515625 C-7.20112427 3.04528442 -7.20112427 3.04528442 -8.42651367 3.24291992 C-9.27576416 3.36900635 -10.12501465 3.49509277 -11 3.625 C-11.85762939 3.75688721 -12.71525879 3.88877441 -13.59887695 4.0246582 C-19.45883395 4.88352637 -25.0719607 5.29154292 -31 5 C-28.23469503 3.48959821 -25.84189297 2.64284679 -22.734375 2.1484375 C-21.52201172 1.95507812 -21.52201172 1.95507812 -20.28515625 1.7578125 C-19.44855469 1.63148438 -18.61195312 1.50515625 -17.75 1.375 C-16.92886719 1.2409375 -16.10773438 1.106875 -15.26171875 0.96875 C-10.1113213 0.16884675 -5.21084484 -0.1320721 0 0 Z " fill="#0C0C0D" transform="translate(1140,177)"/>
<path d="M0 0 C3.41750848 1.5916056 6.44427653 3.57408356 9.5625 5.6875 C15.31433765 9.55743259 21.13448031 13.30518445 27 17 C26.01 17.33 25.02 17.66 24 18 C21.68972836 16.75023017 19.60003001 15.47087881 17.4375 14 C16.8192334 13.58935303 16.2009668 13.17870605 15.56396484 12.75561523 C13.70232447 11.51379953 11.85115166 10.25737655 10 9 C8.44345703 7.96552734 8.44345703 7.96552734 6.85546875 6.91015625 C1.7483079 3.45423768 1.7483079 3.45423768 0 2 C0 1.34 0 0.68 0 0 Z " fill="#111111" transform="translate(508,797)"/>
<path d="M0 0 C4.62 0 9.24 0 14 0 C10 3 10 3 7 3 C7 3.66 7 4.32 7 5 C6.30132813 4.98839844 5.60265625 4.97679688 4.8828125 4.96484375 C3.97273438 4.95582031 3.06265625 4.94679688 2.125 4.9375 C1.22007813 4.92589844 0.31515625 4.91429688 -0.6171875 4.90234375 C-3.0168585 4.83750743 -3.0168585 4.83750743 -5 6 C-6.67654729 5.72057545 -8.34608154 5.39171753 -10 5 C-6.73454239 3.11608215 -3.71888239 2.50712033 0 2 C0 1.34 0 0.68 0 0 Z " fill="#2A2929" transform="translate(1056,112)"/>
<path d="M0 0 C0.680625 0.680625 1.36125 1.36125 2.0625 2.0625 C2.5265625 2.52140625 2.990625 2.9803125 3.46875 3.453125 C4.48989892 4.48469381 5.49028857 5.53723109 6.46875 6.609375 C11.61399709 12.10772729 17.65962212 15.99171513 24 20 C23.01 20.33 22.02 20.66 21 21 C14.03346446 17.09417188 2.84727313 9.63904428 0.2578125 1.734375 C0.17273438 1.16203125 0.08765625 0.5896875 0 0 Z " fill="#121212" transform="translate(584,882)"/>
<path d="M0 0 C0.99 0.33 1.98 0.66 3 1 C4.95160305 6.07287548 5.22168966 10.47453437 5.125 15.9375 C5.11146484 16.96327148 5.11146484 16.96327148 5.09765625 18.00976562 C5.07438958 19.67333287 5.03853167 21.33671631 5 23 C4.34 23 3.68 23 3 23 C2.92652344 21.515 2.92652344 21.515 2.8515625 20 C2.47596893 13.14476671 2.02153511 6.60368135 0 0 Z " fill="#151514" transform="translate(1175,123)"/>
<path d="M0 0 C7.81886035 0.33271746 13.6928167 4.39050879 19 10 C18.67 10.99 18.34 11.98 18 13 C17.45472656 12.46890625 16.90945313 11.9378125 16.34765625 11.390625 C11.24933992 6.61476629 6.58282675 3.3654602 0 1 C0 0.67 0 0.34 0 0 Z " fill="#181818" transform="translate(699,123)"/>
<path d="M0 0 C-0.33 0.66 -0.66 1.32 -1 2 C-4.20111016 2.90667042 -7.52340875 3.27000753 -10.8125 3.75 C-11.72837891 3.90082031 -12.64425781 4.05164063 -13.58789062 4.20703125 C-14.47283203 4.33980469 -15.35777344 4.47257813 -16.26953125 4.609375 C-17.08010986 4.73280273 -17.89068848 4.85623047 -18.72583008 4.98339844 C-21.35290965 5.00257626 -22.77151724 4.33945189 -25 3 C-22.3347536 2.49118023 -19.66821581 1.99279859 -17 1.5 C-15.88431641 1.28537109 -15.88431641 1.28537109 -14.74609375 1.06640625 C-9.74779985 0.15367432 -5.08079684 -0.13856719 0 0 Z " fill="#101010" transform="translate(862,220)"/>
<path d="M0 0 C0 0.66 0 1.32 0 2 C-6.47007125 6.85547842 -14.55335549 12.76787677 -23 12 C-20.17528168 9.70126372 -17.60989836 8.34305044 -14.1875 7.125 C-9.89744406 5.49008947 -4.17144249 0 0 0 Z " fill="#0D0D0D" transform="translate(939,895)"/>
<path d="M0 0 C4.53353153 3.68431093 8.36348764 7.42838446 12 12 C12.66 12.66 13.32 13.32 14 14 C13.01 14.66 12.02 15.32 11 16 C10.64808594 15.49210937 10.29617188 14.98421875 9.93359375 14.4609375 C6.43137105 9.57794293 2.73322968 5.69696046 -2 2 C-1.34 1.34 -0.68 0.68 0 0 Z " fill="#171717" transform="translate(1162,105)"/>
<path d="M0 0 C-2.95252281 2.95252281 -6.39569419 2.80051031 -10.375 3.25 C-11.14328125 3.353125 -11.9115625 3.45625 -12.703125 3.5625 C-19.67487981 4.38270645 -19.67487981 4.38270645 -23 2 C-15.2472493 0.48462814 -7.89957062 -0.27990605 0 0 Z " fill="#0F1010" transform="translate(410,309)"/>
<path d="M0 0 C0.33 0.99 0.66 1.98 1 3 C-2.49951899 8.24927848 -7.29616866 12.25489765 -13 15 C-13.99 14.67 -14.98 14.34 -16 14 C-15.34773438 13.57589844 -14.69546875 13.15179688 -14.0234375 12.71484375 C-8.43011773 8.9612147 -4.12892038 5.32413417 0 0 Z " fill="#060606" transform="translate(1177,360)"/>
<path d="M0 0 C-0.33 0.66 -0.66 1.32 -1 2 C-7.9485042 3.33625081 -14.94870872 3.09674028 -22 3 C-22 2.67 -22 2.34 -22 2 C-18.7099087 1.46886618 -15.4177531 0.95185229 -12.125 0.4375 C-10.71927734 0.21030273 -10.71927734 0.21030273 -9.28515625 -0.02148438 C-7.94130859 -0.2293457 -7.94130859 -0.2293457 -6.5703125 -0.44140625 C-5.74289551 -0.57232666 -4.91547852 -0.70324707 -4.06298828 -0.83813477 C-2 -1 -2 -1 0 0 Z " fill="#131313" transform="translate(386,312)"/>
<path d="M0 0 C-0.33 0.66 -0.66 1.32 -1 2 C-3.62815663 2.53454033 -6.15727071 2.93406721 -8.8125 3.25 C-9.53759766 3.353125 -10.26269531 3.45625 -11.00976562 3.5625 C-14.92269164 4.04937826 -17.68964173 4.32854597 -21 2 C-13.90294338 0.65504172 -7.2274605 -0.24091535 0 0 Z " fill="#141414" transform="translate(432,306)"/>
<path d="M0 0 C-0.33 0.66 -0.66 1.32 -1 2 C-3.984375 2.66796875 -3.984375 2.66796875 -7.75 3.1875 C-9.59851563 3.45626953 -9.59851563 3.45626953 -11.484375 3.73046875 C-14.64778321 3.97299671 -16.96174364 3.81754608 -20 3 C-20 2.67 -20 2.34 -20 2 C-13.25846717 0.74158054 -6.86515862 -0.26404456 0 0 Z " fill="#111011" transform="translate(496,297)"/>
<path d="M0 0 C-2.57005181 2.57005181 -4.25139178 2.57173288 -7.8125 3.125 C-8.85019531 3.29257813 -9.88789062 3.46015625 -10.95703125 3.6328125 C-13.67942337 3.96131681 -16.26250781 4.07084083 -19 4 C-18.01 3.67 -17.02 3.34 -16 3 C-16 2.34 -16 1.68 -16 1 C-10.63904667 -0.12862175 -5.44693314 -0.09688221 0 0 Z " fill="#191919" transform="translate(860,155)"/>
<path d="M0 0 C-3.47613434 2.3174229 -5.88663473 2.65013423 -10 3.25 C-11.2375 3.44078125 -12.475 3.6315625 -13.75 3.828125 C-17 4 -17 4 -20 2 C-17.23062417 1.47007619 -14.45996921 0.9507542 -11.6875 0.4375 C-10.90181641 0.28603516 -10.11613281 0.13457031 -9.30664062 -0.02148438 C-8.54931641 -0.16005859 -7.79199219 -0.29863281 -7.01171875 -0.44140625 C-6.31522217 -0.57232666 -5.61872559 -0.70324707 -4.90112305 -0.83813477 C-3 -1 -3 -1 0 0 Z " fill="#141414" transform="translate(956,206)"/>
<path d="M0 0 C-6.32453722 3.68931338 -12.87262743 4.25454902 -20 4 C-15.23177517 -0.76822483 -6.37720529 -0.23619279 0 0 Z " fill="#121212" transform="translate(385,261)"/>
<path d="M0 0 C0.66 0.33 1.32 0.66 2 1 C0.56351736 2.12629875 -0.87422585 3.2509899 -2.3125 4.375 C-3.11300781 5.00148438 -3.91351562 5.62796875 -4.73828125 6.2734375 C-6.44663212 7.57756718 -8.21172726 8.80781817 -10 10 C-10.99 9.67 -11.98 9.34 -13 9 C-8.71 6.03 -4.42 3.06 0 0 Z " fill="#111112" transform="translate(1031,794)"/>
<path d="M0 0 C-0.99 0.33 -1.98 0.66 -3 1 C-3.33 1.99 -3.66 2.98 -4 4 C-5.32 3.67 -6.64 3.34 -8 3 C-8.33 3.66 -8.66 4.32 -9 5 C-11.86724686 4.42655063 -12.8614515 4.1385485 -15 2 C-13.43883181 1.66048381 -11.87598662 1.32867456 -10.3125 1 C-9.44238281 0.814375 -8.57226562 0.62875 -7.67578125 0.4375 C-5.06287036 0.01027953 -2.64186962 -0.07616201 0 0 Z " fill="#2E2E2E" transform="translate(844,157)"/>
<path d="M0 0 C0.99 0.33 1.98 0.66 3 1 C2.45730469 1.60328125 1.91460938 2.2065625 1.35546875 2.828125 C0.28232422 4.02695313 0.28232422 4.02695313 -0.8125 5.25 C-1.52019531 6.03890625 -2.22789062 6.8278125 -2.95703125 7.640625 C-4.74168935 9.7016833 -6.39759062 11.79605523 -8 14 C-7.46719784 9.77510398 -6.12321801 7.45919284 -3.4375 4.1875 C-2.47650391 3.00220703 -2.47650391 3.00220703 -1.49609375 1.79296875 C-1.00238281 1.20128906 -0.50867188 0.60960937 0 0 Z " fill="#050505" transform="translate(521,168)"/>
<path d="M0 0 C-5.38027025 1.19088986 -10.45291384 2.2919519 -16 2 C-13.64451045 -0.35548955 -12.34285039 -0.58160378 -9.125 -1.25 C-8.26132812 -1.44078125 -7.39765625 -1.6315625 -6.5078125 -1.828125 C-3.67209046 -2.02247355 -2.38042182 -1.48361174 0 0 Z " fill="#111010" transform="translate(476,245)"/>
<path d="M0 0 C3 1 3 1 4.16796875 2.9609375 C4.50441406 3.75757813 4.84085938 4.55421875 5.1875 5.375 C5.70376953 6.56222656 5.70376953 6.56222656 6.23046875 7.7734375 C7 10 7 10 7 13 C6.34 13 5.68 13 5 13 C4.35309078 11.3962669 3.70751236 9.79199694 3.0625 8.1875 C2.70285156 7.29417969 2.34320312 6.40085938 1.97265625 5.48046875 C1.26386514 3.6729091 0.6139753 1.84192591 0 0 Z " fill="#191A1A" transform="translate(719,137)"/>
<path d="M0 0 C0 0.33 0 0.66 0 1 C-2.31 1.33 -4.62 1.66 -7 2 C-7 2.66 -7 3.32 -7 4 C-8.65 4 -10.3 4 -12 4 C-12 3.67 -12 3.34 -12 3 C-13.65 2.67 -15.3 2.34 -17 2 C-17 1.67 -17 1.34 -17 1 C-11.29309366 0.00749455 -5.78591511 -0.10477512 0 0 Z " fill="#333433" transform="translate(1143,99)"/>
<path d="M0 0 C0 0.33 0 0.66 0 1 C-5.36095333 2.12862175 -10.55306686 2.09688221 -16 2 C-10.30052469 -0.93972937 -6.37050234 -1.12420629 0 0 Z " fill="#131414" transform="translate(1125,180)"/>
<path d="M0 0 C0.33 0 0.66 0 1 0 C2.20568053 4.67201205 2.09382426 9.21496292 2 14 C1.34 14 0.68 14 0 14 C-1.33257403 4.58997722 -1.33257403 4.58997722 0 0 Z " fill="#0D0C0A" transform="translate(342,514)"/>
<path d="M0 0 C3 1 3 1 4.6875 3.6875 C6.03558623 7.08981286 6.25833766 9.38327271 6 13 C4.43926745 10.65890118 3.13626133 8.43666597 1.875 5.9375 C1.34519531 4.89916016 1.34519531 4.89916016 0.8046875 3.83984375 C0 2 0 2 0 0 Z " fill="#181818" transform="translate(575,176)"/>
<path d="M0 0 C3.26008643 3.16952847 6.22237877 6.39937989 9 10 C8.67 10.66 8.34 11.32 8 12 C6.66081194 10.37982158 5.3288031 8.75370657 4 7.125 C3.2575 6.22007812 2.515 5.31515625 1.75 4.3828125 C0 2 0 2 0 0 Z " fill="#0E0D0D" transform="translate(421,712)"/>
<path d="M0 0 C0.99386719 0.02707031 1.98773437 0.05414063 3.01171875 0.08203125 C4.15060547 0.13423828 4.15060547 0.13423828 5.3125 0.1875 C2.19339144 1.98025866 -0.36432428 2.53040718 -3.9375 2.8125 C-4.82953125 2.88726562 -5.7215625 2.96203125 -6.640625 3.0390625 C-7.31609375 3.08804688 -7.9915625 3.13703125 -8.6875 3.1875 C-6.10291354 -0.17334451 -4.11082043 -0.14508778 0 0 Z " fill="#151515" transform="translate(990.6875,127.8125)"/>
<path d="M0 0 C1.33804687 0.04060547 1.33804687 0.04060547 2.703125 0.08203125 C3.37859375 0.11683594 4.0540625 0.15164062 4.75 0.1875 C1.63089144 1.98025866 -0.92682428 2.53040718 -4.5 2.8125 C-5.39203125 2.88726562 -6.2840625 2.96203125 -7.203125 3.0390625 C-7.87859375 3.08804688 -8.5540625 3.13703125 -9.25 3.1875 C-6.10408067 0.38704377 -4.182936 -0.16511589 0 0 Z " fill="#121211" transform="translate(1031.25,119.8125)"/>
<path d="M0 0 C1.33804687 0.04060547 1.33804687 0.04060547 2.703125 0.08203125 C3.37859375 0.11683594 4.0540625 0.15164062 4.75 0.1875 C1.63089144 1.98025866 -0.92682428 2.53040718 -4.5 2.8125 C-5.39203125 2.88726562 -6.2840625 2.96203125 -7.203125 3.0390625 C-7.87859375 3.08804688 -8.5540625 3.13703125 -9.25 3.1875 C-6.10408067 0.38704377 -4.182936 -0.16511589 0 0 Z " fill="#131313" transform="translate(1091.25,107.8125)"/>
<path d="M0 0 C1.21236328 0.01353516 1.21236328 0.01353516 2.44921875 0.02734375 C3.37154297 0.04474609 3.37154297 0.04474609 4.3125 0.0625 C3.9825 0.7225 3.6525 1.3825 3.3125 2.0625 C-2.73025534 3.43067102 -2.73025534 3.43067102 -6.125 2.125 C-6.640625 1.774375 -7.15625 1.42375 -7.6875 1.0625 C-4.80538698 0.10179566 -2.98899956 -0.04331883 0 0 Z " fill="#161616" transform="translate(825.6875,224.9375)"/>
<path d="M0 0 C0.66 0 1.32 0 2 0 C3.15837573 3.47512718 2.77265943 5.13670286 2.0625 8.6875 C1.77052734 10.17830078 1.77052734 10.17830078 1.47265625 11.69921875 C1.23869141 12.83810547 1.23869141 12.83810547 1 14 C0.67 14 0.34 14 0 14 C0 9.38 0 4.76 0 0 Z " fill="#171818" transform="translate(581,190)"/>
<path d="M0 0 C0.90105469 0.01804688 1.80210937 0.03609375 2.73046875 0.0546875 C3.41753906 0.07789063 4.10460937 0.10109375 4.8125 0.125 C4.8125 0.455 4.8125 0.785 4.8125 1.125 C3.39872218 1.49052803 1.98129424 1.84195495 0.5625 2.1875 C-0.22640625 2.38472656 -1.0153125 2.58195313 -1.828125 2.78515625 C-4.29144822 3.13997267 -5.84354132 2.89377544 -8.1875 2.125 C-4.87379 -0.08414 -3.8428979 -0.09981553 0 0 Z " fill="#0F0F0F" transform="translate(829.1875,159.875)"/>
<path d="M0 0 C4.10958767 1.45044271 7.43258745 3.51110752 11 6 C10.01 6.33 9.02 6.66 8 7 C5.95703125 5.8203125 5.95703125 5.8203125 3.8125 4.125 C3.09707031 3.57070313 2.38164063 3.01640625 1.64453125 2.4453125 C1.10183594 1.96835937 0.55914063 1.49140625 0 1 C0 0.67 0 0.34 0 0 Z " fill="#0C0C0C" transform="translate(597,896)"/>
<path d="M0 0 C0.66 0.33 1.32 0.66 2 1 C-1.28804981 3.91227269 -3.59885603 5.49701212 -8 6 C-5.63404067 3.38499232 -3.13950774 1.61000397 0 0 Z " fill="#101010" transform="translate(1169,369)"/>
<path d="M0 0 C1.8871875 0.0309375 1.8871875 0.0309375 3.8125 0.0625 C3.4825 0.7225 3.1525 1.3825 2.8125 2.0625 C-0.5625 2.8125 -0.5625 2.8125 -4.1875 3.0625 C-5.1775 2.4025 -6.1675 1.7425 -7.1875 1.0625 C-4.43671116 0.14557039 -2.82801087 -0.04636083 0 0 Z " fill="#151515" transform="translate(871.1875,217.9375)"/>
<path d="M0 0 C-1.39332574 3.36720387 -2.9789286 4.9859524 -6 7 C-6.66 6.67 -7.32 6.34 -8 6 C-7.0479279 4.99403703 -6.08812654 3.99538437 -5.125 3 C-4.59132813 2.443125 -4.05765625 1.88625 -3.5078125 1.3125 C-2 0 -2 0 0 0 Z " fill="#0A0A11" transform="translate(1069,764)"/>
<path d="M0 0 C3.25543229 0.34879632 4.01873107 1.02133261 6.25 3.5625 C6.8275 4.366875 7.405 5.17125 8 6 C7.67 6.66 7.34 7.32 7 8 C5.83035398 6.8572081 4.66435444 5.71068285 3.5 4.5625 C2.8503125 3.92441406 2.200625 3.28632812 1.53125 2.62890625 C0 1 0 1 0 0 Z " fill="#131413" transform="translate(442,739)"/>
<path d="M0 0 C0 3.90838866 -1.50567876 5.11594107 -4 8 C-4.99 7.67 -5.98 7.34 -7 7 C-4.69 4.69 -2.38 2.38 0 0 Z " fill="#080809" transform="translate(1096,735)"/>
<path d="M0 0 C2.66735273 2.48952921 4.55746343 4.63408134 6 8 C5.01 8 4.02 8 3 8 C0.89229241 5.11165997 0 3.61537605 0 0 Z " fill="#0C0D0D" transform="translate(394,672)"/>
<path d="M0 0 C-3.47325181 1.1577506 -6.36067448 1.06866652 -10 1 C-9.67 0.34 -9.34 -0.32 -9 -1 C-5.26793158 -2.21040057 -3.31957615 -2.0901035 0 0 Z " fill="#0D0D0D" transform="translate(396,260)"/>
<path d="M0 0 C0.33 0.99 0.66 1.98 1 3 C-0.4375 5.1875 -0.4375 5.1875 -2 7 C-2.99 6.67 -3.98 6.34 -5 6 C-3.35 4.02 -1.7 2.04 0 0 Z " fill="#1B1A1B" transform="translate(1170,161)"/>
<path d="M0 0 C0.99 0.33 1.98 0.66 3 1 C3.33 1.99 3.66 2.98 4 4 C2.68 4 1.36 4 0 4 C0 2.68 0 1.36 0 0 Z " fill="#151515" transform="translate(996,121)"/>
<path d="M0 0 C2.64 0 5.28 0 8 0 C4.91190305 1.76462683 3.76687864 2 0 2 C0 1.34 0 0.68 0 0 Z " fill="#1F1F1F" transform="translate(1011,120)"/>
<path d="M0 0 C1.32 0 2.64 0 4 0 C4 0.66 4 1.32 4 2 C2.35 2 0.7 2 -1 2 C-0.67 1.34 -0.34 0.68 0 0 Z " fill="#000000" transform="translate(851,152)"/>
<path d="M0 0 C2.31 0 4.62 0 7 0 C7 0.33 7 0.66 7 1 C5.02 1.33 3.04 1.66 1 2 C0.67 1.34 0.34 0.68 0 0 Z " fill="#3A3A3A" transform="translate(933,136)"/>
<path d="M0 0 C0.66 0.66 1.32 1.32 2 2 C0.68 2.33 -0.64 2.66 -2 3 C-2 2.34 -2 1.68 -2 1 C-1.34 0.67 -0.68 0.34 0 0 Z " fill="#121212" transform="translate(1046,113)"/>
<path d="M0 0 C0.66 0.66 1.32 1.32 2 2 C0.35 2 -1.3 2 -3 2 C-2.01 1.34 -1.02 0.68 0 0 Z " fill="#080808" transform="translate(893,144)"/>
<path d="M0 0 C1.32 0.33 2.64 0.66 4 1 C3.01 1.495 3.01 1.495 2 2 C1.34 1.34 0.68 0.68 0 0 Z " fill="#1B1B1B" transform="translate(929,136)"/>
<path d="M0 0 C0.66 0 1.32 0 2 0 C2 0.66 2 1.32 2 2 C1.01 1.67 0.02 1.34 -1 1 C-0.67 0.67 -0.34 0.34 0 0 Z " fill="#2C2C2C" transform="translate(1041,114)"/>
<path d="M0 0 C4 1 4 1 4 1 Z " fill="#2A2A2A" transform="translate(815,160)"/>
<path d="M0 0 C0.99 0.33 1.98 0.66 3 1 C2.01 1 1.02 1 0 1 C0 0.67 0 0.34 0 0 Z " fill="#101010" transform="translate(558,160)"/>
<path d="M0 0 C4 1 4 1 4 1 Z " fill="#222222" transform="translate(844,154)"/>
<path d="M0 0 C4 1 4 1 4 1 Z " fill="#252525" transform="translate(895,144)"/>
<path d="M0 0 C1.485 0.99 1.485 0.99 3 2 C2.01 2 1.02 2 0 2 C0 1.34 0 0.68 0 0 Z " fill="#151515" transform="translate(971,128)"/>
<path d="M0 0 C0.66 0.66 1.32 1.32 2 2 C1.01 1.67 0.02 1.34 -1 1 C-0.67 0.67 -0.34 0.34 0 0 Z " fill="#000000" transform="translate(703,120)"/>
<path d="M0 0 C0.66 0 1.32 0 2 0 C2 0.66 2 1.32 2 2 C1.34 2 0.68 2 0 2 C0 1.34 0 0.68 0 0 Z " fill="#000000" transform="translate(671,120)"/>
<path d="M0 0 C0.66 0 1.32 0 2 0 C1.67 0.66 1.34 1.32 1 2 C0.67 1.34 0.34 0.68 0 0 Z " fill="#000000" transform="translate(638,440)"/>
<path d="M0 0 C3 1 3 1 3 1 Z " fill="#262626" transform="translate(856,152)"/>
<path d="M0 0 C3 1 3 1 3 1 Z " fill="#383838" transform="translate(920,139)"/>
<path d="M0 0 C3 1 3 1 3 1 Z " fill="#151515" transform="translate(924,138)"/>
<path d="M0 0 C3 1 3 1 3 1 Z " fill="#000000" transform="translate(965,130)"/>
<path d="" fill="#000000" transform="translate(0,0)"/>
<path d="M0 0 C3 1 3 1 3 1 Z " fill="#111111" transform="translate(1140,97)"/>
<path d="M0 0 C2 1 2 1 2 1 Z " fill="#000000" transform="translate(612,441)"/>
<path d="" fill="#000000" transform="translate(0,0)"/>
<path d="" fill="#000000" transform="translate(0,0)"/>
<path d="" fill="#000000" transform="translate(0,0)"/>
<path d="M0 0 C2 1 2 1 2 1 Z " fill="#2A2A2A" transform="translate(562,162)"/>
<path d="M0 0 C2 1 2 1 2 1 Z " fill="#2A2A2A" transform="translate(532,160)"/>
<path d="" fill="#000000" transform="translate(0,0)"/>
<path d="M0 0 C2 1 2 1 2 1 Z " fill="#000000" transform="translate(879,147)"/>
<path d="" fill="#2A2A2A" transform="translate(0,0)"/>
<path d="M0 0 C2 1 2 1 2 1 Z " fill="#2A2A2A" transform="translate(961,131)"/>
<path d="" fill="#000000" transform="translate(0,0)"/>
<path d="" fill="#000000" transform="translate(0,0)"/>
<path d="M0 0 C2 1 2 1 2 1 Z " fill="#000000" transform="translate(707,121)"/>
<path d="M0 0 C2 1 2 1 2 1 Z " fill="#000000" transform="translate(674,120)"/>
<path d="" fill="#000000" transform="translate(0,0)"/>
<path d="M0 0 C2 1 2 1 2 1 Z " fill="#000000" transform="translate(1042,112)"/>
<path d="M0 0 C2 1 2 1 2 1 Z " fill="#2A2A2A" transform="translate(1119,99)"/>
<path d="M0 0 C2 1 2 1 2 1 Z " fill="#000000" transform="translate(1090,83)"/>
<path d="M0 0 C2 1 2 1 2 1 Z " fill="#000000" transform="translate(1090,67)"/>
<path d="M0 0 C2 1 2 1 2 1 Z " fill="#000000" transform="translate(1090,59)"/>
<path d="" fill="#000000" transform="translate(0,0)"/>
<path d="M0 0 C2 1 2 1 2 1 Z " fill="#000000" transform="translate(1090,43)"/>
<path d="M0 0 C2 1 2 1 2 1 Z " fill="#000000" transform="translate(1090,35)"/>
<path d="M0 0 C2 1 2 1 2 1 Z " fill="#000000" transform="translate(1090,27)"/>
<path d="M0 0 C2 1 2 1 2 1 Z " fill="#000000" transform="translate(1090,11)"/>
<path d="" fill="#000000" transform="translate(0,0)"/>
<path d="" fill="#555555" transform="translate(0,0)"/>
<path d="" fill="#000000" transform="translate(0,0)"/>
<path d="" fill="#000000" transform="translate(0,0)"/>
<path d="" fill="#000000" transform="translate(0,0)"/>
<path d="" fill="#000000" transform="translate(0,0)"/>
<path d="" fill="#000000" transform="translate(0,0)"/>
<path d="" fill="#000000" transform="translate(0,0)"/>
<path d="" fill="#000000" transform="translate(0,0)"/>
<path d="" fill="#000000" transform="translate(0,0)"/>
<path d="" fill="#000000" transform="translate(0,0)"/>
<path d="" fill="#000000" transform="translate(0,0)"/>
<path d="" fill="#000000" transform="translate(0,0)"/>
<path d="" fill="#000000" transform="translate(0,0)"/>
<path d="" fill="#000000" transform="translate(0,0)"/>
<path d="" fill="#000000" transform="translate(0,0)"/>
<path d="" fill="#000000" transform="translate(0,0)"/>
<path d="" fill="#000000" transform="translate(0,0)"/>
<path d="" fill="#000000" transform="translate(0,0)"/>
<path d="" fill="#000000" transform="translate(0,0)"/>
<path d="" fill="#000000" transform="translate(0,0)"/>
<path d="" fill="#000000" transform="translate(0,0)"/>
<path d="" fill="#000000" transform="translate(0,0)"/>
<path d="" fill="#800000" transform="translate(0,0)"/>
<path d="" fill="#000000" transform="translate(0,0)"/>
<path d="" fill="#000000" transform="translate(0,0)"/>
<path d="" fill="#000000" transform="translate(0,0)"/>
<path d="" fill="#000000" transform="translate(0,0)"/>
<path d="" fill="#000000" transform="translate(0,0)"/>
<path d="" fill="#000000" transform="translate(0,0)"/>
<path d="" fill="#000000" transform="translate(0,0)"/>
<path d="" fill="#000000" transform="translate(0,0)"/>
<path d="" fill="#555555" transform="translate(0,0)"/>
<path d="" fill="#000000" transform="translate(0,0)"/>
<path d="" fill="#000000" transform="translate(0,0)"/>
<path d="" fill="#000000" transform="translate(0,0)"/>
<path d="" fill="#000000" transform="translate(0,0)"/>
<path d="" fill="#000000" transform="translate(0,0)"/>
<path d="" fill="#000000" transform="translate(0,0)"/>
<path d="" fill="#000000" transform="translate(0,0)"/>
<path d="" fill="#000000" transform="translate(0,0)"/>
<path d="" fill="#000000" transform="translate(0,0)"/>
<path d="" fill="#000000" transform="translate(0,0)"/>
<path d="" fill="#000000" transform="translate(0,0)"/>
<path d="" fill="#000000" transform="translate(0,0)"/>
<path d="" fill="#000000" transform="translate(0,0)"/>
<path d="" fill="#000000" transform="translate(0,0)"/>
<path d="" fill="#000000" transform="translate(0,0)"/>
<path d="" fill="#555555" transform="translate(0,0)"/>
<path d="" fill="#000000" transform="translate(0,0)"/>
<path d="" fill="#404040" transform="translate(0,0)"/>
<path d="" fill="#000000" transform="translate(0,0)"/>
<path d="" fill="#404040" transform="translate(0,0)"/>
<path d="" fill="#000000" transform="translate(0,0)"/>
<path d="" fill="#000000" transform="translate(0,0)"/>
<path d="" fill="#000000" transform="translate(0,0)"/>
<path d="" fill="#000000" transform="translate(0,0)"/>
<path d="" fill="#000000" transform="translate(0,0)"/>
<path d="" fill="#555555" transform="translate(0,0)"/>
<path d="" fill="#000000" transform="translate(0,0)"/>
<path d="" fill="#000000" transform="translate(0,0)"/>
<path d="" fill="#000000" transform="translate(0,0)"/>
<path d="" fill="#000000" transform="translate(0,0)"/>
<path d="" fill="#000000" transform="translate(0,0)"/>
<path d="" fill="#000000" transform="translate(0,0)"/>
<path d="" fill="#000000" transform="translate(0,0)"/>
<path d="" fill="#000000" transform="translate(0,0)"/>
<path d="" fill="#000000" transform="translate(0,0)"/>
<path d="" fill="#000000" transform="translate(0,0)"/>
<path d="" fill="#000000" transform="translate(0,0)"/>
<path d="" fill="#000000" transform="translate(0,0)"/>
<path d="" fill="#000000" transform="translate(0,0)"/>
<path d="" fill="#000000" transform="translate(0,0)"/>
<path d="" fill="#000000" transform="translate(0,0)"/>
<path d="" fill="#000000" transform="translate(0,0)"/>
<path d="" fill="#000000" transform="translate(0,0)"/>
<path d="" fill="#000000" transform="translate(0,0)"/>
<path d="" fill="#000000" transform="translate(0,0)"/>
<path d="" fill="#000000" transform="translate(0,0)"/>
<path d="" fill="#000000" transform="translate(0,0)"/>
<path d="" fill="#000000" transform="translate(0,0)"/>
<path d="" fill="#000000" transform="translate(0,0)"/>
<path d="" fill="#000000" transform="translate(0,0)"/>
<path d="" fill="#000000" transform="translate(0,0)"/>
<path d="" fill="#000000" transform="translate(0,0)"/>
<path d="" fill="#000000" transform="translate(0,0)"/>
<path d="" fill="#000000" transform="translate(0,0)"/>
<path d="" fill="#000000" transform="translate(0,0)"/>
<path d="" fill="#000000" transform="translate(0,0)"/>
<path d="" fill="#000000" transform="translate(0,0)"/>
<path d="" fill="#000000" transform="translate(0,0)"/>
<path d="" fill="#000000" transform="translate(0,0)"/>
<path d="" fill="#000000" transform="translate(0,0)"/>
<path d="" fill="#000000" transform="translate(0,0)"/>
<path d="" fill="#000000" transform="translate(0,0)"/>
<path d="" fill="#000000" transform="translate(0,0)"/>
<path d="" fill="#000000" transform="translate(0,0)"/>
<path d="" fill="#000000" transform="translate(0,0)"/>
<path d="" fill="#000000" transform="translate(0,0)"/>
<path d="" fill="#000000" transform="translate(0,0)"/>
<path d="" fill="#000000" transform="translate(0,0)"/>
<path d="" fill="#000000" transform="translate(0,0)"/>
<path d="" fill="#000000" transform="translate(0,0)"/>
<path d="" fill="#000000" transform="translate(0,0)"/>
<path d="" fill="#000000" transform="translate(0,0)"/>
<path d="" fill="#000000" transform="translate(0,0)"/>
<path d="" fill="#000000" transform="translate(0,0)"/>
<path d="" fill="#000000" transform="translate(0,0)"/>
<path d="" fill="#000000" transform="translate(0,0)"/>
<path d="" fill="#000000" transform="translate(0,0)"/>
<path d="" fill="#000000" transform="translate(0,0)"/>
<path d="" fill="#000000" transform="translate(0,0)"/>
<path d="" fill="#000000" transform="translate(0,0)"/>
<path d="" fill="#000000" transform="translate(0,0)"/>
<path d="" fill="#555555" transform="translate(0,0)"/>
<path d="" fill="#000000" transform="translate(0,0)"/>
<path d="" fill="#000000" transform="translate(0,0)"/>
<path d="" fill="#000000" transform="translate(0,0)"/>
<path d="" fill="#000000" transform="translate(0,0)"/>
<path d="" fill="#000000" transform="translate(0,0)"/>
<path d="" fill="#000000" transform="translate(0,0)"/>
<path d="" fill="#000000" transform="translate(0,0)"/>
<path d="" fill="#000000" transform="translate(0,0)"/>
<path d="" fill="#000000" transform="translate(0,0)"/>
<path d="" fill="#000000" transform="translate(0,0)"/>
<path d="" fill="#000000" transform="translate(0,0)"/>
<path d="" fill="#000000" transform="translate(0,0)"/>
<path d="" fill="#000000" transform="translate(0,0)"/>
<path d="" fill="#000000" transform="translate(0,0)"/>
<path d="" fill="#555555" transform="translate(0,0)"/>
<path d="" fill="#000000" transform="translate(0,0)"/>
<path d="" fill="#000000" transform="translate(0,0)"/>
<path d="" fill="#000000" transform="translate(0,0)"/>
<path d="" fill="#000000" transform="translate(0,0)"/>
<path d="" fill="#000000" transform="translate(0,0)"/>
<path d="" fill="#000000" transform="translate(0,0)"/>
<path d="" fill="#000000" transform="translate(0,0)"/>
<path d="" fill="#000000" transform="translate(0,0)"/>
<path d="" fill="#000000" transform="translate(0,0)"/>
<path d="" fill="#000000" transform="translate(0,0)"/>
<path d="" fill="#000000" transform="translate(0,0)"/>
<path d="" fill="#000000" transform="translate(0,0)"/>
<path d="" fill="#000000" transform="translate(0,0)"/>
<path d="" fill="#000000" transform="translate(0,0)"/>
<path d="" fill="#000000" transform="translate(0,0)"/>
<path d="" fill="#000000" transform="translate(0,0)"/>
<path d="" fill="#000000" transform="translate(0,0)"/>
<path d="" fill="#000000" transform="translate(0,0)"/>
<path d="" fill="#000000" transform="translate(0,0)"/>
<path d="" fill="#404040" transform="translate(0,0)"/>
<path d="" fill="#555555" transform="translate(0,0)"/>
<path d="" fill="#000000" transform="translate(0,0)"/>
<path d="" fill="#000000" transform="translate(0,0)"/>
<path d="" fill="#000000" transform="translate(0,0)"/>
<path d="" fill="#000000" transform="translate(0,0)"/>
<path d="" fill="#555555" transform="translate(0,0)"/>
<path d="" fill="#000000" transform="translate(0,0)"/>
<path d="" fill="#333333" transform="translate(0,0)"/>
<path d="" fill="#000000" transform="translate(0,0)"/>
<path d="" fill="#000000" transform="translate(0,0)"/>
<path d="" fill="#000000" transform="translate(0,0)"/>
<path d="" fill="#000000" transform="translate(0,0)"/>
<path d="" fill="#000000" transform="translate(0,0)"/>
<path d="" fill="#000000" transform="translate(0,0)"/>
<path d="" fill="#000000" transform="translate(0,0)"/>
<path d="" fill="#555555" transform="translate(0,0)"/>
<path d="" fill="#000000" transform="translate(0,0)"/>
<path d="" fill="#000000" transform="translate(0,0)"/>
<path d="" fill="#000000" transform="translate(0,0)"/>
<path d="" fill="#000000" transform="translate(0,0)"/>
<path d="" fill="#000000" transform="translate(0,0)"/>
<path d="" fill="#000000" transform="translate(0,0)"/>
<path d="" fill="#000000" transform="translate(0,0)"/>
<path d="" fill="#000000" transform="translate(0,0)"/>
<path d="" fill="#000000" transform="translate(0,0)"/>
<path d="" fill="#000000" transform="translate(0,0)"/>
<path d="" fill="#000000" transform="translate(0,0)"/>
<path d="" fill="#000000" transform="translate(0,0)"/>
<path d="" fill="#000000" transform="translate(0,0)"/>
<path d="" fill="#000000" transform="translate(0,0)"/>
<path d="" fill="#000000" transform="translate(0,0)"/>
<path d="" fill="#000000" transform="translate(0,0)"/>
<path d="" fill="#000000" transform="translate(0,0)"/>
<path d="" fill="#000000" transform="translate(0,0)"/>
<path d="" fill="#000000" transform="translate(0,0)"/>
<path d="" fill="#000000" transform="translate(0,0)"/>
<path d="" fill="#000000" transform="translate(0,0)"/>
<path d="" fill="#000000" transform="translate(0,0)"/>
<path d="" fill="#000000" transform="translate(0,0)"/>
<path d="" fill="#000000" transform="translate(0,0)"/>
<path d="" fill="#000000" transform="translate(0,0)"/>
<path d="" fill="#000000" transform="translate(0,0)"/>
<path d="" fill="#000000" transform="translate(0,0)"/>
<path d="" fill="#000000" transform="translate(0,0)"/>
<path d="" fill="#000000" transform="translate(0,0)"/>
<path d="" fill="#000000" transform="translate(0,0)"/>
<path d="" fill="#000000" transform="translate(0,0)"/>
<path d="" fill="#000000" transform="translate(0,0)"/>
<path d="" fill="#000000" transform="translate(0,0)"/>
<path d="" fill="#000000" transform="translate(0,0)"/>
<path d="" fill="#000000" transform="translate(0,0)"/>
<path d="" fill="#000000" transform="translate(0,0)"/>
<path d="" fill="#000000" transform="translate(0,0)"/>
<path d="" fill="#000000" transform="translate(0,0)"/>
<path d="" fill="#000000" transform="translate(0,0)"/>
<path d="" fill="#000000" transform="translate(0,0)"/>
<path d="" fill="#000000" transform="translate(0,0)"/>
<path d="" fill="#000000" transform="translate(0,0)"/>
<path d="" fill="#000000" transform="translate(0,0)"/>
<path d="" fill="#000000" transform="translate(0,0)"/>
<path d="" fill="#000000" transform="translate(0,0)"/>
<path d="" fill="#000000" transform="translate(0,0)"/>
<path d="" fill="#000000" transform="translate(0,0)"/>
<path d="" fill="#000000" transform="translate(0,0)"/>
<path d="" fill="#000000" transform="translate(0,0)"/>
<path d="" fill="#000000" transform="translate(0,0)"/>
<path d="" fill="#000000" transform="translate(0,0)"/>
<path d="" fill="#000000" transform="translate(0,0)"/>
<path d="" fill="#000000" transform="translate(0,0)"/>
<path d="" fill="#000000" transform="translate(0,0)"/>
<path d="" fill="#000000" transform="translate(0,0)"/>
<path d="" fill="#000000" transform="translate(0,0)"/>
<path d="" fill="#000000" transform="translate(0,0)"/>
<path d="" fill="#000000" transform="translate(0,0)"/>
<path d="" fill="#000000" transform="translate(0,0)"/>
<path d="" fill="#000000" transform="translate(0,0)"/>
<path d="" fill="#000000" transform="translate(0,0)"/>
<path d="" fill="#000000" transform="translate(0,0)"/>
<path d="" fill="#000000" transform="translate(0,0)"/>
<path d="" fill="#000000" transform="translate(0,0)"/>
<path d="" fill="#000000" transform="translate(0,0)"/>
<path d="" fill="#000000" transform="translate(0,0)"/>
<path d="" fill="#000000" transform="translate(0,0)"/>
<path d="" fill="#000000" transform="translate(0,0)"/>
<path d="" fill="#000000" transform="translate(0,0)"/>
<path d="" fill="#000000" transform="translate(0,0)"/>
<path d="" fill="#000000" transform="translate(0,0)"/>
<path d="" fill="#000000" transform="translate(0,0)"/>
<path d="" fill="#000000" transform="translate(0,0)"/>
<path d="" fill="#000000" transform="translate(0,0)"/>
<path d="" fill="#000000" transform="translate(0,0)"/>
<path d="" fill="#000000" transform="translate(0,0)"/>
<path d="" fill="#000000" transform="translate(0,0)"/>
<path d="" fill="#000000" transform="translate(0,0)"/>
<path d="" fill="#000000" transform="translate(0,0)"/>
<path d="" fill="#000000" transform="translate(0,0)"/>
<path d="" fill="#000000" transform="translate(0,0)"/>
<path d="" fill="#000000" transform="translate(0,0)"/>
<path d="" fill="#000000" transform="translate(0,0)"/>
<path d="" fill="#000000" transform="translate(0,0)"/>
<path d="" fill="#000000" transform="translate(0,0)"/>
<path d="" fill="#000000" transform="translate(0,0)"/>
<path d="" fill="#000000" transform="translate(0,0)"/>
<path d="" fill="#000000" transform="translate(0,0)"/>
<path d="" fill="#000000" transform="translate(0,0)"/>
<path d="" fill="#000000" transform="translate(0,0)"/>
<path d="" fill="#000000" transform="translate(0,0)"/>
<path d="" fill="#000000" transform="translate(0,0)"/>
<path d="" fill="#000000" transform="translate(0,0)"/>
<path d="" fill="#000000" transform="translate(0,0)"/>
<path d="" fill="#000000" transform="translate(0,0)"/>
<path d="" fill="#000000" transform="translate(0,0)"/>
<path d="" fill="#000000" transform="translate(0,0)"/>
<path d="" fill="#000000" transform="translate(0,0)"/>
<path d="" fill="#000000" transform="translate(0,0)"/>
<path d="" fill="#000000" transform="translate(0,0)"/>
<path d="" fill="#000000" transform="translate(0,0)"/>
<path d="" fill="#000000" transform="translate(0,0)"/>
<path d="" fill="#000000" transform="translate(0,0)"/>
<path d="" fill="#000000" transform="translate(0,0)"/>
<path d="" fill="#000000" transform="translate(0,0)"/>
<path d="" fill="#000000" transform="translate(0,0)"/>
<path d="" fill="#000000" transform="translate(0,0)"/>
<path d="" fill="#000000" transform="translate(0,0)"/>
<path d="" fill="#000000" transform="translate(0,0)"/>
<path d="" fill="#000000" transform="translate(0,0)"/>
<path d="" fill="#000000" transform="translate(0,0)"/>
<path d="" fill="#000000" transform="translate(0,0)"/>
<path d="" fill="#000000" transform="translate(0,0)"/>
<path d="" fill="#000000" transform="translate(0,0)"/>
<path d="" fill="#000000" transform="translate(0,0)"/>
<path d="" fill="#000000" transform="translate(0,0)"/>
<path d="" fill="#000000" transform="translate(0,0)"/>
<path d="" fill="#000000" transform="translate(0,0)"/>
<path d="" fill="#000000" transform="translate(0,0)"/>
<path d="" fill="#000000" transform="translate(0,0)"/>
<path d="" fill="#000000" transform="translate(0,0)"/>
</svg>
