<?xml version="1.0" standalone="no"?>
<!DOCTYPE svg PUBLIC "-//W3C//DTD SVG 20010904//EN"
 "http://www.w3.org/TR/2001/REC-SVG-20010904/DTD/svg10.dtd">
<svg version="1.0" xmlns="http://www.w3.org/2000/svg"
 width="1024.000000pt" height="1024.000000pt" viewBox="0 0 1024.000000 1024.000000"
 preserveAspectRatio="xMidYMid meet">

<g transform="translate(0.000000,1024.000000) scale(0.100000,-0.100000)"
fill="#000000" stroke="none">
<path d="M4545 9104 c-27 -2 -122 -8 -210 -14 -861 -58 -1680 -248 -2145 -497
-184 -99 -352 -234 -428 -345 -18 -26 -46 -76 -62 -110 -26 -56 -30 -74 -30
-154 l0 -91 -62 -49 c-281 -220 -450 -475 -504 -760 -21 -116 -15 -336 14
-439 43 -156 112 -289 221 -425 l68 -85 -53 -68 c-204 -261 -299 -570 -266
-867 27 -244 119 -448 290 -646 34 -40 62 -75 62 -79 0 -4 -28 -41 -63 -84
-211 -254 -307 -508 -307 -811 0 -343 127 -626 405 -905 182 -183 359 -307
650 -455 388 -198 823 -340 1395 -458 496 -103 970 -146 1590 -146 681 0 1198
55 1800 189 1076 240 1861 698 2135 1245 125 248 157 568 85 843 -46 173 -158
376 -288 517 l-60 66 65 74 c120 139 190 261 241 420 43 136 56 241 49 411 -9
269 -85 467 -264 692 l-55 68 58 67 c192 225 278 492 253 790 -15 174 -73 336
-176 491 -67 100 -249 292 -345 364 -63 46 -68 53 -68 87 0 21 -5 62 -10 91
-84 447 -1053 865 -2365 1019 -383 45 -525 52 -1055 55 -283 1 -537 1 -565 -1z
m1302 -644 c142 -19 269 -104 324 -217 21 -41 24 -62 24 -148 -1 -88 -4 -106
-27 -151 -54 -103 -168 -185 -299 -216 -41 -10 -225 -13 -769 -13 -640 0 -722
2 -777 17 -142 39 -231 107 -285 216 -29 59 -33 76 -33 147 0 71 4 89 32 146
57 115 176 199 309 218 87 13 1406 13 1501 1z m-3597 -1086 c113 -74 366 -197
575 -279 94 -36 191 -80 216 -96 78 -50 165 -149 207 -236 l37 -78 8 -1440 8
-1440 24 -52 c32 -71 115 -157 184 -190 48 -24 68 -28 146 -27 108 0 155 19
234 94 80 77 93 115 102 310 4 91 8 647 9 1235 0 661 4 1097 10 1140 26 178
165 336 349 397 64 21 81 22 731 28 714 8 751 10 1187 71 404 56 725 128 1023
229 283 95 460 180 684 329 l99 65 68 -71 c37 -40 81 -96 96 -125 26 -49 28
-61 28 -168 0 -110 -1 -118 -33 -177 -130 -250 -570 -487 -1198 -646 -589
-150 -1191 -217 -1941 -217 l-313 0 0 -454 0 -453 158 -6 c180 -6 718 8 897
23 628 54 1174 158 1639 311 266 88 445 166 660 287 l98 55 20 -24 c11 -13 32
-51 48 -84 94 -194 45 -394 -142 -577 -464 -453 -1703 -758 -3080 -758 -146 0
-273 -3 -282 -6 -14 -5 -16 -55 -16 -454 l0 -447 173 -6 c185 -5 610 6 847 23
710 51 1361 188 1895 397 77 30 229 98 339 151 l198 96 19 -25 c94 -124 125
-318 75 -461 -151 -428 -917 -797 -1996 -962 -471 -72 -783 -91 -1380 -83
-520 8 -715 24 -1165 98 -509 84 -913 206 -1266 381 -371 183 -587 385 -645
602 -20 75 -18 192 6 267 22 70 74 167 93 175 7 2 74 -25 148 -60 159 -76 389
-169 397 -161 3 3 8 211 10 463 l5 458 -121 61 c-167 85 -262 151 -368 257
-75 75 -99 107 -135 180 -44 89 -44 90 -44 196 0 105 0 107 42 191 69 135 52
130 190 61 123 -62 390 -172 417 -172 14 0 16 49 16 448 l0 448 -92 44 c-221
107 -399 256 -461 387 -29 63 -32 76 -32 168 0 92 3 105 32 168 32 66 143 197
167 197 6 0 49 -25 96 -56z"/>
</g>
</svg>
