<?xml version="1.0" standalone="no"?>
<!DOCTYPE svg PUBLIC "-//W3C//DTD SVG 20010904//EN"
 "http://www.w3.org/TR/2001/REC-SVG-20010904/DTD/svg10.dtd">
<svg version="1.0" xmlns="http://www.w3.org/2000/svg"
 width="1536.000000pt" height="1024.000000pt" viewBox="0 0 1536.000000 1024.000000"
 preserveAspectRatio="xMidYMid meet">

<g transform="translate(0.000000,1024.000000) scale(0.100000,-0.100000)"
fill="#000000" stroke="none">
<path d="M7425 8850 c-893 -37 -1751 -304 -2463 -766 -278 -181 -478 -341
-705 -564 -266 -259 -445 -475 -642 -770 -148 -222 -231 -369 -375 -663 -157
-324 -194 -359 -570 -547 -173 -87 -214 -111 -268 -164 -133 -126 -184 -240
-184 -416 -1 -124 17 -203 68 -300 36 -69 127 -168 197 -216 109 -74 257 -110
412 -101 167 10 211 25 600 209 379 180 531 227 761 235 229 9 337 -12 754
-147 452 -146 615 -183 886 -200 349 -22 530 10 1089 195 426 141 530 165 718
165 202 0 304 -22 694 -150 551 -182 699 -213 998 -213 352 1 520 34 1045 205
343 111 467 139 645 145 301 11 445 -31 986 -285 130 -61 272 -121 315 -133
105 -29 301 -31 389 -5 215 64 382 234 430 438 17 73 19 202 5 279 -16 88 -80
206 -148 273 -84 83 -118 104 -380 232 -226 110 -235 116 -311 192 -75 75 -82
86 -189 302 -291 590 -552 968 -935 1352 -509 511 -1087 877 -1802 1138 -582
213 -1284 310 -2020 280z m-1429 -1124 c74 -34 117 -78 149 -147 38 -85 33
-157 -16 -254 -20 -39 -94 -182 -164 -320 -71 -137 -140 -267 -155 -287 -56
-78 -121 -110 -226 -110 -153 0 -262 95 -280 245 -9 73 8 120 113 320 47 89
118 228 159 308 48 95 89 161 115 188 79 78 207 103 305 57z m1801 9 c63 -19
135 -81 171 -149 l27 -51 3 -353 3 -353 -24 -52 c-57 -125 -193 -193 -327
-166 -108 21 -182 84 -219 185 -21 55 -22 70 -19 398 3 336 3 342 27 386 74
142 207 200 358 155z m1866 -18 c25 -15 60 -45 79 -66 18 -22 107 -186 198
-365 l165 -326 0 -82 c0 -72 -4 -89 -27 -128 -14 -25 -39 -57 -55 -72 -107
-101 -304 -93 -401 17 -21 24 -111 186 -207 371 -156 303 -170 334 -173 391
-9 127 62 233 185 279 62 23 180 13 236 -19z"/>
<path d="M4185 4180 c-90 -10 -135 -27 -455 -175 -146 -68 -282 -130 -302
-138 -21 -9 -38 -20 -38 -24 0 -26 291 -913 367 -1118 97 -262 199 -439 337
-582 174 -183 357 -287 601 -343 76 -18 196 -19 2575 -24 1372 -4 2702 -2
2955 3 456 8 461 9 565 36 374 98 644 326 815 688 67 140 435 1262 435 1323 0
28 -29 43 -345 187 -363 164 -384 171 -555 170 -136 0 -168 -7 -526 -123 -306
-100 -583 -172 -774 -201 -197 -31 -682 -34 -855 -6 -196 32 -394 86 -725 197
-370 125 -433 140 -570 140 -121 0 -216 -23 -460 -113 -475 -175 -670 -222
-1024 -247 -296 -20 -677 24 -1013 120 -76 21 -237 71 -358 110 -273 88 -347
108 -455 120 -93 11 -93 11 -195 0z"/>
</g>
</svg>
