<?xml version="1.0" encoding="UTF-8"?>
<svg version="1.1" xmlns="http://www.w3.org/2000/svg" width="1024" height="1536">
<path d="M0 0 C0.84083633 -0.01257339 1.68167267 -0.02514679 2.54798889 -0.0381012 C19.92673894 -0.24801247 36.28009623 -0.43654371 52.890625 5.2734375 C54.56285258 5.78954489 56.23606284 6.30247729 57.91015625 6.8125 C81.03881179 14.11791321 100.55051338 26.51293964 117.890625 43.2734375 C118.75429688 44.08554688 119.61796875 44.89765625 120.5078125 45.734375 C140.5085971 64.98746672 153.11447467 89.67089533 160.23974609 116.25317383 C160.9286167 118.39135997 161.83871443 120.29171808 162.890625 122.2734375 C163.73882813 121.644375 164.58703125 121.0153125 165.4609375 120.3671875 C196.15379968 97.84640495 230.83539768 87.53997361 269.00610352 93.04272461 C293.24747709 97.33378053 315.07084691 108.64570658 333.890625 124.2734375 C334.45523438 124.71429688 335.01984375 125.15515625 335.6015625 125.609375 C339.9399885 129.0296156 343.39990318 133.02386312 346.890625 137.2734375 C347.66664063 138.211875 348.44265625 139.1503125 349.2421875 140.1171875 C371.49745367 167.64229165 381.15318004 201.72643014 377.62695312 236.90380859 C376.50252742 245.53080767 374.37786351 253.94450078 371.890625 262.2734375 C372.97029541 262.16950684 372.97029541 262.16950684 374.07177734 262.06347656 C410.4875131 258.7652262 445.69607237 263.67600002 474.890625 287.2734375 C478.32361993 290.17463413 481.62611707 293.18455183 484.890625 296.2734375 C485.7259375 297.04429687 486.56125 297.81515625 487.421875 298.609375 C507.99269197 318.22783933 520.06612317 346.79852184 521.171875 375.078125 C521.59000911 393.42212018 518.76287544 407.65668618 512.890625 425.2734375 C183.880625 425.2734375 -145.129375 425.2734375 -484.109375 425.2734375 C-485.099375 422.3034375 -486.089375 419.3334375 -487.109375 416.2734375 C-487.439375 589.1934375 -487.769375 762.1134375 -488.109375 940.2734375 C-488.439375 940.2734375 -488.769375 940.2734375 -489.109375 940.2734375 C-489.109375 631.0634375 -489.109375 321.8534375 -489.109375 3.2734375 C-488.779375 3.2734375 -488.449375 3.2734375 -488.109375 3.2734375 C-487.779375 115.8034375 -487.449375 228.3334375 -487.109375 344.2734375 C-484.799375 338.6634375 -482.489375 333.0534375 -480.109375 327.2734375 C-478.59621844 324.38951073 -477.18729555 321.77249691 -475.421875 319.0859375 C-474.79913696 318.11696533 -474.79913696 318.11696533 -474.16381836 317.12841797 C-455.70518706 289.16907076 -427.36188359 270.04653106 -394.5859375 263.3046875 C-379.9086046 260.55736444 -364.91157748 260.2998105 -350.109375 262.2734375 C-350.37492188 261.40203125 -350.64046875 260.530625 -350.9140625 259.6328125 C-351.44386719 257.84617187 -351.44386719 257.84617187 -351.984375 256.0234375 C-352.50644531 254.28320312 -352.50644531 254.28320312 -353.0390625 252.5078125 C-355.80497955 242.15530754 -356.49961063 231.95957677 -356.484375 221.2734375 C-356.48349884 220.59535034 -356.48262268 219.91726318 -356.48171997 219.21862793 C-356.32574931 182.45272713 -341.20734492 152.44025382 -315.48828125 126.64453125 C-287.41275888 99.98738594 -252.20680576 91.34661812 -214.48925781 92.14160156 C-207.7985446 92.40257997 -201.56947667 93.46516118 -195.109375 95.2734375 C-194.43003906 95.45616211 -193.75070312 95.63888672 -193.05078125 95.82714844 C-176.18930151 100.46939128 -159.9762057 108.60903631 -146.109375 119.2734375 C-145.119375 119.9334375 -144.129375 120.5934375 -143.109375 121.2734375 C-141.51493738 117.09821346 -139.97306289 112.92201368 -138.56640625 108.6796875 C-124.63551243 66.86156148 -96.67197281 34.70168554 -57.56640625 14.4375 C-39.57143661 5.46428679 -20.10624565 0.2760509 0 0 Z " fill="#010101" transform="translate(489.109375,62.7265625)"/>
<path d="M0 0 C125.4 0 250.8 0 380 0 C378.85139732 21.823451 378.85139732 21.823451 378.12719727 29.35717773 C378.00443767 30.68478434 378.00443767 30.68478434 377.87919807 32.03921127 C377.61184459 34.92101856 377.33916269 37.80229328 377.06640625 40.68359375 C376.87081952 42.78042991 376.67558358 44.87729882 376.48066711 46.97419739 C376.06358588 51.45350631 375.64416442 55.93258731 375.22283936 60.41149902 C374.54913716 67.57377661 373.88086732 74.73655507 373.21337891 81.89941406 C372.39672133 90.65925427 371.57885594 99.41897997 370.7592926 108.17854881 C368.55526131 131.73564099 366.37070453 155.29453113 364.18947983 178.85374451 C363.87265272 182.27534967 363.55568136 185.69694144 363.23867798 189.11853027 C360.30724794 220.76220482 357.40379356 252.40827909 354.53703499 284.05787563 C354.1186468 288.67662334 353.70003045 293.29535034 353.28125 297.9140625 C353.19471035 298.86850817 353.1081707 299.82295383 353.01900864 300.8063221 C351.51952745 317.33699125 350.00424221 333.86619469 348.48473358 350.39503288 C347.23858223 363.95074131 345.99396132 377.50659044 344.75 391.0625 C344.64285077 392.23010337 344.64285077 392.23010337 344.53353691 393.42129469 C340.2590422 440.00426889 336.03818021 486.59193657 331.859375 533.18359375 C331.69355753 535.03234506 331.69355753 535.03234506 331.52439022 536.91844487 C329.09377991 564.0202221 326.66754851 591.12239031 324.24428129 618.22482502 C321.92116459 644.206463 319.59365544 670.18770168 317.25491333 696.16793823 C317.00439037 698.95122339 316.75401908 701.73452217 316.50366211 704.51782227 C315.62677749 714.26285396 314.74539688 724.00745842 313.85585022 733.75134277 C313.60045115 736.5500954 313.34685809 739.34900184 313.09495544 742.14807129 C312.75922394 745.86991288 312.41849748 749.59126003 312.07617188 753.3125 C311.93236084 754.92412018 311.93236084 754.92412018 311.78564453 756.56829834 C311.69585327 757.5318927 311.60606201 758.49548706 311.5135498 759.48828125 C311.43783501 760.31884033 311.36212021 761.14939941 311.28411102 762.00512695 C311 764 311 764 310 766 C234.76 766 159.52 766 82 766 C80.21830702 761.54576755 79.52390407 758.42456957 78.98052979 753.73648071 C78.89479609 753.01344804 78.8090624 752.29041537 78.72073072 751.54547262 C78.43508062 749.12170183 78.15945694 746.69689752 77.88378906 744.27197266 C77.67989303 742.52366828 77.47539275 740.77543429 77.2703371 739.02726555 C76.71133627 734.24584309 76.16114836 729.46344224 75.61253285 724.68081856 C75.02739141 719.59235209 74.43440842 714.50479879 73.84251404 709.41711426 C72.69875415 699.5734753 71.56299828 689.72892897 70.43055373 679.88398242 C69.51088826 671.88902288 68.58879871 663.89434643 67.66519165 655.89984131 C64.08853894 624.93569134 60.53420101 593.96902363 57 563 C56.90026729 562.12631271 56.80053457 561.25262543 56.69777966 560.35246277 C46.06457711 467.19740466 36.44899935 373.936816 15.89042664 168.17483521 C15.50970632 164.31215178 15.12865845 160.44950093 14.74726868 156.58688354 C13.65889465 145.56382431 12.57388527 134.54044272 11.49371147 123.51657677 C11.17222273 120.2362027 10.84967917 116.95593615 10.52586555 113.67579079 C6.79266794 75.80384296 3.44550538 37.90055916 0 0 Z " fill="#000000" transform="translate(309,618)"/>
<path d="M0 0 C59.73 0 119.46 0 181 0 C178.70394278 24.10860078 178.70394278 24.10860078 177.51391602 34.13623047 C177.3778938 35.29895635 177.24187159 36.46168222 177.10172749 37.65964222 C176.80824675 40.16591409 176.51374472 42.67206656 176.21828842 45.17810631 C175.73573632 49.27131238 175.25592999 53.36483262 174.77688599 57.45845032 C174.1668758 62.66948388 173.55617002 67.88043496 172.94453764 73.09127837 C170.91943705 90.34487175 168.90832483 107.60009751 166.8984375 124.85546875 C166.79827733 125.71527257 166.69811716 126.57507639 166.59492183 127.46093488 C156.30214788 215.82307126 146.23855881 304.21186287 132.625 428 C132.51959381 428.96271584 132.41418761 429.92543168 132.30558729 430.91732073 C127.74622347 472.56515602 123.23841991 514.2173801 118.9921875 555.8984375 C118.91527443 556.65289941 118.83836137 557.40736132 118.7591176 558.18468571 C117.26453514 572.84734801 115.78030294 587.51096928 114.33023262 602.17810631 C113.84675386 607.05956732 113.35804165 611.94049722 112.86865616 616.82136917 C112.54837834 620.0388669 112.23627987 623.25707687 111.92477417 626.47543335 C110.90451352 636.7927856 109.6401948 647.04622911 108.04492188 657.29150391 C107.89124397 658.29906424 107.73756607 659.30662457 107.57923126 660.34471703 C102.40834438 692.25476992 84.57338779 721.17912018 58.62890625 740.4375 C42.55913979 751.96364089 25.24619422 759.54970538 6 764 C5.25266602 764.17572037 4.50533203 764.35144073 3.73535156 764.53248596 C-4.62319852 766.28022099 -12.89269586 766.25600268 -21.38671875 766.1953125 C-22.94041256 766.19157368 -24.49410876 766.18873082 -26.04780579 766.18673706 C-30.10015589 766.17916894 -34.15235836 766.15958068 -38.20465088 766.1373291 C-42.35451257 766.1167221 -46.50439856 766.10770386 -50.65429688 766.09765625 C-58.76959835 766.07632701 -66.88478071 766.0422755 -75 766 C-75.43396834 754.69355864 -74.11486872 743.56127612 -72.96582031 732.33105469 C-72.74410216 730.12034263 -72.52292459 727.9095763 -72.30223846 725.69876099 C-71.82221891 720.90140705 -71.33845305 716.10445066 -70.85182953 711.30776215 C-70.12775235 704.16964548 -69.41064003 697.0308436 -68.69545272 689.89183131 C-67.56228311 678.5813856 -66.42530486 667.27132699 -65.28544518 655.96155366 C-62.26685519 626.01060489 -59.27068162 596.05741082 -56.27730179 566.10393333 C-55.95600283 562.88888407 -55.63461657 559.67384355 -55.31315231 556.45881081 C-50.35388022 506.85935838 -45.46016257 457.25385174 -40.640625 407.640625 C-40.52880095 406.48952173 -40.52880095 406.48952173 -40.41471782 405.31516385 C-38.47459279 385.34253012 -36.5385458 365.36950169 -34.6039441 345.39633229 C-31.9905023 318.41480968 -29.37368228 291.43361426 -26.7552065 264.45257974 C-26.54341726 262.27024652 -26.33164474 260.08791169 -26.11987376 257.90557671 C-20.72431313 202.30559734 -15.26921552 146.71163329 -9.74393213 91.12437773 C-9.02521484 83.89325617 -8.3079511 76.66199151 -7.59130859 69.43066406 C-6.65796755 60.01408922 -5.7211359 50.59786704 -4.78145409 41.18192291 C-4.44394711 37.79922578 -4.10770014 34.41640731 -3.7726078 31.03347015 C-3.39220674 27.19404166 -3.00900032 23.35490426 -2.62343311 19.51599121 C-2.48534323 18.13642744 -2.34825489 16.75676298 -2.21225834 15.37699127 C-2.0286425 13.51576336 -1.8410095 11.65493304 -1.65315247 9.79412842 C-1.55032865 8.76337566 -1.44750483 7.73262291 -1.34156513 6.67063522 C-1 4 -1 4 0 0 Z " fill="#010101" transform="translate(815,618)"/>
<path d="M0 0 C21.75682281 -0.02332684 43.51364357 -0.04097812 65.27047634 -0.05181217 C75.37180943 -0.05697559 85.47313477 -0.06401915 95.57446289 -0.07543945 C104.37544464 -0.0853849 113.17642078 -0.09185309 121.97740799 -0.09408849 C126.64046267 -0.09539584 131.30350128 -0.09848318 135.96655083 -0.10573006 C140.35032366 -0.11248809 144.73407371 -0.11461741 149.11785126 -0.11310768 C150.73160234 -0.11338411 152.34535413 -0.11539052 153.95910072 -0.11920547 C156.1526889 -0.12413934 158.3461897 -0.12299944 160.53977966 -0.12025452 C161.7703733 -0.12117631 163.00096693 -0.1220981 164.26885128 -0.12304783 C167 0 167 0 168 1 C168.35628199 3.54076946 168.65217985 6.0665 168.91357422 8.61767578 C169.00070238 9.43332378 169.08783054 10.24897179 169.17759895 11.0893364 C169.47407042 13.87424228 169.76425446 16.65977085 170.0546875 19.4453125 C170.26893698 21.46782937 170.48363128 23.49029915 170.69873047 25.51272583 C171.17285057 29.9770349 171.64440611 34.44160536 172.11419678 38.90637207 C173.31421547 50.3047403 174.53128776 61.70129842 175.74594498 73.09811401 C176.11953691 76.60377581 176.4927299 80.10947995 176.86582363 83.6151948 C186.49590414 174.09733201 196.34068452 264.55734057 252.5930481 746.88606262 C253.45083508 753.58537784 254.28339593 760.28393081 255 767 C247.82694511 766.93819122 240.65422964 766.86067267 233.48155117 766.76428509 C230.14922733 766.71997309 226.81713615 766.68217417 223.48461914 766.65356445 C195.03747094 766.40276423 195.03747094 766.40276423 183 763 C182.15767822 762.77610596 181.31535645 762.55221191 180.44750977 762.3215332 C178.29214905 761.71304467 176.18038355 761.03983852 174.0625 760.3125 C173.31726074 760.05903809 172.57202148 759.80557617 171.80419922 759.54443359 C137.20928831 747.34436664 111.38474284 721.96564127 95.28125 689.5390625 C88.1322011 673.89139934 85.24942112 657.10725781 83.01171875 640.171875 C82.75032716 638.26382968 82.48778844 636.35594123 82.22421265 634.44819641 C81.66160572 630.36158531 81.10586527 626.27412531 80.55569458 622.18582153 C79.20289114 612.13772528 77.81323586 602.09467786 76.42854881 592.05093575 C75.94139844 588.5145553 75.45565443 584.9779836 74.970047 581.44139099 C71.78367942 558.26856937 68.43144005 535.12058491 65.06628418 511.97317505 C51.13374454 416.10089689 38.20154481 320.10737631 26 224 C25.84107269 222.74871056 25.68214539 221.49742111 25.5184021 220.20821381 C18.45230878 164.56578901 11.49007984 108.91075817 4.92619324 53.20659637 C4.56610745 50.15556617 4.20411508 47.10476743 3.8416748 44.05401611 C3.28257251 39.34317418 2.72973498 34.63163954 2.18211937 29.91944885 C1.98358967 28.21765652 1.78322196 26.51607737 1.58080482 24.81474304 C1.30558487 22.49705424 1.0377148 20.17862744 0.77172852 17.85986328 C0.62155777 16.57411407 0.47138702 15.28836487 0.31666565 13.96365356 C-0.05623996 9.29605331 -0.06642375 4.67904426 0 0 Z " fill="#010101" transform="translate(15,618)"/>
</svg>
