<?xml version="1.0" standalone="no"?>
<!DOCTYPE svg PUBLIC "-//W3C//DTD SVG 20010904//EN"
 "http://www.w3.org/TR/2001/REC-SVG-20010904/DTD/svg10.dtd">
<svg version="1.0" xmlns="http://www.w3.org/2000/svg"
 width="1536.000000pt" height="1024.000000pt" viewBox="0 0 1536.000000 1024.000000"
 preserveAspectRatio="xMidYMid meet">

<g transform="translate(0.000000,1024.000000) scale(0.100000,-0.100000)"
fill="#000000" stroke="none">
<path d="M9525 9229 c-647 -27 -1228 -268 -1713 -708 -61 -56 -114 -101 -117
-101 -4 0 -50 40 -103 88 -142 130 -208 182 -350 276 -365 243 -818 401 -1256
437 -183 15 -557 7 -696 -16 -947 -151 -1706 -779 -2010 -1662 -67 -194 -107
-372 -131 -582 -15 -138 -7 -547 15 -711 154 -1144 764 -2160 1713 -2855 45
-33 82 -63 83 -67 0 -4 -142 -191 -316 -415 -408 -526 -415 -537 -454 -674
-26 -92 -28 -247 -5 -346 71 -305 348 -513 685 -513 197 0 354 59 487 184 78
72 124 132 612 793 139 189 256 345 261 348 4 3 87 -15 183 -40 480 -124 819
-168 1287 -167 455 0 770 41 1253 163 108 28 201 47 207 44 5 -3 122 -160 261
-348 467 -634 534 -720 614 -795 91 -85 198 -141 319 -167 108 -24 303 -16
396 15 235 80 396 249 457 480 26 98 23 255 -6 350 -46 150 -39 140 -508 743
-145 186 -263 341 -263 345 1 4 38 34 83 67 247 181 655 569 827 788 501 637
781 1288 886 2062 14 100 18 200 18 430 0 266 -2 314 -22 429 -83 479 -259
872 -546 1216 -92 110 -300 307 -426 402 -488 368 -1057 535 -1725 507z
m-3603 -1214 c587 -78 1022 -467 1144 -1025 27 -123 27 -497 0 -620 -44 -204
-124 -392 -243 -570 -152 -229 -903 -1251 -1021 -1389 l-29 -35 -68 49 c-260
185 -522 457 -714 740 -448 660 -644 1464 -491 2015 26 93 94 237 151 321 65
97 231 258 333 324 263 171 588 237 938 190z m3920 4 c292 -31 532 -139 728
-326 194 -186 305 -389 351 -643 23 -124 17 -496 -10 -645 -91 -505 -309 -990
-631 -1404 -136 -176 -367 -401 -566 -552 l-96 -74 -30 35 c-91 108 -742 990
-956 1295 -152 217 -258 443 -308 660 -16 67 -19 121 -19 325 0 237 1 248 27
343 116 415 372 716 745 877 235 101 494 138 765 109z m-1917 -3506 c409 -588
435 -627 427 -634 -25 -23 -428 -59 -661 -59 -217 0 -631 38 -654 59 -4 4 57
99 136 212 79 112 201 287 272 389 187 269 246 350 253 350 4 -1 106 -143 227
-317z"/>
</g>
</svg>
