<?xml version="1.0" encoding="UTF-8"?>
<svg version="1.1" xmlns="http://www.w3.org/2000/svg" width="1152" height="896">
<path d="M0 0 C3.70011828 0.00165493 7.40023119 -0.0025256 11.10034767 -0.00590918 C17.56620024 -0.01102952 24.03204534 -0.01248628 30.49789974 -0.01145306 C40.11277922 -0.00992043 49.72765049 -0.01410665 59.34252837 -0.01932769 C77.51383742 -0.02897025 95.68514364 -0.0318107 113.85645495 -0.03238475 C127.88477499 -0.03284502 141.91309393 -0.03490715 155.94141361 -0.03808537 C159.98526688 -0.03898295 164.02912014 -0.03987276 168.0729734 -0.04076025 C169.07836242 -0.0409813 170.08375143 -0.04120235 171.11960678 -0.04143009 C199.37334061 -0.04757863 227.62707404 -0.05153119 255.88080856 -0.05108681 C256.94473595 -0.05107124 258.00866334 -0.05105566 259.10483095 -0.05103961 C264.4968354 -0.0509565 269.88883986 -0.05085746 275.28084431 -0.0507549 C276.35165678 -0.05073495 277.42246925 -0.05071501 278.52573059 -0.05069446 C280.6911656 -0.05065402 282.85660061 -0.05061222 285.02203563 -0.05056907 C318.74599562 -0.04995571 352.46994558 -0.05747633 386.1939027 -0.07114163 C424.1070773 -0.08649823 462.02024529 -0.09510824 499.93342319 -0.09417841 C503.97444726 -0.09410378 508.01547133 -0.09405507 512.0564954 -0.09402409 C513.05145839 -0.09401244 514.04642137 -0.09400078 515.07153475 -0.09398878 C531.08371276 -0.093958 547.09588203 -0.10034374 563.10805744 -0.10895636 C579.18974943 -0.11742774 595.27142864 -0.11842669 611.35312162 -0.11184704 C620.90682252 -0.10814902 630.46048462 -0.1099914 640.01418142 -0.11978938 C646.39574154 -0.12578155 652.77727352 -0.12450243 659.15883234 -0.11731888 C662.79433522 -0.11343118 666.42976294 -0.11267961 670.06526057 -0.12077623 C673.98467119 -0.12942873 677.9039689 -0.12255731 681.82338211 -0.11422005 C682.94710542 -0.11918823 684.07082873 -0.12415641 685.22860426 -0.12927514 C698.40390433 -0.06991809 709.949987 2.34381165 720.70928356 10.38466892 C734.97433466 24.98146538 735.81162559 39.5710438 735.60772106 58.87685642 C734.69846057 116.97107331 709.50141032 174.11541871 670.63506481 216.67373142 C669.15694311 218.29889141 667.69551095 219.93940798 666.25225231 221.59560642 C641.20281672 250.21063734 604.36569523 274.71029294 568.39678356 287.13466892 C567.73678356 287.13466892 567.07678356 287.13466892 566.39678356 287.13466892 C566.34070934 289.0566611 566.34070934 289.0566611 566.28350231 291.01748142 C565.58241301 310.88296247 563.19873052 326.69730193 548.39678356 341.13466892 C540.07214465 348.87221757 529.41960813 354.25398961 517.9519746 354.26609668 C516.96149448 354.26917563 516.96149448 354.26917563 515.95100466 354.27231678 C513.72270739 354.27800299 511.49447161 354.27652754 509.26616833 354.27511081 C507.65862111 354.27769354 506.05107454 354.28070644 504.44352886 354.28411421 C500.01352509 354.29219869 495.58353751 354.29397459 491.15352723 354.29471168 C486.38031441 354.29655978 481.60711004 354.30410601 476.83390209 354.31084689 C466.38946053 354.32444226 455.94502279 354.33045715 445.50057385 354.33485755 C438.97948537 354.33761863 432.45839838 354.34185581 425.93731091 354.34636173 C407.88491317 354.35855727 389.83251663 354.36885517 371.78011486 354.37223682 C370.62415141 354.37245638 369.46818796 354.37267595 368.27719531 354.37290217 C367.118445 354.37312045 365.95969469 354.37333872 364.76583073 354.37356362 C362.41771735 354.37400708 360.06960397 354.37445365 357.72149059 354.37490329 C356.55674214 354.37512472 355.39199368 354.37534615 354.19194982 354.37557429 C335.32699643 354.37952064 316.46208172 354.39696843 297.59714327 354.42026281 C278.23197112 354.4439819 258.86681837 354.45643897 239.50163147 354.45760474 C228.62764099 354.45852132 217.75370085 354.46426929 206.87972424 354.48242435 C197.61792124 354.49783302 188.35618413 354.50294135 179.09437076 354.49468624 C174.37001587 354.49078212 169.64579364 354.49169769 164.92145512 354.50574359 C160.59216574 354.51849699 156.2631085 354.51727235 151.93381939 354.50515288 C150.37181029 354.50319834 148.80978467 354.50626303 147.24779877 354.51499724 C130.68454467 354.60171274 116.98503971 351.30968183 104.72100231 339.64248142 C96.14064969 330.38435304 91.93036516 319.70001943 90.83037731 307.25185642 C90.24433661 296.70351663 90.24433661 296.70351663 85.96074841 287.41494235 C82.28395311 284.6428972 78.07994598 283.2748269 73.72344372 281.9110361 C69.6686656 280.55802515 65.8689243 278.67221193 62.02178356 276.82216892 C60.83214001 276.26432712 60.83214001 276.26432712 59.61846325 275.69521579 C25.50919933 259.48951937 -7.08105031 232.24891322 -29.37225941 201.81435642 C-30.60107351 200.13759302 -31.85266152 198.47979739 -33.10712269 196.82216892 C-65.37760101 153.57645177 -87.52999622 89.28784591 -80.31903675 34.99502048 C-77.79276313 22.14692113 -70.27237546 12.33590892 -59.60321644 5.13466892 C-44.02798552 -4.1505649 -17.47303717 -0.01309937 0 0 Z " fill="#000000" transform="translate(242.60321643669158,497.86533108446747)"/>
<path d="M0 0 C1.04414062 0.56460938 2.08828125 1.12921875 3.1640625 1.7109375 C15.41977857 8.59871461 26.45431063 16.82644674 36.54101562 26.59667969 C37.98227345 27.98294977 39.4520056 29.33941693 40.921875 30.6953125 C47.20571171 36.5973333 52.49907925 43.00623181 57.625 49.9375 C58.22940918 50.75476563 58.83381836 51.57203125 59.45654297 52.4140625 C62.19251416 56.20076555 64.37763289 59.59072392 66 64 C66.78125244 63.79318604 67.56250488 63.58637207 68.36743164 63.37329102 C71.93139412 62.43229077 75.49691817 61.4973447 79.0625 60.5625 C80.29162109 60.23701172 81.52074219 59.91152344 82.78710938 59.57617188 C83.98271484 59.26357422 85.17832031 58.95097656 86.41015625 58.62890625 C87.50465088 58.34088135 88.59914551 58.05285645 89.72680664 57.75610352 C98.50392425 55.72860048 107.2362 55.75709619 116.1875 55.75 C117.32940796 55.74898788 117.32940796 55.74898788 118.49438477 55.74795532 C130.55326806 55.7649276 142.19764533 56.32458895 154 59 C154.75055664 59.16628906 155.50111328 59.33257812 156.27441406 59.50390625 C185.31993886 66.17535814 210.59422742 82.49247088 231 104 C231.33 104.66 231.66 105.32 232 106 C231.01008057 106.06993164 230.02016113 106.13986328 229.00024414 106.21191406 C192.2987605 108.83993879 157.66640766 113.10061404 124 129 C123.26958496 129.3417627 122.53916992 129.68352539 121.78662109 130.03564453 C88.06733571 145.94331385 58.04798537 169.8153615 36 200 C35.14193848 201.15105017 34.28386549 202.30209177 33.42578125 203.453125 C0.48577937 248.11391657 -15.14476288 303.69713405 -9 359 C-25.17 359 -41.34 359 -58 359 C-58.87297066 336.97788339 -59.13649621 315.01919041 -59.13809967 292.98368073 C-59.13926445 287.13124411 -59.15226789 281.27886707 -59.16766357 275.42645264 C-59.17023643 274.4288993 -59.17280928 273.43134596 -59.1754601 272.40356374 C-59.1807229 270.36869806 -59.18600838 268.33383244 -59.19131613 266.29896688 C-59.22618032 252.72713134 -59.25295814 239.15538057 -59.25048828 225.58349609 C-59.24889825 216.34812785 -59.26493947 207.11297348 -59.30119491 197.87767386 C-59.31957512 193.01514348 -59.32906366 188.15297033 -59.31671906 183.2904129 C-59.30525862 178.73607658 -59.31704092 174.18238456 -59.34635353 169.62813377 C-59.35296865 167.96493632 -59.35117115 166.30167939 -59.34005547 164.63850594 C-59.27518502 154.05128647 -60.12460519 145.77984085 -67.2109375 137.37890625 C-67.92507813 136.77949219 -68.63921875 136.18007812 -69.375 135.5625 C-70.08398438 134.94503906 -70.79296875 134.32757813 -71.5234375 133.69140625 C-77.48077523 129.6227513 -82.77321488 128.44032608 -89.8125 128.5 C-90.60567627 128.50644531 -91.39885254 128.51289063 -92.21606445 128.51953125 C-100.96556828 128.79174998 -106.8489809 131.40748598 -112.875 137.8125 C-114.51283369 139.67106873 -114.51283369 139.67106873 -116 142 C-116.68145584 143.01887299 -117.36291168 144.03774597 -118.0650177 145.0874939 C-121.36323949 151.82503193 -120.56169395 159.62878835 -120.5300293 166.95556641 C-120.53713465 168.68145526 -120.54600136 170.40733761 -120.55648804 172.13320923 C-120.5800629 176.81236464 -120.5793673 181.49124072 -120.57457328 186.17044115 C-120.57397705 191.09987639 -120.59672604 196.02920263 -120.61714172 200.95858765 C-120.65256277 210.32198564 -120.6685643 219.68530626 -120.6769169 229.04876363 C-120.6897889 242.68211727 -120.72858148 256.31540035 -120.77101612 269.94869041 C-120.77415481 270.95970743 -120.77729349 271.97072444 -120.78052729 273.01237833 C-120.78681478 275.03384437 -120.79315856 277.05531023 -120.79955989 279.07677591 C-120.81733781 284.90674602 -120.82853384 290.73667992 -120.83397633 296.56667411 C-120.85563907 317.73235053 -121.09805671 338.85138145 -122 360 C-129.04962877 354.23947169 -135.36987336 347.75592141 -141.78491211 341.31274414 C-143.07321719 340.02251761 -144.36175182 338.73252026 -145.65049744 337.44273376 C-148.41558767 334.67449296 -151.17911902 331.9047087 -153.94145012 329.13371468 C-158.31428758 324.74730524 -162.69098095 320.36475675 -167.06825256 315.98277283 C-177.15022227 305.8887809 -187.22717098 295.7897813 -197.30406952 285.69072723 C-206.54052288 276.43406718 -215.77804557 267.17848095 -225.01963431 257.92694753 C-229.36586813 253.57574749 -233.70965548 249.22212453 -238.05155361 244.86659825 C-240.75885263 242.15181028 -243.46824846 239.43912229 -246.17820168 236.72698402 C-247.4286959 235.47462671 -248.6783299 234.22140973 -249.92700958 232.96724319 C-256.10377508 226.76420582 -262.2774502 220.62002441 -269 215 C-269.92167969 214.22011719 -270.84335937 213.44023437 -271.79296875 212.63671875 C-272.58316406 211.99347656 -273.37335938 211.35023438 -274.1875 210.6875 C-274.98542969 210.03136719 -275.78335938 209.37523437 -276.60546875 208.69921875 C-282.98640043 204.17115141 -289.41552252 204.3096975 -297 205 C-305.37497583 206.87694494 -312.69208954 211.95589344 -317.4140625 219.15625 C-320.28119274 224.68424213 -321.18304397 229.5088566 -321.3125 235.75 C-321.34988281 236.92046875 -321.38726562 238.0909375 -321.42578125 239.296875 C-320.61266019 246.36879027 -316.72513068 251.8956814 -312.08105469 257.16113281 C-311.57190899 257.74575916 -311.06276329 258.33038551 -310.53818893 258.93272781 C-302.50747781 267.98669701 -293.79794077 276.41641773 -285.20579624 284.9311285 C-282.65509356 287.46158958 -280.11110671 289.99878335 -277.56658936 292.53546143 C-271.13372346 298.94634549 -264.69226807 305.34856641 -258.25 311.75 C-251.25005893 318.70577863 -244.25172102 325.66313357 -237.26298785 332.63017583 C-234.24007846 335.64312196 -231.21236363 338.65112863 -228.18086863 341.65543509 C-225.86831112 343.94964689 -223.56211871 346.25024299 -221.25488281 348.54980469 C-220.41346741 349.38088745 -219.572052 350.21197021 -218.70513916 351.0682373 C-217.94837891 351.82485657 -217.19161865 352.58147583 -216.41192627 353.36102295 C-215.74907246 354.01943554 -215.08621864 354.67784813 -214.40327835 355.35621262 C-213 357 -213 357 -213 359 C-225.80601625 359.09333592 -238.61194947 359.16408406 -251.41823864 359.20724869 C-257.36692138 359.22798216 -263.3153687 359.25603461 -269.26391602 359.30175781 C-275.02169874 359.34572969 -280.77925732 359.36924365 -286.53719521 359.37950897 C-288.71645948 359.38680938 -290.89571373 359.40106012 -293.0748806 359.42292023 C-327.47287718 359.75375419 -361.23671556 350.46931349 -388 328 C-389.16004562 327.05324985 -390.3202082 326.10664299 -391.48046875 325.16015625 C-421.06180284 300.72029245 -441.29541439 264.58800599 -445.40625 226.20703125 C-445.68506874 222.47008562 -445.87210163 218.74502408 -446 215 C-446.04125 213.90558594 -446.0825 212.81117188 -446.125 211.68359375 C-446.92303603 169.43756123 -431.69243858 130.55103775 -402.42602539 100.09155273 C-381.44741417 78.69841355 -355.29809062 64.46130587 -326 58 C-325.07058594 57.78730469 -324.14117187 57.57460937 -323.18359375 57.35546875 C-296.22522307 52.02515079 -267.8117899 55.1448604 -242 64 C-241.75121094 63.28972656 -241.50242187 62.57945313 -241.24609375 61.84765625 C-236.77934884 51.63995392 -227.62517003 42.96970485 -220 35 C-219.12472656 34.071875 -218.24945313 33.14375 -217.34765625 32.1875 C-161.35479701 -25.69645434 -70.3691556 -38.49353364 0 0 Z " fill="#020202" transform="translate(608,61)"/>
<path d="M0 0 C28.70921854 25.83829669 50.72872813 61.12553785 52.8125 100.53125 C53.13460412 110.63548573 53.10706565 120.75145647 53.015625 130.859375 C53.01121902 131.61877884 53.00681305 132.37818268 53.00227356 133.16059875 C52.93070984 138.41304016 52.93070984 138.41304016 51.8125 139.53125 C50.21216287 139.62830965 48.60751859 139.65496614 47.00424099 139.65429783 C45.95723127 139.65628888 44.91022155 139.65827993 43.83148426 139.66033131 C42.66711261 139.65741847 41.50274096 139.65450563 40.30308533 139.65150452 C38.46420513 139.65278615 38.46420513 139.65278615 36.58817583 139.65409368 C33.16994192 139.65546192 29.75176456 139.65231425 26.33353746 139.64731562 C22.65322071 139.64301458 18.97290584 139.6444573 15.29258728 139.6452179 C8.91105163 139.64574335 2.52952617 139.6425943 -3.85200691 139.63698006 C-13.07873846 139.62886797 -22.30546506 139.62625014 -31.53219979 139.62499207 C-46.50039185 139.62280109 -61.46857847 139.61613976 -76.43676758 139.60668945 C-90.98071261 139.59751652 -105.52465617 139.59043511 -120.06860352 139.58618164 C-120.96443947 139.58591892 -121.86027542 139.58565619 -122.78325791 139.58538551 C-127.27720864 139.58408051 -131.77115938 139.58281679 -136.26511014 139.58157361 C-173.57257726 139.57119956 -210.88003821 139.55358 -248.1875 139.53125 C-250.01165008 135.28146354 -250.44471988 132.07230762 -250.453125 127.421875 C-250.45603546 126.74241821 -250.45894592 126.06296143 -250.46194458 125.36291504 C-250.46641637 123.16879732 -250.45392883 120.97530527 -250.4375 118.78125 C-250.43373352 118.03282837 -250.42996704 117.28440674 -250.42608643 116.51330566 C-250.20324053 78.9441089 -239.17572637 44.16944202 -214.1875 15.53125 C-213.58164062 14.80421875 -212.97578125 14.0771875 -212.3515625 13.328125 C-208.33741296 8.56926899 -203.98068539 4.49501351 -199.1875 0.53125 C-198.44886719 -0.09523438 -197.71023438 -0.72171875 -196.94921875 -1.3671875 C-140.39508488 -48.20252586 -55.87946126 -47.2314494 0 0 Z " fill="#010101" transform="translate(924.1875,280.46875)"/>
<path d="M0 0 C0.66 0.33 1.32 0.66 2 1 C-3.28 6.28 -8.56 11.56 -14 17 C-14.66 16.67 -15.32 16.34 -16 16 C-12.21309138 11.36103694 -8.30424428 7.3506875 -3.734375 3.48046875 C-1.91019463 1.96268408 -1.91019463 1.96268408 0 0 Z " fill="#3D3F3F" transform="translate(727,279)"/>
<path d="M0 0 C0.66 0.33 1.32 0.66 2 1 C-1.3 4.3 -4.6 7.6 -8 11 C-8.66 10.67 -9.32 10.34 -10 10 C-6.92118304 6.12948725 -3.99926986 2.97088618 0 0 Z " fill="#404342" transform="translate(180,505)"/>
<path d="M0 0 C5.875 0.875 5.875 0.875 7 2 C7.04092937 4.33297433 7.04241723 6.66705225 7 9 C6.67 9 6.34 9 6 9 C5.62875 7.6078125 5.62875 7.6078125 5.25 6.1875 C3.93545755 2.83541675 3.02036616 1.8122197 0 0 Z " fill="#A0A19E" transform="translate(325,783)"/>
</svg>
