<?xml version="1.0" standalone="no"?>
<!DOCTYPE svg PUBLIC "-//W3C//DTD SVG 20010904//EN"
 "http://www.w3.org/TR/2001/REC-SVG-20010904/DTD/svg10.dtd">
<svg version="1.0" xmlns="http://www.w3.org/2000/svg"
 width="1536.000000pt" height="1024.000000pt" viewBox="0 0 1536.000000 1024.000000"
 preserveAspectRatio="xMidYMid meet">

<g transform="translate(0.000000,1024.000000) scale(0.100000,-0.100000)"
fill="#000000" stroke="none">
<path d="M3128 8603 c-2 -5 -2 -443 0 -976 l2 -967 4548 2 4547 3 3 973 2 972
-4549 0 c-2503 0 -4551 -3 -4553 -7z"/>
<path d="M5475 6153 c-26 -6 -626 -150 -885 -213 -410 -99 -751 -180 -1040
-245 -162 -37 -329 -76 -371 -87 l-77 -20 18 -66 c10 -37 73 -274 140 -527 67
-253 123 -462 126 -464 4 -4 690 170 1637 415 l488 127 1084 -272 1084 -271
988 249 c543 137 1031 259 1083 271 l95 22 630 -162 c1190 -307 1488 -381
1495 -373 9 10 282 1044 277 1049 -2 3 -136 36 -298 74 -162 39 -636 151
-1054 251 -418 99 -826 196 -907 215 l-148 35 -392 -96 c-216 -53 -703 -174
-1082 -269 l-689 -173 -871 218 c-764 190 -1226 302 -1291 313 -11 2 -29 1
-40 -1z"/>
<path d="M3126 3818 c-3 -29 -5 -470 -4 -980 l1 -928 4554 0 4553 0 0 980 0
980 -1049 0 -1049 0 -822 -405 c-453 -223 -826 -405 -830 -405 -4 0 -222 102
-486 226 -263 124 -651 307 -861 405 l-382 179 -1809 0 -1810 0 -6 -52z"/>
</g>
</svg>
