<?xml version="1.0" encoding="UTF-8"?>
<svg version="1.1" xmlns="http://www.w3.org/2000/svg" width="1056" height="992">
<path d="M0 0 C214.5 0 429 0 650 0 C649 33 649 33 648 39 C668.13 39 688.26 39 709 39 C709 65.4 709 91.8 709 119 C704.23747792 119.6803603 700.23183742 120.12317349 695.51391602 120.11352539 C694.27315811 120.11344986 693.03240021 120.11337433 691.75404358 120.11329651 C690.42066405 120.10819154 689.08728494 120.10297557 687.75390625 120.09765625 C686.37385611 120.09578847 684.99380531 120.09436627 683.61375427 120.09336853 C680.00198498 120.08957168 676.39025665 120.07976594 672.77850342 120.06866455 C669.08476312 120.05838918 665.39101613 120.05385785 661.69726562 120.04882812 C654.46482519 120.03814082 647.23241836 120.02109888 640 120 C639.75403076 121.09014404 639.50806152 122.18028809 639.25463867 123.3034668 C637.28290172 131.93245294 635.15725489 140.42153317 632.3125 148.8125 C631.79876831 150.33387573 631.79876831 150.33387573 631.2746582 151.88598633 C627.81198258 161.90119401 623.65086081 171.48533379 619 181 C618.59974609 181.83031738 618.19949219 182.66063477 617.78710938 183.51611328 C599.89889785 220.29962856 572.05494518 256.45380755 539 281 C538.37899414 281.47034668 537.75798828 281.94069336 537.11816406 282.42529297 C523.1861218 292.95121593 508.62259469 302.18870266 493 310 C492.67 326.17 492.34 342.34 492 359 C382.11 359 272.22 359 159 359 C158.67 342.83 158.34 326.66 158 310 C151.4 306.37 144.8 302.74 138 299 C123.60063849 289.86869758 109.79740203 279.86217137 97.33984375 268.19140625 C95.27044974 266.25329266 93.1585438 264.39965096 91 262.5625 C83.02679515 255.60021274 75.81643844 248.07499342 69.234375 239.7890625 C67.73839842 237.92170712 66.20628822 236.08276354 64.640625 234.2734375 C53.25848809 221.11510725 44.13212841 206.3423339 36 191 C35.6601709 190.36416992 35.3203418 189.72833984 34.97021484 189.07324219 C27.6110437 175.19956803 21.82294711 160.66359371 16.75 145.8125 C16.52812012 145.17393066 16.30624023 144.53536133 16.07763672 143.87744141 C13.49724684 136.07478816 11.82749508 128.00417624 10 120 C9.21152679 120.00222061 8.42305359 120.00444122 7.61068726 120.00672913 C0.16618766 120.02679796 -7.27829875 120.04200772 -14.72281837 120.05181217 C-18.54976179 120.05702223 -22.37668277 120.0640857 -26.20361328 120.07543945 C-29.89944045 120.08633515 -33.5952461 120.09229097 -37.2910881 120.09487724 C-38.69842238 120.09671947 -40.10575553 120.10031683 -41.5130806 120.10573006 C-43.48999118 120.11302913 -45.4669236 120.11340881 -47.44384766 120.11352539 C-48.56747711 120.115746 -49.69110657 120.11796661 -50.8487854 120.12025452 C-54 120 -54 120 -60 119 C-60 92.6 -60 66.2 -60 39 C-39.54 39 -19.08 39 2 39 C1.505 35.04 1.505 35.04 1 31 C0.67 20.77 0.34 10.54 0 0 Z " fill="#262726" transform="translate(202,473)"/>
<path d="M0 0 C0.97517578 0.27908203 1.95035156 0.55816406 2.95507812 0.84570312 C15.95962967 4.67631212 28.14813153 9.43539072 40 16 C41.20918503 16.64407544 42.41881949 17.28730784 43.62890625 17.9296875 C56.05085684 24.64512468 66.77512653 33.30027108 77 43 C77.7420166 43.69319336 77.7420166 43.69319336 78.49902344 44.40039062 C105.06032087 69.34349209 125.34978864 105.4978864 129 142 C15.81 142 -97.38 142 -214 142 C-211.05289036 112.52890363 -197.69696294 83.84496465 -179 61 C-178.56107422 60.45569336 -178.12214844 59.91138672 -177.66992188 59.35058594 C-154.89558627 31.23901035 -123.95310181 10.70576868 -89 1 C-88.20239258 0.77006348 -87.40478516 0.54012695 -86.58300781 0.30322266 C-59.96772193 -7.06110429 -26.60578132 -7.6861146 0 0 Z " fill="#282928" transform="translate(679,304)"/>
<path d="M0 0 C0.01213028 0.82779716 0.01213028 0.82779716 0.02450562 1.6723175 C0.11118859 7.46478637 0.21071206 13.25693777 0.31738281 19.04907227 C0.3554456 21.2049421 0.39033616 23.36087055 0.421875 25.5168457 C0.46802269 28.63253601 0.52593047 31.74783059 0.5859375 34.86328125 C0.59748871 35.81270096 0.60903992 36.76212067 0.62094116 37.74031067 C0.97782396 54.2668059 5.69559316 67.06824892 16 80 C16.70253906 80.89460938 17.40507812 81.78921875 18.12890625 82.7109375 C22.03317984 87.58604119 26.11545697 92.24703955 30.375 96.8125 C48.23955672 116.0762957 63.79864694 138.09364662 63.23828125 165.43359375 C62.13139803 182.00055084 54.69348157 197.38685094 42.54003906 208.66699219 C27.13626374 222 27.13626374 222 20 222 C19.98160568 221.40024353 19.96321136 220.80048706 19.94425964 220.18255615 C19.74858979 213.88674194 19.5345571 207.59173442 19.31030273 201.296875 C19.22918348 198.9539315 19.15259962 196.61082607 19.08081055 194.26757812 C18.97624117 190.88097276 18.85485827 187.49530364 18.73046875 184.109375 C18.70220505 183.07762146 18.67394135 182.04586792 18.64482117 180.98284912 C17.76342556 158.84261946 6.63474062 144.15159435 -7.90649414 128.48461914 C-11.7395597 124.33878725 -15.35034384 120.04287628 -18.8828125 115.63671875 C-20.25063026 113.93325568 -21.64003419 112.24680387 -23.0546875 110.58203125 C-38.6233459 92.0147402 -44.59592449 72.03224591 -43 48 C-42.33546168 43.40771205 -40.85279883 39.24548606 -39 35 C-38.67257812 34.14921875 -38.34515625 33.2984375 -38.0078125 32.421875 C-32.63828388 19.95829763 -14.5548257 0 0 0 Z " fill="#2C2D2C" transform="translate(388,176)"/>
<path d="M0 0 C0.01213028 0.83112808 0.01213028 0.83112808 0.02450562 1.67904663 C0.11109593 7.48758462 0.21061762 13.29580249 0.31738281 19.10400391 C0.35547794 21.26670929 0.39036341 23.42947383 0.421875 25.59228516 C0.46795114 28.71538325 0.52587235 31.83808077 0.5859375 34.9609375 C0.59748871 35.91551849 0.60903992 36.87009949 0.62094116 37.85360718 C1.11270509 60.62803452 13.25990933 75.86904214 27.76049805 92.4543457 C47.44981161 115.00432821 61.46725013 136.20455173 60.22216797 167.25927734 C58.92211344 183.2970929 49.11821662 196.253191 37.56835938 206.67675781 C33.69586241 209.94402642 29.43031153 212.56624334 25 215 C24.29875 215.38929688 23.5975 215.77859375 22.875 216.1796875 C21 217 21 217 18 217 C17.38397506 209.10822105 16.93103652 201.25105698 16.82421875 193.3359375 C16.81230499 192.60288391 16.80039124 191.86983032 16.78811646 191.11456299 C16.73965101 188.11314063 16.69187068 185.11213499 16.67407227 182.11035156 C16.50702228 158.33271291 7.03563517 142.66522144 -8.85766602 125.53149414 C-30.24180406 102.39461851 -44.27732095 80.80040597 -43.17480469 48.62548828 C-42.79915667 42.98342298 -41.32591257 38.11980155 -39 33 C-38.56042969 32.02417969 -38.12085938 31.04835937 -37.66796875 30.04296875 C-32.3304624 19.73279825 -13.66739272 -4.31127736 0 0 Z " fill="#2C2D2C" transform="translate(291,203)"/>
<path d="M0 0 C0.99 0.33 1.98 0.66 3 1 C2.67 4.96 2.34 8.92 2 13 C1.67 13 1.34 13 1 13 C0.67 8.71 0.34 4.42 0 0 Z " fill="#5E5E60" transform="translate(202,473)"/>
<path d="M0 0 C2.475 0.495 2.475 0.495 5 1 C5.66 3.31 6.32 5.62 7 8 C4.35247996 5.42215154 2.05567935 3.08351902 0 0 Z " fill="#7D7E7D" transform="translate(380,303)"/>
</svg>
