<?xml version="1.0" standalone="no"?>
<!DOCTYPE svg PUBLIC "-//W3C//DTD SVG 20010904//EN"
 "http://www.w3.org/TR/2001/REC-SVG-20010904/DTD/svg10.dtd">
<svg version="1.0" xmlns="http://www.w3.org/2000/svg"
 width="1536.000000pt" height="1024.000000pt" viewBox="0 0 1536.000000 1024.000000"
 preserveAspectRatio="xMidYMid meet">

<g transform="translate(0.000000,1024.000000) scale(0.100000,-0.100000)"
fill="#000000" stroke="none">
<path d="M9110 9079 c-604 -67 -1120 -305 -1503 -692 -142 -144 -215 -236
-352 -442 -146 -220 -210 -332 -548 -965 -154 -289 -304 -563 -333 -610 -100
-162 -228 -276 -377 -339 -117 -48 -245 -69 -497 -80 -262 -12 -384 -28 -569
-77 -396 -103 -733 -292 -1024 -573 -433 -419 -657 -952 -657 -1567 0 -509
186 -1045 500 -1438 431 -541 1055 -853 1810 -906 183 -12 3693 -13 3910 0
420 24 788 115 1115 274 275 133 457 261 673 471 231 224 397 451 533 730 147
302 234 609 286 1010 17 129 18 242 18 1455 0 1211 -1 1326 -18 1455 -103 797
-508 1460 -1145 1879 -155 101 -224 139 -384 209 -212 94 -411 151 -651 188
-152 24 -638 35 -787 18z m593 -874 c712 -93 1252 -591 1443 -1330 67 -262 67
-250 71 -1390 5 -1048 1 -1209 -33 -1410 -63 -373 -218 -718 -446 -990 -347
-416 -786 -657 -1334 -732 -120 -17 -255 -18 -1899 -18 -1921 0 -1895 -1
-2120 55 -313 78 -516 190 -725 399 -173 174 -268 321 -334 521 -216 654 115
1338 776 1604 98 39 256 81 364 96 39 5 160 14 269 20 382 20 554 60 807 187
248 126 508 375 657 632 21 36 172 332 334 656 474 945 541 1054 783 1284 346
328 868 484 1387 416z"/>
<path d="M9290 7665 c-350 -49 -628 -223 -815 -510 -29 -44 -179 -334 -335
-645 -292 -584 -423 -837 -510 -983 -250 -425 -642 -730 -1148 -897 -245 -80
-434 -112 -827 -140 -82 -6 -188 -20 -235 -31 -275 -68 -484 -253 -577 -509
-22 -64 -27 -96 -31 -211 -4 -115 -1 -149 17 -220 52 -210 186 -385 387 -508
67 -41 168 -78 284 -104 l95 -22 1880 0 c1772 0 1885 1 1975 18 445 85 822
371 1034 787 103 200 158 408 175 655 13 188 13 1874 1 2082 -25 419 -138 700
-376 938 -245 245 -606 354 -994 300z m409 -1010 c149 -36 298 -156 364 -295
173 -367 -53 -755 -455 -777 -182 -11 -322 39 -439 156 -115 115 -167 259
-156 429 15 236 171 426 397 486 72 19 209 19 289 1z"/>
</g>
</svg>
