<?xml version="1.0" standalone="no"?>
<!DOCTYPE svg PUBLIC "-//W3C//DTD SVG 20010904//EN"
 "http://www.w3.org/TR/2001/REC-SVG-20010904/DTD/svg10.dtd">
<svg version="1.0" xmlns="http://www.w3.org/2000/svg"
 width="1536.000000pt" height="1024.000000pt" viewBox="0 0 1536.000000 1024.000000"
 preserveAspectRatio="xMidYMid meet">

<g transform="translate(0.000000,1024.000000) scale(0.100000,-0.100000)"
fill="#000000" stroke="none">
<path d="M7376 8460 l-319 -5 -228 -385 c-125 -212 -285 -482 -355 -600 -70
-118 -160 -269 -199 -335 -40 -66 -108 -181 -152 -255 -44 -74 -194 -326 -333
-560 -139 -234 -338 -569 -443 -745 -399 -671 -472 -794 -563 -942 -51 -84
-91 -153 -88 -153 4 0 437 148 1179 403 1025 352 1015 349 1027 371 15 30 195
337 393 671 95 160 243 412 330 560 87 149 183 311 213 360 30 50 94 158 142
240 48 83 167 285 265 450 97 165 236 399 308 520 71 121 149 252 173 291 24
39 44 75 44 81 0 13 -185 20 -685 28 -187 3 -351 7 -365 8 -14 2 -169 0 -344
-3z"/>
<path d="M6260 8443 c-14 -2 -74 -10 -135 -19 -264 -36 -559 -108 -805 -197
-894 -324 -1724 -1047 -2210 -1927 -218 -395 -352 -782 -481 -1390 -57 -270
-42 -427 55 -574 105 -157 279 -244 512 -253 173 -8 276 8 529 83 l120 36 41
71 c22 40 121 207 219 372 98 165 250 422 338 570 88 149 215 362 282 475 206
346 493 831 670 1130 92 157 184 312 205 345 32 52 100 167 215 365 17 30 98
168 180 305 82 138 197 332 256 433 l108 182 -37 -1 c-20 -1 -48 -3 -62 -6z"/>
<path d="M9415 8337 c-13 -21 -406 -683 -980 -1652 -375 -633 -646 -1089 -722
-1218 -36 -60 -63 -110 -61 -112 2 -2 62 -8 133 -14 72 -7 159 -17 195 -22 75
-12 551 -135 855 -220 115 -32 216 -59 225 -59 8 0 38 39 70 93 30 50 102 173
160 272 59 99 160 270 225 380 65 110 175 297 245 415 70 118 174 294 230 390
57 96 140 238 185 315 568 966 557 947 538 960 -37 27 -292 158 -403 207 -261
114 -584 220 -863 282 -10 3 -23 -5 -32 -17z"/>
<path d="M11108 7313 c-64 -109 -198 -337 -298 -508 -101 -170 -217 -368 -260
-440 -43 -71 -136 -229 -207 -350 -72 -121 -219 -371 -328 -555 -288 -488
-289 -490 -324 -552 l-32 -57 48 -14 c26 -8 170 -54 318 -102 530 -172 1188
-382 1590 -509 430 -135 547 -155 710 -121 172 36 308 142 386 299 43 88 43
89 47 215 4 107 0 146 -23 261 -156 786 -396 1361 -794 1900 -141 191 -357
429 -516 569 -107 94 -189 161 -197 161 -2 0 -56 -89 -120 -197z"/>
<path d="M7395 4710 c-126 -43 -1033 -347 -2015 -675 -982 -329 -1939 -649
-2127 -712 l-343 -115 0 -48 c0 -71 35 -263 64 -352 86 -261 266 -503 482
-648 172 -115 319 -174 503 -201 119 -17 373 -7 478 20 184 46 354 134 497
257 l84 72 43 -45 c49 -50 193 -150 278 -193 83 -41 223 -86 330 -104 122 -21
342 -21 452 -1 233 43 453 151 613 299 l49 46 56 -53 c142 -134 314 -223 536
-278 116 -29 375 -37 510 -15 227 38 493 165 624 300 l44 45 70 -61 c236 -203
498 -298 823 -298 322 0 609 106 835 309 l56 50 24 -26 c47 -51 170 -143 251
-187 184 -99 321 -135 548 -143 143 -5 180 -3 278 16 180 35 305 86 457 186
316 210 539 611 548 989 l2 79 -130 43 c-71 23 -420 138 -775 254 -717 235
-1242 408 -2075 683 -844 279 -1801 587 -1822 586 -10 0 -121 -36 -248 -79z"/>
</g>
</svg>
