<?xml version="1.0" encoding="UTF-8"?>
<svg version="1.1" xmlns="http://www.w3.org/2000/svg" width="1152" height="896">
<path d="M0 0 C380.16 0 760.32 0 1152 0 C1152 295.68 1152 591.36 1152 896 C771.84 896 391.68 896 0 896 C0 600.32 0 304.64 0 0 Z " fill="#FDFDFD" transform="translate(0,0)"/>
<path d="M0 0 C3.88764564 -0.00217673 7.77500232 -0.02035837 11.66259766 -0.03930664 C31.25027357 -0.08310201 50.60798295 0.78269657 69.92431641 4.18530273 C72.19500529 4.5611764 74.4658356 4.93619685 76.73681641 5.31030273 C78.46612433 5.60113072 80.19534712 5.8924683 81.92431641 6.18530273 C81.92431641 6.84530273 81.92431641 7.50530273 81.92431641 8.18530273 C83.00326172 8.13631836 84.08220703 8.08733398 85.19384766 8.03686523 C90.83024194 8.03934768 96.13950053 9.31388914 101.61181641 10.56030273 C102.63082031 10.78202148 103.64982422 11.00374023 104.69970703 11.23217773 C109.30628111 12.25653037 113.5479555 13.41118619 117.92431641 15.18530273 C120.62976364 15.84368356 123.33016078 16.46630803 126.04931641 17.06030273 C132.8995925 18.61621986 139.40244853 20.54574361 145.92431641 23.18530273 C146.77380859 23.5269043 147.62330078 23.86850586 148.49853516 24.22045898 C150.1777552 24.89677579 151.85616471 25.57510912 153.53369141 26.25561523 C155.77112997 27.12573023 158.01350351 27.89101372 160.29931641 28.62280273 C165.03900232 30.14928521 169.56645914 32.10846028 174.12744141 34.09936523 C176.73893368 35.11332453 179.16647626 35.73237278 181.92431641 36.18530273 C181.92431641 36.84530273 181.92431641 37.50530273 181.92431641 38.18530273 C183.90431641 38.51530273 185.88431641 38.84530273 187.92431641 39.18530273 C187.92431641 39.84530273 187.92431641 40.50530273 187.92431641 41.18530273 C188.72869141 41.24717773 189.53306641 41.30905273 190.36181641 41.37280273 C194.38810931 42.29108006 197.26721433 43.91154289 200.77587891 46.02905273 C202.84325393 47.14167638 204.63241925 47.72899742 206.92431641 48.18530273 C206.92431641 48.84530273 206.92431641 49.50530273 206.92431641 50.18530273 C207.81119141 50.28842773 208.69806641 50.39155273 209.61181641 50.49780273 C213.0133939 51.20379052 215.11465705 52.1784032 217.92431641 54.18530273 C218.25431641 54.84530273 218.58431641 55.50530273 218.92431641 56.18530273 C221.08039381 57.29054294 223.27455864 58.32230412 225.48681641 59.31030273 C227.283125 60.11854492 227.283125 60.11854492 229.11572266 60.94311523 C230.04255859 61.35303711 230.96939453 61.76295898 231.92431641 62.18530273 C231.92431641 62.84530273 231.92431641 63.50530273 231.92431641 64.18530273 C234.23431641 64.84530273 236.54431641 65.50530273 238.92431641 66.18530273 C238.92431641 66.84530273 238.92431641 67.50530273 238.92431641 68.18530273 C239.60494141 68.41217773 240.28556641 68.63905273 240.98681641 68.87280273 C244.03335293 70.23402118 246.42785448 71.87310615 249.08056641 73.86889648 C250.9647058 75.25288661 250.9647058 75.25288661 253.23681641 76.56030273 C256.40763278 78.47754054 259.41671747 80.58809073 262.42431641 82.74780273 C263.03597656 83.18688965 263.64763672 83.62597656 264.27783203 84.07836914 C291.08375951 103.42363555 317.71636795 125.90927259 339.16259766 151.14624023 C341.29385559 153.61301771 343.51755466 155.98494591 345.73681641 158.37280273 C351.18670634 164.363584 356.08989508 170.69962489 360.92431641 177.18530273 C361.47168457 177.91346191 362.01905273 178.64162109 362.58300781 179.3918457 C370.11651546 189.41917545 377.32916176 199.51477962 383.92431641 210.18530273 C384.90078125 211.72831055 384.90078125 211.72831055 385.89697266 213.30249023 C391.60116066 222.3974381 396.78696779 231.76197325 401.92431641 241.18530273 C402.29621094 241.86447754 402.66810547 242.54365234 403.05126953 243.2434082 C408.693478 253.56783051 414.17859818 264.00425182 418.15087891 275.10327148 C419.14808262 277.78766329 420.25448793 280.4194921 421.36181641 283.06030273 C424.82944179 291.34522806 428.1370144 299.57829825 430.89697266 308.13061523 C431.67263143 310.43694664 432.50615925 312.6706458 433.39697266 314.93139648 C435.14963642 319.56566987 436.22189151 324.2945588 437.29931641 329.12280273 C438.8636372 335.95676351 440.60160046 342.675752 442.67431641 349.37280273 C444.2698667 354.57169246 445.41870919 359.51221085 445.75634766 364.95092773 C446.1492759 370.17778716 447.51820785 375.32000898 448.63110352 380.43164062 C450.55309258 389.56248144 451.80488168 398.63152763 452.61181641 407.93530273 C452.67502075 408.63997681 452.7382251 409.34465088 452.80334473 410.07067871 C457.65001703 464.87961859 457.65001703 464.87961859 446.10791016 482.82202148 C445.71732422 483.2719043 445.32673828 483.72178711 444.92431641 484.18530273 C444.26431641 484.18530273 443.60431641 484.18530273 442.92431641 484.18530273 C442.69744141 484.90717773 442.47056641 485.62905273 442.23681641 486.37280273 C439.08318366 493.13058718 432.12636774 497.37625528 425.92431641 501.18530273 C425.26431641 501.18530273 424.60431641 501.18530273 423.92431641 501.18530273 C423.92431641 501.84530273 423.92431641 502.50530273 423.92431641 503.18530273 C421.90376623 503.81121753 419.8828618 504.43598882 417.86181641 505.06030273 C416.73646484 505.40834961 415.61111328 505.75639648 414.45166016 506.11499023 C413.28763672 506.46819336 412.12361328 506.82139648 410.92431641 507.18530273 C409.97229157 507.53212937 409.02026673 507.87895601 408.03939265 508.23629254 C402.34653537 509.83925495 396.41948308 509.46013396 390.55575275 509.43977833 C389.18176534 509.44216945 387.80777922 509.44543545 386.43379572 509.44949493 C382.65139331 509.45812156 378.86909002 509.45428573 375.08668606 509.4484392 C370.97417905 509.44427262 366.86169025 509.45166876 362.74918765 509.45759171 C355.53909073 509.46636284 348.32902221 509.46766258 341.11892128 509.46408844 C330.39710396 509.45878749 319.67531419 509.46487065 308.95349986 509.47317137 C288.69075458 509.4884268 268.42802179 509.49011482 248.16527198 509.48764835 C232.51860861 509.48581684 216.87194934 509.4875723 201.22528648 509.49187279 C198.97861783 509.49247518 196.73194917 509.49307638 194.48528051 509.49367639 C191.09988841 509.49458363 187.7144963 509.49549229 184.3291042 509.49640874 C152.84491791 509.50484079 121.36073317 509.50917227 89.87654591 509.50500202 C88.68917385 509.50484565 87.5018018 509.50468927 86.27844877 509.50452816 C80.26017103 509.50372235 74.2418933 509.50287658 68.22361556 509.50201485 C67.02833576 509.50184377 65.83305595 509.50167268 64.60155555 509.50149641 C62.18440756 509.50114975 59.76725957 509.50080122 57.35011158 509.50045082 C19.74129233 509.49509389 -17.86750348 509.50302219 -55.47631836 509.52148438 C-97.71683229 509.5421959 -139.9573317 509.55292864 -182.197851 509.54890889 C-186.70109228 509.54851354 -191.20433356 509.54815199 -195.70757484 509.54781151 C-197.37082773 509.54767541 -197.37082773 509.54767541 -199.06768168 509.54753656 C-215.81464513 509.54637006 -232.56159391 509.55302299 -249.3085537 509.56362343 C-268.35391367 509.57566631 -287.39924135 509.57724498 -306.4446018 509.56483326 C-317.10448825 509.55819739 -327.7642975 509.55985248 -338.4241778 509.57342178 C-345.54482941 509.58165547 -352.66542309 509.57898277 -359.78606998 509.56744651 C-363.84313729 509.56117935 -367.90005376 509.55961695 -371.95711245 509.57130984 C-375.65242447 509.58186208 -379.3474581 509.5784564 -383.0427553 509.56420531 C-384.98858543 509.56021599 -386.93442907 509.57084755 -388.88023028 509.58218238 C-396.68707249 509.53403323 -403.60539257 508.44487773 -411.07568359 506.18530273 C-412.18955876 505.85103219 -412.18955876 505.85103219 -413.32593645 505.51000871 C-424.32772084 502.02108544 -434.47317093 494.26982553 -440.07568359 484.18530273 C-440.54361328 483.74186523 -441.01154297 483.29842773 -441.49365234 482.84155273 C-443.38451592 480.86198198 -444.42406697 478.88637203 -445.63818359 476.43530273 C-446.05197266 475.61545898 -446.46576172 474.79561523 -446.89208984 473.95092773 C-449.23546747 468.47531269 -450.33763502 463.57214831 -450.26318359 457.62280273 C-450.25528809 456.95990234 -450.24739258 456.29700195 -450.23925781 455.61401367 C-450.20074431 453.13721594 -450.13931301 450.66158409 -450.07568359 448.18530273 C-450.05103027 447.12263184 -450.02637695 446.05996094 -450.00097656 444.96508789 C-449.65952871 430.93841016 -449.09528916 416.93414229 -448.13818359 402.93530273 C-448.0635791 401.80060547 -447.98897461 400.6659082 -447.91210938 399.49682617 C-447.43114778 392.92073372 -446.538587 386.61288522 -445.07568359 380.18530273 C-444.82947266 379.04963867 -444.58326172 377.91397461 -444.32958984 376.74389648 C-444.10142578 375.71393555 -443.87326172 374.68397461 -443.63818359 373.62280273 C-442.30110614 367.45739005 -441.17701563 361.27232486 -440.16577148 355.04638672 C-439.4739106 350.92615631 -438.44170953 347.1272633 -437.07568359 343.18530273 C-436.79708609 341.79489483 -436.54644062 340.39855861 -436.32568359 338.99780273 C-434.06448117 327.22886728 -429.8982264 315.72447908 -425.10693359 304.77514648 C-423.8324043 301.57433996 -423.06456468 298.40559415 -422.43505859 295.02514648 C-422.07568359 293.18530273 -422.07568359 293.18530273 -421.07568359 290.18530273 C-420.41568359 290.18530273 -419.75568359 290.18530273 -419.07568359 290.18530273 C-418.82818359 288.90655273 -418.58068359 287.62780273 -418.32568359 286.31030273 C-416.20961736 277.01112733 -411.98539931 268.96805563 -407.49316406 260.63208008 C-405.22715978 256.41399691 -403.09805362 252.18232048 -401.13818359 247.81030273 C-394.56087237 233.29673168 -386.7834761 219.51647475 -378.07568359 206.18530273 C-377.38603516 205.12827148 -376.69638672 204.07124023 -375.98583984 202.98217773 C-374.03749428 200.03458167 -372.06123504 197.10794229 -370.07568359 194.18530273 C-369.26697888 192.9757415 -368.45838996 191.76610284 -367.64990234 190.55639648 C-366.83405792 189.34898542 -366.01766292 188.14194617 -365.20068359 186.93530273 C-364.81904053 186.36142822 -364.43739746 185.78755371 -364.04418945 185.19628906 C-363.10587121 183.82288824 -362.09657692 182.49848503 -361.07568359 181.18530273 C-360.41568359 181.18530273 -359.75568359 181.18530273 -359.07568359 181.18530273 C-358.85009766 180.48663086 -358.62451172 179.78795898 -358.39208984 179.06811523 C-356.78948739 175.55855852 -354.54195292 172.92250775 -352.01318359 170.06030273 C-351.01355385 168.90746423 -350.01486967 167.75380521 -349.01708984 166.59936523 C-348.51967285 166.02605469 -348.02225586 165.45274414 -347.50976562 164.86206055 C-345.43203904 162.43274046 -343.44532346 159.93299992 -341.45068359 157.43530273 C-337.93112813 153.10499252 -334.17161767 149.17438284 -330.17724609 145.28295898 C-328.28904954 143.39827209 -326.54955539 141.46913178 -324.82568359 139.43530273 C-317.87018843 131.34487829 -310.13032034 123.71162279 -301.98974609 116.81811523 C-298.90773717 114.18897292 -295.94239676 111.42878329 -292.95849609 108.68920898 C-291.07568359 107.18530273 -291.07568359 107.18530273 -289.07568359 107.18530273 C-289.07568359 106.52530273 -289.07568359 105.86530273 -289.07568359 105.18530273 C-286.95849609 103.23999023 -286.95849609 103.23999023 -284.20068359 101.06030273 C-283.29576172 100.33584961 -282.39083984 99.61139648 -281.45849609 98.86499023 C-279.07568359 97.18530273 -279.07568359 97.18530273 -277.07568359 97.18530273 C-277.07568359 96.52530273 -277.07568359 95.86530273 -277.07568359 95.18530273 C-275.69720196 94.22143418 -274.31039705 93.26783576 -272.88964844 92.36743164 C-270.9842814 91.12573754 -269.18456978 89.79496183 -267.37646484 88.41577148 C-266.72991943 87.92278564 -266.08337402 87.4297998 -265.41723633 86.921875 C-264.74764893 86.41068115 -264.07806152 85.8994873 -263.38818359 85.37280273 C-257.87696147 81.1977496 -252.31235285 77.26891543 -246.41162109 73.65405273 C-244.22759239 72.2808173 -242.19137625 70.80718956 -240.13818359 69.24780273 C-237.07568359 67.18530273 -237.07568359 67.18530273 -233.07568359 67.18530273 C-232.74568359 66.19530273 -232.41568359 65.20530273 -232.07568359 64.18530273 C-228.16056595 61.67962744 -224.28905814 59.85299267 -219.99365234 58.07983398 C-217.7473112 57.03215146 -215.68883285 55.79363476 -213.57568359 54.49780273 C-209.19475694 51.82617773 -204.76218984 49.27631505 -200.26318359 46.81030273 C-199.31185547 46.27336792 -199.31185547 46.27336792 -198.34130859 45.72558594 C-194.77464362 43.79285694 -192.15023505 42.73516181 -188.07568359 43.18530273 C-188.07568359 42.52530273 -188.07568359 41.86530273 -188.07568359 41.18530273 C-186.82676746 40.70331811 -185.57649551 40.22484597 -184.32568359 39.74780273 C-183.28154297 39.34754883 -183.28154297 39.34754883 -182.21630859 38.93920898 C-180.07568359 38.18530273 -180.07568359 38.18530273 -177.87255859 37.71264648 C-177.27958984 37.53862305 -176.68662109 37.36459961 -176.07568359 37.18530273 C-175.74568359 36.52530273 -175.41568359 35.86530273 -175.07568359 35.18530273 C-172.9586212 34.31963327 -170.80497185 33.5426725 -168.63818359 32.81030273 C-164.467475 31.39107149 -160.35854759 29.91734837 -156.27490234 28.26342773 C-106.799337 8.28914141 -53.13060638 -0.00331942 0 0 Z " fill="#1C1401" transform="translate(548.07568359375,353.814697265625)"/>
<path d="M0 0 C3.89407797 2.99408714 7.46635058 6.29371098 11.046875 9.65234375 C13.67702268 12.07207962 16.38361212 14.1936723 19.27734375 16.28125 C21.23493855 17.72874395 23.14544297 19.21177523 25.05078125 20.7265625 C25.67299561 21.22099854 26.29520996 21.71543457 26.9362793 22.22485352 C28.18068741 23.21625384 29.42311747 24.21014331 30.66333008 25.20678711 C33.51541326 27.47262421 36.22045588 29.55545244 39.5859375 30.98828125 C39.5859375 31.64828125 39.5859375 32.30828125 39.5859375 32.98828125 C40.18664062 33.26800781 40.78734375 33.54773438 41.40625 33.8359375 C44.0307329 35.22343294 46.06583926 37.07806096 48.28515625 39.03125 C51.80446804 42.02475629 55.46279582 44.83730654 59.11645508 47.66430664 C62.05390603 49.94976505 64.93374264 52.25846439 67.703125 54.74609375 C73.73584166 60.10673057 79.09195841 63.49028822 86.7734375 66.05078125 C89.5859375 66.98828125 89.5859375 66.98828125 91.5234375 68.05078125 C98.21395659 71.09192629 106.5612809 70.14038184 113.71875 70.11328125 C114.99597931 70.11062256 116.27320862 70.10796387 117.58914185 70.10522461 C130.00163092 70.04510603 142.39471257 69.62672964 154.79669189 69.13269043 C171.92886415 68.45750563 189.06383948 67.78962627 206.2109375 67.73828125 C207.39800293 67.72925781 208.58506836 67.72023438 209.80810547 67.7109375 C215.75364133 67.73234678 220.89158389 68.25102083 226.5859375 69.98828125 C226.5859375 70.64828125 226.5859375 71.30828125 226.5859375 71.98828125 C227.4109375 71.86453125 228.2359375 71.74078125 229.0859375 71.61328125 C233.41991759 72.07763626 235.27272401 73.66138664 238.55859375 76.3828125 C240.58776096 78.06652052 240.58776096 78.06652052 243.0546875 79.43359375 C258.49086083 88.91445329 263.05052738 105.61652376 267.09912109 122.05517578 C269.55848376 131.82109033 272.50252753 141.5191717 275.58984375 151.10546875 C277.51246115 157.13581854 279.10854051 162.98510474 279.99609375 169.2578125 C280.63095567 172.19667662 281.68971169 174.85634232 282.77661133 177.65258789 C284.02615767 181.25874472 284.82395111 184.95131659 285.67749023 188.66772461 C288.84628689 202.55522965 288.84628689 202.55522965 295.5859375 214.98828125 C296.15441406 215.79007813 296.72289062 216.591875 297.30859375 217.41796875 C302.00940075 223.72014956 306.79263745 228.95112008 313.5859375 232.98828125 C316.38741416 234.92150364 319.17228796 236.87406221 321.9453125 238.84765625 C324.48750655 240.63310416 326.61947377 241.99946001 329.5859375 242.98828125 C330.01519531 243.43042969 330.44445312 243.87257813 330.88671875 244.328125 C334.0580441 247.42654632 338.20744198 249.23857731 342.06640625 251.3671875 C342.89785156 251.90214844 343.72929688 252.43710937 344.5859375 252.98828125 C344.5859375 253.64828125 344.5859375 254.30828125 344.5859375 254.98828125 C345.68421875 255.37693359 345.68421875 255.37693359 346.8046875 255.7734375 C349.66523678 257.022919 351.67815099 258.454618 354.0859375 260.42578125 C357.14218898 262.91705666 360.1992185 264.97429968 363.5859375 266.98828125 C367.44048481 269.52176244 371.25786136 272.11144427 375.08007812 274.69335938 C375.85673828 275.21478516 376.63339844 275.73621094 377.43359375 276.2734375 C378.13492432 276.746604 378.83625488 277.21977051 379.55883789 277.70727539 C381.51712961 278.94479878 383.49648293 279.99147455 385.5859375 280.98828125 C385.5859375 281.64828125 385.5859375 282.30828125 385.5859375 282.98828125 C386.2871875 283.23578125 386.9884375 283.48328125 387.7109375 283.73828125 C398.18494954 288.29219953 404.27346615 296.22565274 409.5859375 305.98828125 C410.17568359 307.02855469 410.17568359 307.02855469 410.77734375 308.08984375 C417.06105454 319.72978033 417.05166296 333.41742619 413.5859375 345.98828125 C411.98309717 350.76889765 410.18645912 355.47681018 408.390625 360.1875 C406.77325912 364.43966183 405.30252544 368.72420526 403.8984375 373.05078125 C402.59554333 377.02714658 401.25209696 380.93622484 399.6484375 384.80078125 C396.81711961 391.66701371 394.6116902 398.76093575 392.29980469 405.81445312 C391.28074851 408.91762557 390.24600694 412.01541385 389.2109375 415.11328125 C388.73527344 416.54027344 388.73527344 416.54027344 388.25 417.99609375 C387.92128906 418.98222656 387.92128906 418.98222656 387.5859375 419.98828125 C386.5959375 419.98828125 385.6059375 419.98828125 384.5859375 419.98828125 C383.874375 418.56515625 383.874375 418.56515625 383.1484375 417.11328125 C380.69105504 412.79979077 377.46546049 409.33268748 374.09765625 405.7109375 C372.12290103 403.57033969 370.20076638 401.40627542 368.29296875 399.20703125 C364.49292026 394.84825744 360.55684912 390.62870974 356.5859375 386.42578125 C355.91304687 385.70970703 355.24015625 384.99363281 354.546875 384.25585938 C350.30279065 379.75368882 345.98266285 375.34116076 341.5859375 370.98828125 C339.14012306 368.54968161 336.70187035 366.10777517 334.296875 363.62890625 C329.27420694 358.48865065 324.07907504 353.83632835 318.4609375 349.359375 C314.2391502 345.8775477 310.28661017 342.13096618 306.3125 338.37109375 C303.68836227 335.93285081 303.68836227 335.93285081 300.734375 334.29296875 C299.67089844 333.64714844 299.67089844 333.64714844 298.5859375 332.98828125 C298.5859375 332.32828125 298.5859375 331.66828125 298.5859375 330.98828125 C298.04453125 330.74078125 297.503125 330.49328125 296.9453125 330.23828125 C294.0576526 328.70839521 291.48817732 326.89677128 288.8359375 324.98828125 C287.85109375 324.28703125 286.86625 323.58578125 285.8515625 322.86328125 C285.10390625 322.24453125 284.35625 321.62578125 283.5859375 320.98828125 C283.5859375 320.32828125 283.5859375 319.66828125 283.5859375 318.98828125 C283.00328125 318.87355469 282.420625 318.75882812 281.8203125 318.640625 C279.42070615 317.94004063 277.85732817 317.0063553 275.8359375 315.55078125 C275.22234375 315.11894531 274.60875 314.68710937 273.9765625 314.2421875 C273.51765625 313.82839844 273.05875 313.41460937 272.5859375 312.98828125 C272.5859375 312.32828125 272.5859375 311.66828125 272.5859375 310.98828125 C271.503125 310.84519531 271.503125 310.84519531 270.3984375 310.69921875 C267.16164952 309.88103068 265.26020601 308.59391137 262.5859375 306.61328125 C260.01968876 304.72869233 257.54251188 302.96355277 254.7734375 301.38671875 C254.0515625 300.92523438 253.3296875 300.46375 252.5859375 299.98828125 C252.5859375 299.32828125 252.5859375 298.66828125 252.5859375 297.98828125 C251.94914063 297.7665625 251.31234375 297.54484375 250.65625 297.31640625 C246.38295785 295.46790837 242.46746753 293.10095557 238.4609375 290.73828125 C236.74012476 289.73344721 235.01877454 288.72953303 233.296875 287.7265625 C232.06469238 287.00847412 232.06469238 287.00847412 230.80761719 286.27587891 C226.45032581 283.7505652 222.03205453 281.35262364 217.5859375 278.98828125 C216.86873535 278.6025293 216.1515332 278.21677734 215.41259766 277.81933594 C212.91080892 276.47426663 210.40504154 275.13685302 207.8984375 273.80078125 C207.10179687 273.3720874 206.30515625 272.94339355 205.484375 272.50170898 C201.73662484 270.51597822 198.06670212 268.7332241 194.06640625 267.3125 C190.5859375 265.98828125 190.5859375 265.98828125 189.5859375 263.98828125 C187.50984158 263.21906593 187.50984158 263.21906593 185.0234375 262.61328125 C180.94263722 261.46302735 177.44259875 260.00212078 173.7109375 258.0234375 C170.44075724 256.43042689 167.02811449 255.28911735 163.58984375 254.11328125 C161.12613673 253.19059254 158.78651171 252.18103293 156.3984375 251.0859375 C151.38494246 248.83067429 146.25152145 247.11042814 141.0234375 245.42578125 C135.48259202 243.62410763 129.9727599 241.79734967 124.52758789 239.72290039 C112.69624907 235.24653946 101.05390101 232.0523289 88.5859375 229.98828125 C84.09978596 229.12505676 79.82087249 228.10397405 75.5234375 226.55078125 C69.40804814 224.44530983 63.06105477 223.45596427 56.70556641 222.36328125 C54.73757765 222.01510909 52.77653577 221.62827593 50.81640625 221.23828125 C40.19105873 219.18709705 29.48252882 218.2581742 18.7109375 217.36328125 C17.59313904 217.2696228 17.59313904 217.2696228 16.45275879 217.17407227 C-2.53608197 215.60253882 -21.48432948 214.78381454 -40.53955078 214.74804688 C-43.64773248 214.73833229 -46.75525283 214.70715072 -49.86328125 214.67578125 C-63.36509343 214.60617674 -76.39758281 215.72371059 -89.75645447 217.63549805 C-93.9644687 218.19408935 -98.18571102 218.56059367 -102.4140625 218.92578125 C-121.18459031 220.59287518 -121.18459031 220.59287518 -139.4140625 224.98828125 C-140.80845914 225.05493501 -142.20576125 225.07366324 -143.6015625 225.05078125 C-144.8596875 225.03015625 -146.1178125 225.00953125 -147.4140625 224.98828125 C-147.4140625 225.64828125 -147.4140625 226.30828125 -147.4140625 226.98828125 C-148.49945313 227.18164062 -149.58484375 227.375 -150.703125 227.57421875 C-152.14847918 227.83701042 -153.59378938 228.10004411 -155.0390625 228.36328125 C-155.75191406 228.48960937 -156.46476562 228.6159375 -157.19921875 228.74609375 C-160.33488075 229.32144458 -163.28546601 229.94495359 -166.3125 230.96484375 C-168.93784441 231.83114128 -171.33919831 232.37637404 -174.046875 232.8671875 C-179.98990271 234.0066569 -185.58456458 235.93541546 -191.2890625 237.92578125 C-198.41083288 240.40231946 -205.47942231 242.55372392 -212.81103516 244.32006836 C-215.73135563 245.06973232 -218.41740475 246.05966727 -221.1640625 247.30078125 C-225.84448295 249.34425893 -230.55687684 251.17583776 -235.3515625 252.92578125 C-241.62909447 255.2278677 -247.63425971 257.84950736 -253.64453125 260.7890625 C-256.26289425 261.92282476 -258.60405545 262.55162568 -261.4140625 262.98828125 C-261.7440625 263.97828125 -262.0740625 264.96828125 -262.4140625 265.98828125 C-264.8203125 266.98046875 -264.8203125 266.98046875 -267.9140625 267.86328125 C-272.92815892 269.40700067 -277.19749443 271.31447063 -281.671875 274.03515625 C-283.4140625 274.98828125 -283.4140625 274.98828125 -285.4140625 274.98828125 C-285.4140625 275.64828125 -285.4140625 276.30828125 -285.4140625 276.98828125 C-287.0177956 277.63519047 -288.62206556 278.28076889 -290.2265625 278.92578125 C-291.11988281 279.28542969 -292.01320313 279.64507812 -292.93359375 280.015625 C-294.7411534 280.72441611 -296.57213659 281.37430595 -298.4140625 281.98828125 C-298.4140625 282.64828125 -298.4140625 283.30828125 -298.4140625 283.98828125 C-299.31511719 284.33375 -300.21617187 284.67921875 -301.14453125 285.03515625 C-306.97456096 287.53771738 -312.3096062 290.96052557 -317.7265625 294.23828125 C-318.80357422 294.88152344 -319.88058594 295.52476562 -320.99023438 296.1875 C-326.92738468 299.7620169 -332.70048428 303.47670175 -338.33691406 307.50976562 C-340.14948493 308.79995476 -341.98415851 310.0297602 -343.8515625 311.23828125 C-346.33142787 312.80919438 -346.33142787 312.80919438 -347.83203125 314.4375 C-349.53850759 316.11026817 -351.27007898 317.27463129 -353.2890625 318.55078125 C-357.36508006 321.21920519 -361.24640407 324.07741715 -365.1015625 327.05078125 C-365.63571777 327.46207275 -366.16987305 327.87336426 -366.72021484 328.29711914 C-369.43306261 330.40194372 -372.0826241 332.55699783 -374.68359375 334.796875 C-377.4140625 336.98828125 -377.4140625 336.98828125 -379.4140625 336.98828125 C-379.4140625 337.64828125 -379.4140625 338.30828125 -379.4140625 338.98828125 C-380.92578125 340.29296875 -380.92578125 340.29296875 -383.1015625 341.86328125 C-388.05612658 345.58117353 -392.51846217 349.70647557 -396.9831543 353.98779297 C-399.44756776 356.31959058 -401.15341344 357.90139823 -404.4140625 358.98828125 C-404.4140625 359.64828125 -404.4140625 360.30828125 -404.4140625 360.98828125 C-405.86303711 362.41821289 -405.86303711 362.41821289 -407.87890625 364.0859375 C-412.46860214 367.99066447 -416.72882633 372.15498045 -420.9765625 376.42578125 C-422.05067383 377.4940918 -422.05067383 377.4940918 -423.14648438 378.58398438 C-427.2028011 382.64768293 -431.07810143 386.81002198 -434.82592773 391.15942383 C-437.03840309 393.7072567 -439.35378993 396.15418744 -441.6640625 398.61328125 C-446.40019203 403.68533008 -450.68642424 409.02988668 -454.79785156 414.61962891 C-455.9363781 416.12870959 -457.16863757 417.56614062 -458.4140625 418.98828125 C-459.4040625 418.98828125 -460.3940625 418.98828125 -461.4140625 418.98828125 C-461.74019531 417.97507812 -462.06632812 416.961875 -462.40234375 415.91796875 C-462.84350486 414.56632621 -463.28492492 413.21476818 -463.7265625 411.86328125 C-463.93990234 411.198125 -464.15324219 410.53296875 -464.37304688 409.84765625 C-465.74002349 405.68551849 -467.42219426 401.90107449 -469.4140625 397.98828125 C-469.96086517 396.44153851 -470.46407616 394.87841192 -470.9140625 393.30078125 C-471.16285156 392.44097656 -471.41164063 391.58117187 -471.66796875 390.6953125 C-472.16730905 388.88356994 -472.65421412 387.06835619 -473.12890625 385.25 C-474.51722996 379.9443521 -476.14209694 374.92192195 -478.23828125 369.85546875 C-481.98164444 360.72713458 -485.57050714 351.70884589 -487.4140625 341.98828125 C-487.7440625 341.32828125 -488.0740625 340.66828125 -488.4140625 339.98828125 C-488.67969579 336.97414837 -488.64569023 333.95031584 -488.6640625 330.92578125 C-488.6846875 330.10400391 -488.7053125 329.28222656 -488.7265625 328.43554688 C-488.81018833 315.14949359 -481.90796549 301.24538041 -472.8515625 291.67578125 C-466.32442056 285.62573989 -457.27904174 277.863426 -448.4140625 275.98828125 C-448.4140625 275.32828125 -448.4140625 274.66828125 -448.4140625 273.98828125 C-446.54662759 272.70517275 -444.61617578 271.51347006 -442.6640625 270.36328125 C-441.45723273 269.6411591 -440.25152575 268.91715763 -439.046875 268.19140625 C-438.12890137 267.63936523 -438.12890137 267.63936523 -437.19238281 267.07617188 C-432.49877336 264.20484792 -427.97638505 261.06166848 -423.4140625 257.98828125 C-422.1699025 257.16050813 -420.92508108 256.33372852 -419.6796875 255.5078125 C-418.38278314 254.64717965 -417.08590828 253.78650236 -415.7890625 252.92578125 C-415.15395752 252.50449951 -414.51885254 252.08321777 -413.86450195 251.64916992 C-409.32178601 248.62402839 -404.86513821 245.49554753 -400.46484375 242.265625 C-398.40709545 240.98394177 -396.7518712 240.52547984 -394.4140625 239.98828125 C-393.8571875 239.43140625 -393.3003125 238.87453125 -392.7265625 238.30078125 C-390.62075501 236.19497376 -388.79571179 234.91837299 -386.2890625 233.36328125 C-368.02248615 221.34579681 -362.42233242 203.67466837 -356.9140625 183.61328125 C-356.30227429 181.40880116 -355.69029667 179.20437363 -355.078125 177 C-354.6454834 175.43644775 -354.6454834 175.43644775 -354.20410156 173.84130859 C-352.12664511 166.33909719 -350.02910799 158.85518235 -347.61376953 151.45336914 C-345.31584012 144.36676614 -343.50624124 137.26672341 -341.9140625 129.98828125 C-339.3035183 118.11184077 -336.70467207 106.51029885 -330.4140625 95.98828125 C-329.39959638 93.99557994 -328.39440754 91.99798859 -327.4140625 89.98828125 C-326.7540625 89.98828125 -326.0940625 89.98828125 -325.4140625 89.98828125 C-325.14851562 89.38757813 -324.88296875 88.786875 -324.609375 88.16796875 C-322.64919266 84.59351859 -319.55978805 82.50361339 -316.4140625 79.98828125 C-315.82625 79.47910156 -315.2384375 78.96992188 -314.6328125 78.4453125 C-301.64395245 67.74051047 -287.74246593 68.32685991 -271.7890625 68.61328125 C-269.52158393 68.63541199 -267.25408529 68.65556665 -264.98657227 68.67382812 C-258.12821187 68.73894922 -251.27140484 68.85503569 -244.4140625 68.98828125 C-242.86226288 69.01819153 -242.86226288 69.01819153 -241.27911377 69.04870605 C-231.98835494 69.23205779 -222.69866243 69.45144408 -213.40922546 69.6920929 C-184.69660097 72.08980118 -184.69660097 72.08980118 -157.4140625 65.98828125 C-156.4240625 65.98828125 -155.4340625 65.98828125 -154.4140625 65.98828125 C-154.4140625 65.32828125 -154.4140625 64.66828125 -154.4140625 63.98828125 C-153.8571875 63.92640625 -153.3003125 63.86453125 -152.7265625 63.80078125 C-149.4856747 62.66209094 -147.7828222 60.41937673 -145.4140625 57.98828125 C-144.7540625 57.98828125 -144.0940625 57.98828125 -143.4140625 57.98828125 C-143.4140625 57.32828125 -143.4140625 56.66828125 -143.4140625 55.98828125 C-141.94873047 54.6472168 -141.94873047 54.6472168 -139.90625 53.125 C-139.16632813 52.56748047 -138.42640625 52.00996094 -137.6640625 51.43554688 C-136.8803125 50.85482422 -136.0965625 50.27410156 -135.2890625 49.67578125 C-133.76469818 48.53509168 -132.24124483 47.39318362 -130.71875 46.25 C-129.98495117 45.70134277 -129.25115234 45.15268555 -128.49511719 44.58740234 C-126.60419 43.13437875 -124.78986092 41.62720112 -122.984375 40.0703125 C-120.4140625 37.98828125 -120.4140625 37.98828125 -118.4140625 37.98828125 C-118.4140625 37.32828125 -118.4140625 36.66828125 -118.4140625 35.98828125 C-116.515625 34.26171875 -116.515625 34.26171875 -114.0390625 32.36328125 C-113.22695313 31.73164062 -112.41484375 31.1 -111.578125 30.44921875 C-109.4140625 28.98828125 -109.4140625 28.98828125 -107.4140625 28.98828125 C-107.4140625 28.32828125 -107.4140625 27.66828125 -107.4140625 26.98828125 C-105.953125 25.69921875 -105.953125 25.69921875 -104.0390625 24.36328125 C-103.41257812 23.91726562 -102.78609375 23.47125 -102.140625 23.01171875 C-100.4140625 21.98828125 -100.4140625 21.98828125 -98.4140625 21.98828125 C-98.4140625 21.32828125 -98.4140625 20.66828125 -98.4140625 19.98828125 C-96.38502851 18.28306088 -94.3536374 16.68736257 -92.2265625 15.11328125 C-91.06608828 14.24130843 -89.90592774 13.36891797 -88.74609375 12.49609375 C-88.18229004 12.07618164 -87.61848633 11.65626953 -87.03759766 11.22363281 C-85.53190539 10.07794817 -84.07025545 8.87500177 -82.61328125 7.66796875 C-80.4140625 5.98828125 -80.4140625 5.98828125 -78.4140625 5.98828125 C-78.4140625 5.32828125 -78.4140625 4.66828125 -78.4140625 3.98828125 C-76.5859375 2.296875 -76.5859375 2.296875 -74.1640625 0.42578125 C-73.37515625 -0.19425781 -72.58625 -0.81429687 -71.7734375 -1.453125 C-69.53683257 -2.93061733 -67.97226448 -3.41744617 -65.4140625 -4.01171875 C-65.0840625 -4.67171875 -64.7540625 -5.33171875 -64.4140625 -6.01171875 C-44.48241013 -17.45075402 -18.10588684 -12.26089334 0 0 Z " fill="#1C1401" transform="translate(586.4140625,55.01171875)"/>
<path d="M0 0 C0.6587915 0.24355225 1.31758301 0.48710449 1.99633789 0.73803711 C6.37158957 2.52870901 9.17314005 4.821844 12.3125 8.3125 C13.1375 9.116875 13.9625 9.92125 14.8125 10.75 C15.6375 11.595625 16.4625 12.44125 17.3125 13.3125 C18.5809375 14.611875 18.5809375 14.611875 19.875 15.9375 C26.48193012 24.23797866 27.66450104 34.82811187 26.67773438 45.09863281 C25.09852317 54.67101732 19.89274426 65.20539755 12.3125 71.3125 C8.45073619 73.95447156 4.48483624 76.19958614 0.3125 78.3125 C-0.54859375 78.74949219 -1.4096875 79.18648437 -2.296875 79.63671875 C-12.30521677 84.17872099 -22.52392046 82.97919605 -32.6875 79.3125 C-43.37228472 74.13251637 -51.49702488 64.29929192 -55.6875 53.3125 C-59.57019709 41.21483326 -57.7035985 29.43594987 -52.4375 18 C-49.25701922 12.02338657 -44.46316208 6.89739371 -38.6875 3.3125 C-37.35643378 2.97022583 -36.02349921 2.63498257 -34.6875 2.3125 C-34.3575 1.6525 -34.0275 0.9925 -33.6875 0.3125 C-22.76065278 -4.67167592 -11.05591851 -4.09416688 0 0 Z " fill="#FBFBFA" transform="translate(311.6875,681.6875)"/>
<path d="M0 0 C7.36869655 0.09260952 14.36819145 0.85437354 21.01635742 4.32348633 C21.51135742 5.80848633 21.51135742 5.80848633 22.01635742 7.32348633 C22.88260742 7.75661133 22.88260742 7.75661133 23.76635742 8.19848633 C26.8259396 9.72827742 28.68858104 11.82538485 31.01635742 14.32348633 C32.28479492 15.59192383 32.28479492 15.59192383 33.57885742 16.88598633 C36.71435974 20.64463264 37.83305999 25.1922535 39.21948242 29.81176758 C39.77708644 32.2376034 39.77708644 32.2376034 41.01635742 33.32348633 C41.14410587 35.73288149 41.20157306 38.10098308 41.20385742 40.51098633 C41.21803711 41.82454102 41.2322168 43.1380957 41.24682617 44.49145508 C40.64958398 54.42187182 35.02960332 65.31024043 28.01635742 72.32348633 C26.04716896 73.70191825 24.04970951 75.04159045 22.01635742 76.32348633 C21.55358398 76.81075195 21.09081055 77.29801758 20.61401367 77.80004883 C14.06086709 84.04877051 3.93577329 83.95039562 -4.56298828 83.85693359 C-14.76329153 83.46465113 -21.86706636 80.6731918 -29.35864258 73.63598633 C-33.71370351 68.93140205 -37.10497753 64.04281425 -39.98364258 58.32348633 C-40.32266602 57.6918457 -40.66168945 57.06020508 -41.01098633 56.40942383 C-45.95723127 45.69635874 -42.92926145 32.72891393 -39.21020508 22.11645508 C-36.07772811 14.83129074 -29.55206469 8.63126603 -22.98364258 4.32348633 C-20.44067383 3.40942383 -20.44067383 3.40942383 -17.79614258 2.69848633 C-11.37208715 0.94903639 -6.98947349 0.02809023 0 0 Z " fill="#FCFCFB" transform="translate(409.983642578125,566.676513671875)"/>
<path d="M0 0 C-1.46966358 3.39859703 -3.38037514 5.64963709 -6 8.25 C-6.70125 8.95640625 -7.4025 9.6628125 -8.125 10.390625 C-10 12 -10 12 -12 12 C-10.53033642 8.60140297 -8.61962486 6.35036291 -6 3.75 C-5.29875 3.04359375 -4.5975 2.3371875 -3.875 1.609375 C-2 0 -2 0 0 0 Z " fill="#CBCAC5" transform="translate(385,574)"/>
<path d="M0 0 C-1.38188453 3.21043882 -2.92421903 5.04936365 -5.625 7.25 C-6.57246094 8.03117188 -6.57246094 8.03117188 -7.5390625 8.828125 C-8.02117187 9.21484375 -8.50328125 9.6015625 -9 10 C-9 7 -9 7 -7.5390625 5.17578125 C-6.90742188 4.56089844 -6.27578125 3.94601562 -5.625 3.3125 C-4.68527344 2.37857422 -4.68527344 2.37857422 -3.7265625 1.42578125 C-2 0 -2 0 0 0 Z " fill="#BEBDB7" transform="translate(271,688)"/>
<path d="M0 0 C0.33 0.99 0.66 1.98 1 3 C-1.66666667 5.66666667 -4.33333333 8.33333333 -7 11 C-7.66 10.67 -8.32 10.34 -9 10 C-6.03 6.7 -3.06 3.4 0 0 Z " fill="#494639" transform="translate(228,488)"/>
<path d="M0 0 C0.33 0.99 0.66 1.98 1 3 C-3.82142857 8.22321429 -3.82142857 8.22321429 -8 9 C-7.04270084 7.87411986 -6.08412105 6.7493285 -5.125 5.625 C-4.59132812 4.99851562 -4.05765625 4.37203125 -3.5078125 3.7265625 C-2.38567993 2.44163349 -1.20628025 1.20628025 0 0 Z " fill="#545144" transform="translate(211,279)"/>
<path d="M0 0 C0.33 0 0.66 0 1 0 C1.35233161 5.37305699 1.35233161 5.37305699 1 8 C-1 10 -1 10 -3 11 C-2.32829194 7.1936543 -1.27253436 3.64793184 0 0 Z " fill="#423C2D" transform="translate(242,196)"/>
<path d="M0 0 C0.66 0.99 1.32 1.98 2 3 C1.25 5.3125 1.25 5.3125 0 8 C-0.67795528 9.99620166 -1.34733531 11.99538701 -2 14 C-2.33 14 -2.66 14 -3 14 C-2.48594831 9.03083364 -1.76615118 4.70973649 0 0 Z " fill="#736C60" transform="translate(250,165)"/>
<path d="M0 0 C0.95465783 2.16967689 1.14401212 3.56328793 0.3984375 5.82421875 C-0.35870385 7.5684743 -1.17609198 9.28627131 -2 11 C-2.66 11 -3.32 11 -4 11 C-3.52269162 9.5410574 -3.04308958 8.08286504 -2.5625 6.625 C-2.29566406 5.81289063 -2.02882813 5.00078125 -1.75390625 4.1640625 C-1 2 -1 2 0 0 Z " fill="#5B584B" transform="translate(336,732)"/>
<path d="M0 0 C-1.44390925 3.80666984 -3.34952803 5.26602582 -7 7 C-7.66 6.67 -8.32 6.34 -9 6 C-7.8803014 4.99406757 -6.7540588 3.9954151 -5.625 3 C-4.68527344 2.1646875 -4.68527344 2.1646875 -3.7265625 1.3125 C-2 0 -2 0 0 0 Z " fill="#565244" transform="translate(284,441)"/>
<path d="M0 0 C0.33 0.99 0.66 1.98 1 3 C-0.375 4.5 -0.375 4.5 -2 6 C-2.66 6 -3.32 6 -4 6 C-4 6.99 -4 7.98 -4 9 C-4.66 9 -5.32 9 -6 9 C-5.67 7.68 -5.34 6.36 -5 5 C-4.34 5 -3.68 5 -3 5 C-2.5359375 4.0409375 -2.5359375 4.0409375 -2.0625 3.0625 C-1 1 -1 1 0 0 Z " fill="#555244" transform="translate(264,140)"/>
<path d="M0 0 C0.33 0.99 0.66 1.98 1 3 C-1.97 5.475 -1.97 5.475 -5 8 C-5.66 7.67 -6.32 7.34 -7 7 C-4.69 4.69 -2.38 2.38 0 0 Z " fill="#524F42" transform="translate(238,478)"/>
<path d="M0 0 C0.33 0 0.66 0 1 0 C1.36923077 7.50769231 1.36923077 7.50769231 -0.5 10 C-0.995 10.33 -1.49 10.66 -2 11 C-1.125 3.375 -1.125 3.375 0 0 Z " fill="#544E40" transform="translate(232,230)"/>
<path d="M0 0 C1.98 0.66 3.96 1.32 6 2 C4.68 3.32 3.36 4.64 2 6 C1.34 4.02 0.68 2.04 0 0 Z " fill="#3F3927" transform="translate(124,469)"/>
<path d="M0 0 C0.66 0.33 1.32 0.66 2 1 C-0.12055614 4.1808342 -1.63050557 5.31525278 -5 7 C-5.66 6.67 -6.32 6.34 -7 6 C-4.69 4.02 -2.38 2.04 0 0 Z " fill="#555243" transform="translate(506,61)"/>
</svg>
