<?xml version="1.0" encoding="UTF-8"?>
<svg version="1.1" xmlns="http://www.w3.org/2000/svg" width="1024" height="1024">
<path d="M0 0 C337.92 0 675.84 0 1024 0 C1024 337.92 1024 675.84 1024 1024 C686.08 1024 348.16 1024 0 1024 C0 686.08 0 348.16 0 0 Z " fill="#FDFDFD" transform="translate(0,0)"/>
<path d="M0 0 C16.22602821 12.02033263 28.15003763 29.05927197 31.48046875 49.27734375 C31.697492 51.19404444 31.91383008 53.11083669 32.12158203 55.02856445 C33.22689306 65.06520397 34.90476666 74.03102001 42.48046875 81.27734375 C49.30931058 85.92839788 54.28995528 88.29589805 62.60546875 88.52734375 C84.08943207 89.60621127 102.00179701 99.52180766 116.9453125 114.796875 C131.11157259 130.94883309 136.88629147 150.84717594 135.65185547 172.03027344 C134.0062208 193.60637244 122.51158749 212.15520802 106.48046875 226.27734375 C91.04412839 238.0036624 72.6431928 242.90890866 53.5549984 242.76319885 C51.16671822 242.74553559 48.77960677 242.75365591 46.39131165 242.76745605 C40.46388929 242.79670882 34.53670977 242.78401341 28.60925293 242.77227783 C23.57858096 242.76397401 18.548431 242.77240609 13.5178318 242.80140686 C11.2015233 242.80834127 8.88622069 242.79203558 6.56999207 242.77429199 C-14.53390181 242.779162 -37.50797203 248.13082422 -52.89453125 263.40234375 C-54.10726907 264.68987597 -55.31539969 265.98175916 -56.51953125 267.27734375 C-59.86627006 270.64773045 -63.24706858 273.98278603 -66.63290405 277.31376648 C-69.34647552 279.98682232 -72.05179188 282.66817177 -74.75683594 285.34985352 C-76.17568364 286.75363123 -77.59721444 288.15470249 -79.02148438 289.55297852 C-90.32250898 300.53981415 -90.32250898 300.53981415 -99.51953125 313.27734375 C-99.95249512 314.00203857 -100.38545898 314.7267334 -100.83154297 315.47338867 C-102.02695229 317.55247443 -103.16094341 319.65084807 -104.26953125 321.77734375 C-104.65512207 322.51146484 -105.04071289 323.24558594 -105.43798828 324.00195312 C-108.16122674 329.30565604 -110.08781117 334.48776035 -111.51953125 340.27734375 C-111.98711686 341.65632504 -112.46664147 343.03130635 -112.95703125 344.40234375 C-119.56651265 364.1264277 -121.30523173 384.20983019 -121.66015625 404.88671875 C-122.08466433 427.9922334 -123.95495174 450.25970683 -131.51953125 472.27734375 C-131.73303223 472.92396973 -131.9465332 473.5705957 -132.16650391 474.23681641 C-146.06233581 516.02808981 -177.48734198 552.24946478 -216.58642578 572.33935547 C-221.50352879 574.79056127 -226.49181736 577.06356837 -231.51953125 579.27734375 C-232.1429541 579.55707031 -232.76637695 579.83679688 -233.40869141 580.125 C-259.93468799 591.92383168 -286.90667259 592.81857596 -315.51953125 592.27734375 C-316.36161133 592.2633252 -317.20369141 592.24930664 -318.07128906 592.23486328 C-328.01055789 592.01524846 -337.00372789 589.8963722 -346.51953125 587.27734375 C-348.85125241 586.68759918 -351.18443323 586.1035724 -353.51953125 585.52734375 C-355.18619792 585.11067708 -356.85286458 584.69401042 -358.51953125 584.27734375 C-358.51953125 583.61734375 -358.51953125 582.95734375 -358.51953125 582.27734375 C-359.67453125 582.09171875 -360.82953125 581.90609375 -362.01953125 581.71484375 C-384.32026235 576.6814499 -407.2288513 560.85115768 -422.51953125 544.27734375 C-424.18347683 542.60796044 -425.85036771 540.9415098 -427.51953125 539.27734375 C-440.83216429 525.92264868 -450.81562696 510.45173727 -458.51953125 493.27734375 C-459.050625 492.10300781 -459.58171875 490.92867187 -460.12890625 489.71875 C-463.2725963 482.32135562 -465.63067397 474.82928507 -467.76953125 467.08984375 C-468.01590332 466.19958496 -468.26227539 465.30932617 -468.51611328 464.39208984 C-471.45247035 453.34676051 -472.7271702 442.75336024 -472.89453125 431.33984375 C-473.28570076 417.70575587 -474.47990542 406.41617537 -484.51953125 396.27734375 C-492.21764648 389.08003527 -499.89409417 385.11612814 -510.51953125 384.83984375 C-523.2622563 385.28115025 -532.58624339 389.81203095 -541.39453125 399.08984375 C-548.20577753 407.65622112 -549.15350472 416.21061472 -548.95703125 426.90234375 C-548.94454346 428.17053955 -548.93205566 429.43873535 -548.91918945 430.74536133 C-548.69937515 442.73911997 -547.36161414 454.43906281 -545.51953125 466.27734375 C-545.27607783 467.97768381 -545.03384149 469.67819869 -544.79296875 471.37890625 C-543.71228057 478.71209426 -542.41181159 485.72741043 -539.58203125 492.625 C-538.67081213 494.89969774 -537.8851472 497.16063185 -537.125 499.48828125 C-532.47084445 513.60083495 -526.5046134 527.17454328 -519.51953125 540.27734375 C-519.1730957 540.93686035 -518.82666016 541.59637695 -518.46972656 542.27587891 C-509.16113714 559.90087965 -496.99301337 575.30433046 -483.57421875 590 C-481.81387327 591.95110535 -480.12768802 593.93747919 -478.45703125 595.96484375 C-475.15938347 599.82703449 -471.39569418 603.0111999 -467.51953125 606.27734375 C-466.54757812 607.12554688 -465.575625 607.97375 -464.57421875 608.84765625 C-446.87367876 624.23246609 -426.67066454 636.25344373 -405.51953125 646.27734375 C-404.59527344 646.73496094 -403.67101562 647.19257812 -402.71875 647.6640625 C-390.00474471 653.77990419 -376.09979186 657.59637837 -362.51953125 661.27734375 C-361.78734375 661.48101563 -361.05515625 661.6846875 -360.30078125 661.89453125 C-355.6348654 663.13750064 -350.92384263 663.9701003 -346.15625 664.703125 C-343.55723064 665.11349648 -340.99463708 665.56891321 -338.4140625 666.0703125 C-326.34426804 668.2567953 -314.43569312 668.55197737 -302.20703125 668.52734375 C-301.40259583 668.52647766 -300.5981604 668.52561157 -299.76934814 668.52471924 C-277.92057439 668.46505379 -277.92057439 668.46505379 -256.39453125 665.08984375 C-254.95110352 664.76209961 -254.95110352 664.76209961 -253.47851562 664.42773438 C-232.47751461 659.57082534 -211.85304886 653.9588481 -192.51953125 644.27734375 C-191.65763184 643.8503418 -190.79573242 643.42333984 -189.90771484 642.98339844 C-167.24833465 631.69892487 -146.80557481 618.24154142 -128.3359375 600.90625 C-125.66791166 598.41584585 -122.94762825 595.99975031 -120.20703125 593.58984375 C-115.93764062 589.74875186 -112.16942693 585.70415736 -108.51953125 581.27734375 C-107.84535156 580.47941406 -107.17117188 579.68148437 -106.4765625 578.859375 C-87.88330515 556.58037461 -73.51666149 532.10654942 -62.51953125 505.27734375 C-62.1121875 504.33761719 -61.70484375 503.39789062 -61.28515625 502.4296875 C-58.27679565 495.17250592 -56.0792477 487.7088148 -53.95703125 480.15234375 C-53.67609619 479.18973633 -53.39516113 478.22712891 -53.10571289 477.23535156 C-47.06985642 455.02845156 -45.93042007 432.47943645 -45.89453125 409.58984375 C-45.87808938 405.78766017 -45.85600755 401.98571564 -45.82290649 398.18363953 C-45.80352728 395.84972853 -45.79391381 393.51570744 -45.79598999 391.18171692 C-45.75634732 385.18067217 -45.25052761 380.02796923 -43.51953125 374.27734375 C-43.33132813 373.47167969 -43.143125 372.66601562 -42.94921875 371.8359375 C-39.16560282 357.36760334 -30.95719284 346.62387733 -20.51953125 336.27734375 C-19.5615257 335.32014765 -18.60404771 334.36242336 -17.64697266 333.40429688 C-17.12724884 332.88404434 -16.60752502 332.36379181 -16.072052 331.82777405 C-15.53522797 331.2903508 -14.99840393 330.75292755 -14.4453125 330.19921875 C-11.14945101 326.89994463 -7.85001261 323.60464499 -4.53320312 320.32641602 C-3.7535041 319.5534317 -3.7535041 319.5534317 -2.95805359 318.76483154 C-1.52230338 317.34192704 -0.08409641 315.92150275 1.35424805 314.5012207 C3.50868307 312.46662868 3.50868307 312.46662868 4.48046875 310.27734375 C9.14498793 311.76739849 11.04129528 315.71927592 13.48046875 319.65234375 C13.95758301 320.40837891 14.43469727 321.16441406 14.92626953 321.94335938 C16.45635982 324.38074189 17.96923386 326.82823435 19.48046875 329.27734375 C19.96612305 330.0549707 20.45177734 330.83259766 20.95214844 331.63378906 C36.1845824 356.06893933 49.78909645 382.11757199 59.48046875 409.27734375 C59.76599609 410.05529297 60.05152344 410.83324219 60.34570312 411.63476562 C68.31614538 433.37968416 74.52339259 455.36281436 78.02001953 478.27441406 C78.50742157 481.45312303 79.02280881 484.62663865 79.5390625 487.80078125 C79.8961047 490.06355437 80.25160161 492.32657192 80.60546875 494.58984375 C80.76426514 495.57073975 80.92306152 496.55163574 81.08666992 497.56225586 C84.36895377 519.33306966 84.79475545 541.30004757 84.78125 563.2734375 C84.78357626 565.28595858 84.78708071 567.29847547 84.79065675 569.31099468 C84.80160697 575.59854279 84.80226945 581.88603106 84.79614258 588.17358398 C84.79008294 594.59265424 84.80249773 601.01150641 84.82371265 607.43053955 C84.84147231 613.01604174 84.8473086 618.60147533 84.8440749 624.18700463 C84.84228837 627.49103062 84.84600878 630.79486857 84.85878944 634.09887505 C84.92671064 654.0862991 83.68624216 672.33870163 77.13012695 691.29492188 C76.38651568 693.56404008 75.7591779 695.85639677 75.1171875 698.15625 C73.57597861 703.32848417 71.36188145 707.91964448 68.79296875 712.65234375 C68.34945068 713.47814941 67.90593262 714.30395508 67.44897461 715.15478516 C61.01603201 726.97605384 53.29559691 737.15828292 44.48046875 747.27734375 C43.4169893 748.56820411 42.35427208 749.85969365 41.29296875 751.15234375 C38.02286294 754.93051684 34.34331507 758.11856302 30.48046875 761.27734375 C29.52011719 762.06367187 28.55976562 762.85 27.5703125 763.66015625 C20.53671976 769.30118473 13.28044237 774.07304951 5.31054688 778.30517578 C4.08358216 778.95695986 2.86092248 779.61690909 1.64257812 780.28466797 C-20.05548875 792.15044329 -44.05950593 798.46234367 -68.81706715 798.40877151 C-69.71292112 798.41082415 -70.6087751 798.41287678 -71.53177616 798.41499162 C-74.52525188 798.42063342 -77.51868118 798.41920786 -80.51216125 798.41778564 C-82.68357003 798.42037091 -84.85497832 798.42338452 -87.02638596 798.42678905 C-92.98747289 798.43484353 -98.94854776 798.43664776 -104.90963948 798.43738651 C-111.34142003 798.4392398 -117.77319437 798.44678858 -124.20497131 798.45352173 C-139.00042637 798.46807042 -153.79588013 798.47363049 -168.59134105 798.47821367 C-175.90903865 798.48055228 -183.22673546 798.48415525 -190.54443245 798.48790905 C-215.6130955 798.50074329 -240.68175812 798.51146193 -265.75042439 798.51491165 C-267.32320359 798.51513328 -268.89598279 798.51535507 -270.46876199 798.515577 C-272.0452574 798.51579764 -273.6217528 798.51601812 -275.19824821 798.51623845 C-278.36076248 798.51668099 -281.52327675 798.51712811 -284.68579102 798.51757812 C-285.4699068 798.51768752 -286.25402258 798.51779691 -287.06189945 798.51790961 C-312.47092496 798.52153799 -337.87992191 798.5374504 -363.28893648 798.56076849 C-390.17742391 798.585399 -417.06589501 798.59908601 -443.95439404 798.60027957 C-446.90970719 798.60045101 -449.86502034 798.60066644 -452.82033348 798.600914 C-453.91178822 798.60099765 -453.91178822 798.60099765 -455.02529254 798.601083 C-466.70421445 798.60223072 -478.3831069 798.61322904 -490.06201889 798.62780106 C-501.81561476 798.64221192 -513.56916991 798.64512605 -525.32277224 798.63736108 C-531.68266124 798.63346509 -538.04245173 798.63433272 -544.40232849 798.64841843 C-550.23622312 798.66122047 -556.06994584 798.65990479 -561.90384044 798.64782771 C-564.00283831 798.64588158 -566.10184863 798.64889839 -568.20082907 798.65767208 C-584.82046574 798.72268597 -601.57199057 797.74997132 -617.51953125 792.65234375 C-618.32729004 792.40073486 -619.13504883 792.14912598 -619.96728516 791.88989258 C-634.87554684 787.05816498 -648.75641047 780.35610445 -661.51953125 771.27734375 C-662.54691406 770.56578125 -663.57429688 769.85421875 -664.6328125 769.12109375 C-699.52837461 743.74250312 -719.40018382 707.29773399 -727.04304504 665.40802002 C-727.82936663 659.7696011 -727.67540314 654.07973534 -727.68066406 648.3984375 C-727.68562897 647.11097122 -727.69059387 645.82350494 -727.69570923 644.49702454 C-727.70878056 640.97274319 -727.71527124 637.44848087 -727.71971989 633.92417908 C-727.72266725 631.70657098 -727.72677567 629.48896786 -727.73122406 627.2713623 C-727.74490295 620.28904179 -727.75456018 613.30673292 -727.75842595 606.32439995 C-727.76286775 598.35053322 -727.7802304 590.37684126 -727.80942655 582.40302753 C-727.83135366 576.19098496 -727.84114686 569.97899029 -727.84246707 563.7669096 C-727.84349599 560.08215782 -727.84897541 556.39756997 -727.86728668 552.71286011 C-727.99042738 526.39190768 -726.5224878 500.49641873 -720.99902344 474.68505859 C-720.45903755 471.97358161 -720.02491286 469.25428503 -719.59375 466.5234375 C-718.51484732 459.93988669 -717.01613336 453.49638932 -715.39453125 447.02734375 C-715.09248779 445.82094238 -714.79044434 444.61454102 -714.47924805 443.37158203 C-703.47825753 400.4747439 -684.44117564 358.84935035 -659.51953125 322.27734375 C-658.8853125 321.30539062 -658.25109375 320.3334375 -657.59765625 319.33203125 C-650.00997257 307.70769985 -641.40092586 296.93398216 -632.51953125 286.27734375 C-632.10255478 285.77494171 -631.68557831 285.27253967 -631.25596619 284.75491333 C-623.84835173 275.85910426 -616.04072462 267.48189201 -607.82836914 259.32543945 C-605.94764597 257.45551234 -604.07796306 255.57501737 -602.20898438 253.69335938 C-595.28420707 246.7609568 -588.22617748 240.3406911 -580.51953125 234.27734375 C-579.45683959 233.39054588 -578.3984527 232.49851741 -577.34765625 231.59765625 C-556.34396598 213.71269575 -532.97509891 198.95765375 -508.51953125 186.27734375 C-507.75463379 185.87902344 -506.98973633 185.48070312 -506.20166016 185.0703125 C-498.7337803 181.20091025 -491.21108383 177.60786283 -483.3984375 174.4765625 C-480.45650868 173.25109147 -477.6293679 171.87027072 -474.76953125 170.46484375 C-464.71989119 165.78303539 -454.07160281 162.62014937 -443.51953125 159.27734375 C-442.62717773 158.9932666 -441.73482422 158.70918945 -440.81542969 158.41650391 C-422.36838734 152.58610983 -403.87933251 148.17385198 -384.70263672 145.58154297 C-381.65389261 145.15672356 -378.61930794 144.65187185 -375.58203125 144.15234375 C-312.64955518 134.67624955 -237.29412674 143.2762283 -178.69921875 168.921875 C-173.77346121 171.02167582 -168.76012619 172.89648255 -163.74780273 174.77905273 C-160.51276754 176.01504851 -157.6684887 177.18249567 -154.734375 179.05078125 C-152.64875291 180.44028365 -152.64875291 180.44028365 -150.51171875 180.2734375 C-139.08438483 174.55977054 -132.44253486 159.12473386 -128.6171875 147.80859375 C-125.40594702 137.4777703 -123.39752001 127.57774665 -123.39355469 116.73828125 C-123.39168655 116.03129593 -123.38981842 115.32431061 -123.38789368 114.59590149 C-123.38391971 113.07422241 -123.38181763 111.55253749 -123.38143158 110.03085327 C-123.37796796 106.76860551 -123.35654068 103.50654861 -123.33620071 100.24436951 C-123.29847859 94.19234617 -123.26690233 88.1405338 -123.26904297 82.08837891 C-123.2698389 77.85779332 -123.2461 73.62792063 -123.20716095 69.39752197 C-123.19683511 67.80311302 -123.19507564 66.2086204 -123.20281219 64.61419678 C-123.29072046 44.4797903 -117.09574166 26.48470698 -103.51953125 11.27734375 C-102.85308594 10.51679688 -102.18664062 9.75625 -101.5 8.97265625 C-74.92539856 -19.52478277 -31.22503503 -21.34920999 0 0 Z " fill="#000000" transform="translate(809.51953125,119.72265625)"/>
</svg>
